<?xml version="1.0" encoding="UTF-8" standalone="no"?>
<svg width="519px" height="155px" viewBox="0 0 519 155" version="1.1" xmlns="http://www.w3.org/2000/svg" xmlns:xlink="http://www.w3.org/1999/xlink">
    <!-- Generator: Sketch 39.1 (31720) - http://www.bohemiancoding.com/sketch -->
    <title>ekto</title>
    <desc>Created with Sketch.</desc>
    <defs></defs>
    <g id="Page-1" stroke="none" stroke-width="1" fill="none" fill-rule="evenodd">
        <g id="ekto">
            <path d="M110.73501,0.339812886 L110.73501,26.2155269 L28.1948673,26.2155269 L0.750476806,0.339812886 L110.73501,0.339812886 Z M28.1948673,64.8354175 L110.73501,64.8354175 L110.73501,90.517451 L0.750476806,90.517451 L0.750476806,64.8354175 L28.1948673,64.8354175 Z M28.1948673,128.943661 L110.73501,128.943661 L110.73501,154.819375 L0.750476806,154.819375 L0.750476806,152.68889 L28.1948673,128.943661 Z" id="Shape" fill="#FFFFFF"></path>
            <path d="M171.212015,77.579594 L253.752158,154.819375 L214.965742,154.819375 L143.560653,88.3869656 L132.011656,77.7732745 L143.560653,66.9659029 L214.965742,0.339812886 L253.752158,0.339812886 L171.212015,77.579594 Z M143.560653,66.9659029 L214.965742,0.339812886 L143.560653,66.9659029 Z M214.965742,154.819375 L143.560653,88.3869656 L214.965742,154.819375 Z" id="Shape" fill="#00A8D6"></path>
            <polygon id="Shape" fill="#FFFFFF" points="360.011208 0.339812886 360.011208 26.2155269 305.122427 26.2155269 305.122427 154.819375 277.471065 154.819375 277.471065 0.339812886"></polygon>
            <path d="M493.549072,23.116639 C509.474769,37.2828391 518.370228,57.0195528 518.095864,77.579594 C518.451722,98.1544911 509.543017,117.920593 493.549072,132.042549 C478.192123,146.625101 457.227351,154.835532 435.34875,154.835532 C413.470149,154.835532 392.505377,146.625101 377.148429,132.042549 C361.324205,117.826603 352.510521,98.1050421 352.808608,77.579594 C352.550271,57.0613655 361.357613,37.3539952 377.148429,23.116639 C392.505377,8.53408675 413.470149,0.32365644 435.34875,0.32365644 C457.227351,0.32365644 478.192123,8.53408675 493.549072,23.116639 L493.549072,23.116639 Z M396.355363,41.3613416 C385.929774,50.8877712 380.176939,64.0238612 380.459969,77.6570662 C380.291848,91.3272867 386.020754,104.483546 396.351066,114.150492 C406.681379,123.817438 420.74045,129.178459 435.34875,129.021133 C449.917496,129.285989 463.955013,123.902575 474.135166,114.146471 C484.668843,104.593547 490.499111,91.3816372 490.237531,77.6570662 C490.452493,64.0051954 484.642137,50.8745398 474.176561,41.3613416 C452.680784,21.2652508 417.85114,21.2652508 396.355363,41.3613416 L396.355363,41.3613416 Z" id="Shape" fill="#FFFFFF"></path>
        </g>
    </g>
</svg>
