<?xml version="1.0" standalone="no"?>
<!DOCTYPE svg PUBLIC "-//W3C//DTD SVG 1.1//EN" "http://www.w3.org/Graphics/SVG/1.1/DTD/svg11.dtd" >
<svg xmlns="http://www.w3.org/2000/svg" xmlns:xlink="http://www.w3.org/1999/xlink" version="1.1">
<metadata>
Created by FontForge 20160407 at Sun Jun 19 23:04:21 2016
 By Jimmy Wärting
Copyright (c) 2015 IcoMoon.io. All Rights Reserved.
</metadata>
<defs>
<font id="IcoMoon-Ultimate" horiz-adv-x="1024" >
  <font-face 
    font-family="IcoMoon-Ultimate"
    font-weight="400"
    font-stretch="normal"
    units-per-em="1024"
    panose-1="0 0 0 0 0 0 0 0 0 0"
    ascent="960"
    descent="-64"
    x-height="638"
    cap-height="832"
    bbox="-64.1 -71 2568.4 1024"
    underline-thickness="0"
    underline-position="0"
    unicode-range="U+0001-FFFD"
  />
<missing-glyph 
 />
    <glyph glyph-name="uniE900" unicode="house" 
d="M1024 370l-512 397l-512 -397v162l512 397l512 -397v-162zM896 384v-384h-768v384l384 288z" />
    <glyph glyph-name="uniE901" unicode="house&#x32;" 
d="M1024 370l-512 397l-512 -397v162l512 397l512 -397v-162zM896 384v-384h-256v256h-256v-256h-256v384l384 288z" />
    <glyph glyph-name="uniE902" unicode="house&#x33;" 
d="M512 928l-512 -512l96 -96l96 96v-416h256v192h128v-192h256v416l96 -96l96 96l-512 512v0zM512 512q-27 0 -45.5 18.5t-18.5 45.5t18.5 45.5t45.5 18.5t45.5 -18.5t18.5 -45.5t-18.5 -45.5t-45.5 -18.5v0z" />
    <glyph glyph-name="uniE903" unicode="house&#x34;" 
d="M512 928l-512 -512l96 -96l96 96v-416h640v416l96 -96l96 96l-512 512v0zM512 512q-27 0 -45.5 18.5t-18.5 45.5t18.5 45.5t45.5 18.5t45.5 -18.5t18.5 -45.5t-18.5 -45.5t-45.5 -18.5v0z" />
    <glyph glyph-name="uniE904" unicode="house&#x35;" 
d="M1024 352l-192 192v288h-128v-160l-192 192l-512 -512v-32h128v-320h320v192h128v-192h320v320h128v32z" />
    <glyph glyph-name="uniE905" unicode="house&#x36;" 
d="M512 960l-512 -384v-192l128 96v-480q0 -26 19 -45t45 -19h640q26 0 45 19t19 45v480l128 -96v192l-512 384v0zM832 0v0v0h-320v320h-192v-320h-128v0v0v528l320 240l320 -240v-528v0zM576 512h128v-128h-128v128z" />
    <glyph glyph-name="uniE906" unicode="house&#x37;" 
d="M294 576l282 256h-288l-282 -256h288zM0 512h256v-512h-256v512v0zM672 832l-352 -320v-512h256v256h192v-256h256v512z" />
    <glyph glyph-name="uniE907" unicode="house&#x38;" 
d="M1024 416l-512 512l-512 -512l96 -96l96 96v-480h256v192h128v-192h256v480l96 -96l96 96v0zM768 0h-128v192h-256v-192h-128v480l256 256l256 -256v-480v0z" />
    <glyph glyph-name="uniE908" unicode="house&#x39;" 
d="M512 928l-512 -512l96 -96l96 96v-480h256v192h128v-192h256v480l96 -96l96 96l-512 512v0zM264 0h-8v480l8 8v-488v0zM296 0h-16v504l16 16v-520v0zM328 0h-16v536l16 16v-552v0zM360 0h-16v568l16 16v-584v0zM392 192h-8v-192h-8v600l16 16v-424v0zM424 192h-16v440
l16 16v-456v0zM456 192h-16v472l16 16v-488v0zM488 192h-16v504l16 16v-520v0zM520 192h-16v536l8 8l8 -8v-536v0zM552 192h-16v520l16 -16v-504v0zM584 192h-16v488l16 -16v-472v0zM616 192h-16v456l16 -16v-440v0zM648 0h-8v192h-8v424l16 -16v-600v0zM680 0h-16v584
l16 -16v-568v0zM712 0h-16v552l16 -16v-536v0zM744 0h-16v520l16 -16v-504v0zM768 0h-8v488l8 -8v-480v0z" />
    <glyph glyph-name="uniE909" unicode="buildings" 
d="M0 -64h512v1024h-512v-1024v0zM320 832h128v-128h-128v128v0zM320 576h128v-128h-128v128v0zM320 320h128v-128h-128v128v0zM64 832h128v-128h-128v128v0zM64 576h128v-128h-128v128v0zM64 320h128v-128h-128v128v0zM576 640h448v-64h-448v64zM576 -64h128v256h192v-256
h128v576h-448v-576z" />
    <glyph glyph-name="uniE90A" unicode="buildings&#x32;" 
d="M992 704h-32v96q0 13 -9.5 22.5t-22.5 9.5h-96v96q0 13 -9.5 22.5t-22.5 9.5t-22.5 -9.5t-9.5 -22.5v-96h-96q-13 0 -22.5 -9.5t-9.5 -22.5v-96h-32q-13 0 -22.5 -9.5t-9.5 -22.5v-160h192q27 0 45.5 -18.5t18.5 -45.5v-448h-64v416q0 13 -9.5 22.5t-22.5 9.5h-384
q-13 0 -22.5 -9.5t-9.5 -22.5v-416h-64v448q0 27 18.5 45.5t45.5 18.5h128v288q0 13 -9.5 22.5t-22.5 9.5h-384q-13 0 -22.5 -9.5t-9.5 -22.5v-832q0 -13 9.5 -22.5t22.5 -9.5h960q13 0 22.5 9.5t9.5 22.5v704q0 13 -9.5 22.5t-22.5 9.5v0zM704 576h-64v64h64v-64v0z
M320 768h64v-64h-64v64v0zM320 640h64v-64h-64v64v0zM192 768h64v-64h-64v64v0zM128 192h-64v64h64v-64v0zM128 320h-64v64h64v-64v0zM128 448h-64v64h64v-64v0zM128 576h-64v64h64v-64v0zM128 704h-64v64h64v-64v0zM192 640h64v-64h-64v64v0zM704 0h-320v384h320v-384v0z
M832 576h-64v64h64v-64v0zM960 192h-64v128h64v-128v0zM960 384h-64v128h64v-128v0zM960 576h-64v64h64v-64v0zM448 320h64v-64h-64v64v0zM576 320h64v-64h-64v64v0zM448 192h64v-64h-64v64v0zM576 192h64v-64h-64v64v0z" />
    <glyph glyph-name="uniE90B" unicode="newspaper" 
d="M896 704v128h-896v-704q0 -27 18.5 -45.5t45.5 -18.5h864q40 0 68 28t28 68v544h-128v0zM832 128h-768v640h768v-640v0zM128 640h640v-64h-640v64zM512 512h256v-64h-256v64zM512 384h256v-64h-256v64zM512 256h192v-64h-192v64zM128 512h320v-320h-320v320z" />
    <glyph glyph-name="uniE90C" unicode="magazine" 
d="M672 576h128q13 0 22.5 9.5t9.5 22.5t-9.5 22.5t-22.5 9.5h-128q-13 0 -22.5 -9.5t-9.5 -22.5t9.5 -22.5t22.5 -9.5v0zM672 704h128q13 0 22.5 9.5t9.5 22.5t-9.5 22.5t-22.5 9.5h-128q-13 0 -22.5 -9.5t-9.5 -22.5t9.5 -22.5t22.5 -9.5v0zM672 448h128q13 0 22.5 9.5
t9.5 22.5t-9.5 22.5t-22.5 9.5h-128q-13 0 -22.5 -9.5t-9.5 -22.5t9.5 -22.5t22.5 -9.5v0zM224 192h576q13 0 22.5 9.5t9.5 22.5t-9.5 22.5t-22.5 9.5h-576q-13 0 -22.5 -9.5t-9.5 -22.5t9.5 -22.5t22.5 -9.5v0zM224 320h576q13 0 22.5 9.5t9.5 22.5t-9.5 22.5t-22.5 9.5
h-576q-13 0 -22.5 -9.5t-9.5 -22.5t9.5 -22.5t22.5 -9.5v0zM928 960h-736q-31 0 -54.5 -8.5t-40.5 -25.5q-17 -16 -25 -40t-8 -54v-864q0 -13 9.5 -22.5t22.5 -9.5h704q13 0 22.5 9.5t9.5 22.5v32h96q13 0 22.5 9.5t9.5 22.5v896q0 13 -9.5 22.5t-22.5 9.5v0zM896 64h-768
v768q0 17 3.5 29.5t10.5 19.5q8 8 20.5 11.5t29.5 3.5h704v-832v0zM544 832h-320q-13 0 -22.5 -9.5t-9.5 -22.5v-320q0 -13 9.5 -22.5t22.5 -9.5h320q13 0 22.5 9.5t9.5 22.5v320q0 13 -9.5 22.5t-22.5 9.5v0zM512 512h-256v64q0 27 18.5 45.5t45.5 18.5h64
q-27 0 -45.5 18.5t-18.5 45.5t18.5 45.5t45.5 18.5t45.5 -18.5t18.5 -45.5t-18.5 -45.5t-45.5 -18.5h64q27 0 45.5 -18.5t18.5 -45.5v-64v0z" />
    <glyph glyph-name="uniE90D" unicode="design" 
d="M1024 672v256l-992 -992h256v64h32v-64h96v128h32v-128h96v64h32v-64h96v128h32v-128h96v64h32v-64h192v192h-64v32h64v96h-128v32h128v96h-64v32h64v96h-128v32h128v96h-64v32h64v0zM832 128h-352l352 352v-352v0zM608 960l-512 -512l-96 -256l256 96l512 512
q0 72 -44 116t-116 44v0zM224 384l-64 64l448 448l64 -64l-448 -448v0z" />
    <glyph glyph-name="uniE90E" unicode="pencil" 
d="M864 960q66 0 113 -47t47 -113q0 -27 -8.5 -51.5t-23.5 -44.5l-64 -64l-224 224l64 64q20 15 44.5 23.5t51.5 8.5v0zM64 224l-64 -288l288 64l592 592l-224 224l-592 -592v0zM716 596l-448 -448l-56 56l448 448l56 -56v0z" />
    <glyph glyph-name="uniE90F" unicode="pencil&#x32;" 
d="M732 956l-572 -572l-160 -448l448 160l572 572q12 48 -13.5 103.5t-70.5 100.5t-100.5 70.5t-103.5 13.5v0zM288 256l-64 64l544 544l64 -64l-544 -544v0z" />
    <glyph glyph-name="uniE910" unicode="pencil&#x33;" 
d="M762 960q-7 0 -14.5 -1t-15.5 -3l-572 -572l-160 -448l448 160l572 572q12 45 -9.5 96t-61 94.5t-90 72.5t-97.5 29v0zM418 190l-164 164l480 480l164 -164l-480 -480v0z" />
    <glyph glyph-name="uniE911" unicode="pencil&#x34;" 
d="M732 956l-572 -572h96v-64h64v-64h64v-64h64v-96l572 572q12 48 -13.5 103.5t-70.5 100.5t-100.5 70.5t-103.5 13.5v0zM384 128h-64v64h-64v64h-64v64h-55l-137 -384l384 137v55z" />
    <glyph glyph-name="uniE912" unicode="pencil&#x35;" 
d="M768 416v-352h-640v640h352l128 128h-512q-40 0 -68 -28t-28 -68v-704q0 -40 28 -68t68 -28h704q40 0 68 28t28 68v512l-128 -128v0zM864 960l-608 -608v-160h160l608 608q0 72 -44 116t-116 44v0z" />
    <glyph glyph-name="uniE913" unicode="pencil&#x36;" 
d="M384 320l128 64l448 448l-64 64l-448 -448l-64 -128v0zM289 93q-23 50 -52.5 79.5t-79.5 52.5l99 273l128 78l384 384h-192l-384 -384l-192 -640l640 192l384 384v192l-384 -384l-78 -128z" />
    <glyph glyph-name="uniE914" unicode="pencil&#x37;" 
d="M768 416v-352h-640v640h352l128 128h-512q-40 0 -68 -28t-28 -68v-704q0 -40 28 -68t68 -28h704q40 0 68 28t28 68v512l-128 -128v0zM864 960l-608 -608v-160h160l608 608q0 72 -44 116t-116 44v0zM416 320l-48 48l480 480l48 -48l-480 -480v0z" />
    <glyph glyph-name="uniE915" unicode="eraser" 
d="M960 681q-3 42 -27 68.5t-48 37.5l-1.5 1t-3.5 1l-201 81q-9 4 -20 6t-22 2q-28 0 -53.5 -11t-41.5 -30l-67.5 -75.5t-148 -166t-148 -166.5t-67.5 -77h-1v0q-21 -24 -33.5 -52t-12.5 -76v-64q0 -36 23 -70t57 -47l189 -76q22 -9 57 -16.5t80 31.5l6 6t6 7l5 5v0v0v0
l422 475q22 24 36.5 62.5t14.5 70.5v64v5v4v0zM162 315l427 480q8 8 21 13.5t27 5.5q5 0 10 -1t9 -2l201 -81q4 -2 6.5 -4t3.5 -4q0 -3 -1 -6t-4 -7l-427 -480q-8 -8 -21 -13.5t-27 -5.5q-5 0 -10 1t-9 2l-201 81q-4 2 -6.5 4t-3.5 4q0 3 1 6t4 7v0zM128 160v64
q0 9 2.5 10.5t4.5 1.5h3t6 -1l201 -81q15 -6 27 -23.5t12 -34.5v-64q0 -9 -2.5 -10.5t-4.5 -1.5h-3t-6 1l-201 81q-15 6 -27 23.5t-12 34.5v0zM896 608q0 -20 -10.5 -47.5t-23.5 -43.5l-414 -465v44q0 20 10.5 47.5t23.5 43.5l414 465v-44v0z" />
    <glyph glyph-name="uniE916" unicode="eraser&#x32;" 
d="M960 677v2.5v1.5q-3 42 -27 68.5t-48 37.5l-1.5 1t-3.5 1l-201 81q-9 4 -20 6t-22 2q-28 0 -53.5 -11t-41.5 -30l-427 -480q-1 -1 -2 -2.5t-2 -2.5h-1v0q-21 -24 -33.5 -52t-12.5 -76v-64q0 -36 23 -70t57 -47l189 -76q22 -9 57 -16.5t80 31.5l6 6t6 7l5 5v0v0l422 475
q22 24 36.5 62.5t14.5 70.5v64v2.5v2.5v0zM589 795q8 8 21 13.5t27 5.5q5 0 10 -1t9 -2l201 -81q4 -2 6.5 -4t3.5 -4q0 -3 -1 -6t-4 -7l-251 -281l-257 102l235 265v0zM896 608q0 -20 -10.5 -47.5t-23.5 -43.5l-222 -249v96l256 288v-44v0z" />
    <glyph glyph-name="uniE917" unicode="eraser&#x33;" 
d="M960 681q-3 42 -27 68.5t-48 37.5l-1.5 1t-3.5 1l-201 81q-9 4 -20 6t-22 2q-28 0 -53.5 -11t-41.5 -30l-67.5 -75.5t-148 -166t-148 -166.5t-67.5 -77h-1v0q-21 -24 -33.5 -52t-12.5 -76v-64q0 -36 23 -70t57 -47l189 -76q22 -9 57 -16.5t80 31.5l6 6t6 7l5 5v0v0v0
l422 475q22 24 36.5 62.5t14.5 70.5v64v5v4v0zM162 315l427 480q8 8 21 13.5t27 5.5q5 0 10 -1t9 -2l201 -81q4 -2 6.5 -4t3.5 -4q0 -3 -1 -6t-4 -7l-427 -480q-8 -8 -21 -13.5t-27 -5.5q-5 0 -10 1t-9 2l-201 81q-4 2 -6.5 4t-3.5 4q0 3 1 6t4 7v0z" />
    <glyph glyph-name="uniE918" unicode="feather" 
d="M0 -64q48 144 135 322t214.5 334t296 262t378.5 106q-99 -79 -174 -199t-140.5 -232t-127.5 -192.5t-134 -80.5h-168h-24l-192 -320h-64v0z" />
    <glyph glyph-name="uniE919" unicode="feather&#x32;" 
d="M0 -64h64l192 320h24h168q72 0 134 80.5t127.5 192.5t140.5 232t174 199q-210 0 -378.5 -106t-296 -262t-214.5 -334t-135 -322v0zM392 384h-72l32 52t90.5 124t141 148t184.5 124l-40 -37t-98 -99.5t-123 -143.5t-115 -168v0z" />
    <glyph glyph-name="uniE91A" unicode="feather&#x33;" 
d="M1018 946q-4 7 -11 10.5t-15 3.5q-52 0 -103 -4t-99.5 -12.5t-96 -21t-92.5 -28.5q-45 -17 -87.5 -37.5t-82 -45t-76 -52.5t-69.5 -60q-70 -67 -123.5 -149.5t-89.5 -179t-54.5 -205.5t-18.5 -229h96q0 22 8.5 65t25 85.5t40.5 74t54 31.5q37 0 104.5 6.5t141.5 31.5
q79 26 137 68.5t92 101.5q4 6 5 13t-2 14t-8 12t-12 7q-1 1 -15.5 5t-42.5 7q39 17 78.5 38t75 46t65 53.5t48.5 60.5q4 6 4.5 13.5t-1.5 14.5q-3 7 -9 12t-13 7q-2 0 -22 4.5t-53 7.5q90 46 146.5 96.5t78.5 104.5q3 8 2 15.5t-6 14.5v0zM763 769q-64 -32 -114 -49l-50 -17
q-13 -4 -19 -15.5t-3 -23.5q4 -13 15 -19.5t24 -3.5q26 7 55 10t60 3q22 0 41 -1.5t34 -3.5q-33 -35 -87 -69t-127 -66t-128.5 -49.5l-55.5 -17.5q-13 -4 -19.5 -15t-3.5 -23q3 -13 14 -20t23 -4q34 6 67 9.5t64 3.5q19 0 35 -1t29 -3q-42 -47 -99 -75t-114 -42t-106 -17.5
t-74 -3.5q-57 0 -93 -40.5t-57 -87.5q11 80 32.5 153t54 139t75 124.5t94.5 108.5q31 29 65 55t70.5 49t76 42t82.5 34q72 27 150 42.5t161 19.5q-26 -33 -69.5 -64.5t-102.5 -61.5v0z" />
    <glyph glyph-name="uniE91B" unicode="feather&#x34;" 
d="M0 -64q0 55 4.5 111t13.5 110t22.5 106t31.5 99q17 46 38 89t46 83t53.5 76.5t60.5 70.5q32 33 67 63t72.5 55.5t77.5 47.5t83 40t88.5 32t92.5 23t95 13.5t98 4.5q4 0 7.5 -2t5.5 -5q3 -4 3 -8t-1 -8q-13 -27 -35 -53.5t-54 -52t-73 -49.5t-91 -47q-15 -6 -29 -12
l-28 -12q10 0 19.5 0.5t18.5 0.5q57 0 93.5 -4t37.5 -4q4 -1 7.5 -3.5t5.5 -5.5q1 -4 1 -8t-2 -8q-19 -28 -47.5 -55.5t-68 -53.5t-89 -51t-109.5 -48q-10 -4 -20 -7.5t-19 -6.5h14h14q56 0 88.5 -4.5t33.5 -4.5q4 -1 7.5 -4t4.5 -7t0.5 -8t-3.5 -7q-54 -67 -102.5 -111.5
t-99.5 -70.5t-109 -37t-133 -11q-34 0 -60.5 -29.5t-44.5 -87.5q-14 -46 -18.5 -92.5l-4.5 -46.5h-64z" />
    <glyph glyph-name="uniE91C" unicode="pen" 
d="M928 576l-288 288l96 96l288 -288l-96 -96v0zM624 784l224 -224l-144 -368l-576 -256l-41 41l344 345q4 -1 8.5 -1.5t8.5 -0.5q27 0 45.5 18.5t18.5 45.5t-18.5 45.5t-45.5 18.5t-45.5 -18.5t-18.5 -45.5q0 -4 0.5 -8.5t1.5 -8.5l-345 -344l-41 41l256 576l368 144v0z
" />
    <glyph glyph-name="uniE91D" unicode="pen&#x2d;plus" horiz-adv-x="1216" 
d="M1120 576l-288 288l96 96l288 -288l-96 -96v0zM816 784l224 -224l-144 -368l-576 -256l-41 41l344 345q4 -1 8.5 -1.5t8.5 -0.5q27 0 45.5 18.5t18.5 45.5t-18.5 45.5t-45.5 18.5t-45.5 -18.5t-18.5 -45.5q0 -4 0.5 -8.5t1.5 -8.5l-345 -344l-41 41l256 576l368 144v0z
M384 832h-128v128h-128v-128h-128v-128h128v-128h128v128h128v128z" />
    <glyph glyph-name="uniE91E" unicode="pen&#x2d;remove" horiz-adv-x="1216" 
d="M1120 576l-288 288l96 96l288 -288l-96 -96v0zM816 784l224 -224l-144 -368l-576 -256l-41 41l344 345q4 -1 8.5 -1.5t8.5 -0.5q27 0 45.5 18.5t18.5 45.5t-18.5 45.5t-45.5 18.5t-45.5 -18.5t-18.5 -45.5q0 -4 0.5 -8.5t1.5 -8.5l-345 -344l-41 41l256 576l368 144v0z
M0 832h384v-128h-384v128v0z" />
    <glyph glyph-name="uniE91F" unicode="pen&#x32;" 
d="M1018 668l-286 286q-7 7 -15 5.5t-12 -9.5l-39 -80l268 -268l80 39q8 4 9.5 12t-5.5 15v0zM615 825l-263 -22q-13 -2 -23 -7t-14 -22v0v0q-27 -129 -79.5 -251t-105 -217t-91.5 -152.5l-39 -57.5l57 -57l272 272q-4 9 -6.5 19.5t-2.5 21.5q0 40 28 68t68 28t68 -28
t28 -68t-28 -68t-68 -28q-11 0 -21.5 2.5t-19.5 6.5l-272 -272l57 -57l57.5 39t152.5 91.5t217 105t251 79.5v0v0q17 4 22 14t7 23l22 263l-274 274v0z" />
    <glyph glyph-name="uniE920" unicode="pen&#x33;" 
d="M768 832h-448l-32 128h512zM768 768h-448l-128 -288l256 -544h64v517q-28 10 -46 35t-18 56q0 40 28 68t68 28t68 -28t28 -68q0 -31 -18 -56t-46 -35v-517h64l256 544l-128 288v0z" />
    <glyph glyph-name="uniE921" unicode="pen&#x34;" 
d="M652 804l52 156h-448l52 -156l-148 -356l256 -512h128l256 512l-148 356v0zM615 896l-21 -64h-228l-21 64h270v0zM512 15v374q28 10 46 35t18 56q0 40 -28 68t-68 28t-68 -28t-28 -68q0 -31 18 -56t46 -35v-374l-218 435l133 318h234l133 -318l-218 -435v0z" />
    <glyph glyph-name="uniE922" unicode="pen&#x35;" 
d="M532 716q-32 -31 -82 -80.5t-61 -60.5q-44 -45 -111 -123t-129.5 -168.5t-106.5 -182.5t-42 -165q73 -2 165 42t182.5 106.5t168.5 129.5t123 111q11 11 60.5 61t80.5 82l-248 248v0zM945 756l-18 18l97 80l-106 106l-80 -97l-18 18q-42 2 -105 -33.5t-130 -88.5
l238 -238q20 25 38 50t32 49q23 -18 24 -53.5t-25 -85t-83 -111t-151 -132.5l46 -46q84 60 150 125t101 130t32.5 128.5t-54.5 120.5q6 17 9 32t3 28v0z" />
    <glyph glyph-name="uniE923" unicode="marker" 
d="M1006 749q-16 40 -46 78t-68 68q-40 32 -81 48.5t-79 16.5q-29 0 -54 -10t-45 -30l-459 -459l-6 -8t-4 -9l-161 -425q-5 -12 -2 -25t12 -22l23 -23q6 -6 14.5 -9.5t17.5 -3.5q3 0 7 0.5t8 2.5l425 161q5 1 9 4l8 6l459 459q33 33 39 79.5t-17 100.5v0zM480 192l-224 224
l384 384l224 -224l-384 -384v0z" />
    <glyph glyph-name="uniE924" unicode="marker&#x32;" 
d="M1006 749q-16 40 -46 78t-68 68q-40 32 -81 48.5t-79 16.5q-29 0 -54 -10t-45 -30l-459 -459l-6 -8t-4 -9l-161 -425q-5 -12 -2 -25t12 -22l23 -23q6 -6 14.5 -9.5t17.5 -3.5q3 0 7 0.5t8 2.5l425 161q5 1 9 4l8 6l459 459q33 33 39 79.5t-17 100.5v0zM480 192l-224 224
l384 384l224 -224l-384 -384v0zM552 8h472v16h-456zM520 -24h504v16h-488zM488 -56h536v16h-520zM616 72h408v16h-392zM584 40h440v16h-424zM648 104h376v16h-360z" />
    <glyph glyph-name="uniE925" unicode="blog" 
d="M384 960v-96q55 0 108 -10.5t104 -32.5q48 -20 91.5 -49.5t81.5 -66.5q37 -38 66.5 -81.5t49.5 -91.5q22 -51 32.5 -104t10.5 -108h96q0 133 -50.5 249.5t-137 203t-203 137t-249.5 50.5v0zM384 768v-96q71 0 135 -26.5t114 -76.5t76.5 -114t26.5 -135h96q0 93 -35 174.5
t-96 142.5t-142.5 96t-174.5 35v0zM480 576l-64 -64l-224 -64l-192 -416l25 -25l233 232q-1 4 -1.5 8.5t-0.5 8.5q0 27 18.5 45.5t45.5 18.5t45.5 -18.5t18.5 -45.5t-18.5 -45.5t-45.5 -18.5q-4 0 -8.5 0.5t-8.5 1.5l-232 -233l25 -25l416 192l64 224l64 64l-160 160v0z" />
    <glyph glyph-name="uniE926" unicode="blog&#x32;" 
d="M384 768v-96q71 0 135 -26.5t114 -76.5t76.5 -114t26.5 -135h96q0 93 -35 174.5t-96 142.5t-142.5 96t-174.5 35v0zM384 960v-96q55 0 108 -10.5t104 -32.5q48 -20 91.5 -49.5t81.5 -66.5q37 -38 66.5 -81.5t49.5 -91.5q22 -51 32.5 -104t10.5 -108h96q0 133 -50.5 249.5
t-137 203t-203 137t-249.5 50.5v0zM539 475q-38 37 -91 37t-91 -37l-357 -358v-181h181l358 357q37 38 37 91t-37 91v0zM128 32l-64 64l320 320l64 -64l-320 -320v0z" />
    <glyph glyph-name="uniE927" unicode="pen&#x37;" 
d="M1024 800q0 66 -47 113t-113 47q-39 0 -72.5 -17.5t-55.5 -46.5l-576 -576l224 -224l576 576q29 22 46.5 55.5t17.5 72.5v0zM0 -64l96 320l224 -224z" />
    <glyph glyph-name="uniE928" unicode="brush" 
d="M221 -63v0v0q-89 0 -147.5 34t-61.5 36q-8 6 -11 16t1 20q3 9 11.5 15t18.5 6q72 0 98.5 33.5t47.5 82.5q20 47 54.5 93.5t119.5 46.5q32 0 61 -12t52 -35t35 -52t12 -61t-12 -61t-35 -52q-55 -55 -116.5 -82.5t-127.5 -27.5v0zM1002 944q-20 18 -46.5 16t-43.5 -22
l-484 -548q-2 -2 -4.5 -5t-4.5 -5q-3 -5 -5.5 -10t-4.5 -10q25 -7 48 -20.5t42 -32.5t32.5 -42t20.5 -49q15 6 27.5 16t21.5 24l412 604q13 19 10.5 43.5t-21.5 40.5v0z" />
    <glyph glyph-name="uniE929" unicode="paint&#x32;" 
d="M512 736q0 -13 -9.5 -22.5t-22.5 -9.5t-22.5 9.5t-9.5 22.5t9.5 22.5t22.5 9.5t22.5 -9.5t9.5 -22.5v0zM384 736q0 -13 -9.5 -22.5t-22.5 -9.5t-22.5 9.5t-9.5 22.5t9.5 22.5t22.5 9.5t22.5 -9.5t9.5 -22.5v0zM384 864q0 -13 -9.5 -22.5t-22.5 -9.5t-22.5 9.5t-9.5 22.5
t9.5 22.5t22.5 9.5t22.5 -9.5t9.5 -22.5v0zM256 736q0 -13 -9.5 -22.5t-22.5 -9.5t-22.5 9.5t-9.5 22.5t9.5 22.5t22.5 9.5t22.5 -9.5t9.5 -22.5v0zM128 736q0 -13 -9.5 -22.5t-22.5 -9.5t-22.5 9.5t-9.5 22.5t9.5 22.5t22.5 9.5t22.5 -9.5t9.5 -22.5v0zM64 672
q0 -13 -9.5 -22.5t-22.5 -9.5t-22.5 9.5t-9.5 22.5t9.5 22.5t22.5 9.5t22.5 -9.5t9.5 -22.5v0zM192 800q0 -13 -9.5 -22.5t-22.5 -9.5t-22.5 9.5t-9.5 22.5t9.5 22.5t22.5 9.5t22.5 -9.5t9.5 -22.5v0zM128 864q0 -13 -9.5 -22.5t-22.5 -9.5t-22.5 9.5t-9.5 22.5t9.5 22.5
t22.5 9.5t22.5 -9.5t9.5 -22.5v0zM64 800q0 -13 -9.5 -22.5t-22.5 -9.5t-22.5 9.5t-9.5 22.5t9.5 22.5t22.5 9.5t22.5 -9.5t9.5 -22.5v0zM64 928q0 -13 -9.5 -22.5t-22.5 -9.5t-22.5 9.5t-9.5 22.5t9.5 22.5t22.5 9.5t22.5 -9.5t9.5 -22.5v0zM320 800q0 -13 -9.5 -22.5
t-22.5 -9.5t-22.5 9.5t-9.5 22.5t9.5 22.5t22.5 9.5t22.5 -9.5t9.5 -22.5v0zM256 864q0 -13 -9.5 -22.5t-22.5 -9.5t-22.5 9.5t-9.5 22.5t9.5 22.5t22.5 9.5t22.5 -9.5t9.5 -22.5v0zM192 928q0 -13 -9.5 -22.5t-22.5 -9.5t-22.5 9.5t-9.5 22.5t9.5 22.5t22.5 9.5t22.5 -9.5
t9.5 -22.5v0zM320 672q0 -13 -9.5 -22.5t-22.5 -9.5t-22.5 9.5t-9.5 22.5t9.5 22.5t22.5 9.5t22.5 -9.5t9.5 -22.5v0zM192 672q0 -13 -9.5 -22.5t-22.5 -9.5t-22.5 9.5t-9.5 22.5t9.5 22.5t22.5 9.5t22.5 -9.5t9.5 -22.5v0zM128 608q0 -13 -9.5 -22.5t-22.5 -9.5t-22.5 9.5
t-9.5 22.5t9.5 22.5t22.5 9.5t22.5 -9.5t9.5 -22.5v0zM448 800q0 -13 -9.5 -22.5t-22.5 -9.5t-22.5 9.5t-9.5 22.5t9.5 22.5t22.5 9.5t22.5 -9.5t9.5 -22.5v0zM925 684q-20 5 -43.5 9t-49.5 6v101q0 13 -28 22.5t-68 9.5t-68 -9.5t-28 -22.5v-32h32q13 0 22.5 -9.5
t9.5 -22.5t-9.5 -23.5t-22.5 -10.5v0q-35 -2 -66.5 -6.5t-58.5 -11.5q-18 -4 -58.5 -20.5t-40.5 -55.5v-576q0 -39 40.5 -55.5t58.5 -20.5q38 -10 87 -15t102 -5t102 5t87 15q18 4 58.5 20.5t40.5 55.5v576q0 39 -40.5 55.5t-58.5 20.5v0zM960 290q-11 4 -20 6.5t-15 3.5
q-33 8 -73 13t-84 6v-223q0 -13 -9.5 -22.5t-22.5 -9.5t-22.5 9.5t-9.5 22.5v223q-44 -1 -84 -6t-73 -13q-6 -1 -15 -3.5t-20 -6.5v252q11 -4 20 -6.5t15 -3.5q33 -8 73 -13t84 -6v-193h16h16h16h16v192q44 2 84 7t73 13q6 1 15 3.5t20 6.5v-252v0z" />
    <glyph glyph-name="uniE92A" unicode="color" 
d="M515 832q-123 0 -219 -36.5t-162 -92.5t-100 -123t-34 -127q0 -91 37 -162.5t95 -124.5t129 -87.5t140 -51.5q136 -33 192.5 14.5t54.5 118.5q-3 87 30.5 101.5t64.5 11.5q15 -2 61 -8.5t95 0t87 35t38 97.5q0 86 -33 164.5t-98 138.5t-160 96t-218 36v0zM448 768
q27 0 45.5 -18.5t18.5 -45.5t-18.5 -45.5t-45.5 -18.5t-45.5 18.5t-18.5 45.5t18.5 45.5t45.5 18.5v0zM160 384q-13 0 -22.5 9.5t-9.5 22.5t9.5 22.5t22.5 9.5t22.5 -9.5t9.5 -22.5t-9.5 -22.5t-22.5 -9.5v0zM256 512q-27 0 -45.5 18.5t-18.5 45.5t18.5 45.5t45.5 18.5
t45.5 -18.5t18.5 -45.5t-18.5 -45.5t-45.5 -18.5v0zM512 256q-53 0 -90.5 28t-37.5 68t37.5 68t90.5 28t90.5 -28t37.5 -68t-37.5 -68t-90.5 -28v0zM736 512q-40 0 -68 28t-28 68t28 68t68 28t68 -28t28 -68t-28 -68t-68 -28v0z" />
    <glyph glyph-name="uniE92B" unicode="color&#x32;" 
d="M512 832q-106 0 -199.5 -35t-163 -96t-109.5 -142.5t-40 -174.5q0 -62 18.5 -119.5t52 -107.5t81 -91t104.5 -70q65 -32 106 -12.5t2 74.5q-20 20 -32 46.5t-12 55.5q0 66 56 113t136 47t136 -47t56 -113q0 -29 -12 -55.5t-32 -46.5q-39 -55 2 -74.5t106 12.5
q57 29 104.5 70t81 91t52 107.5t18.5 119.5q0 93 -40 174.5t-109.5 142.5t-163 96t-199.5 35v0zM128 320q-27 0 -45.5 18.5t-18.5 45.5t18.5 45.5t45.5 18.5t45.5 -18.5t18.5 -45.5t-18.5 -45.5t-45.5 -18.5v0zM256 521q-34 -20 -68 -18t-47 25t2 53.5t49 49.5q34 20 68 18
t47 -25t-2 -53.5t-49 -49.5v0zM512 576q-53 0 -90.5 28t-37.5 68t37.5 68t90.5 28t90.5 -28t37.5 -68t-37.5 -68t-90.5 -28v0zM768 521q-34 19 -49 49.5t-2 53.5t47 25t68 -18q34 -19 49 -49.5t2 -53.5t-47 -25t-68 18v0zM896 320q-27 0 -45.5 18.5t-18.5 45.5t18.5 45.5
t45.5 18.5t45.5 -18.5t18.5 -45.5t-18.5 -45.5t-45.5 -18.5v0z" />
    <glyph glyph-name="uniE92C" unicode="colors" 
d="M736 256h-704q-13 0 -22.5 -9.5t-9.5 -22.5v-192q0 -13 9.5 -22.5t22.5 -9.5h704q13 0 22.5 9.5t9.5 22.5v192q0 13 -9.5 22.5t-22.5 9.5v0zM640 64q-27 0 -45.5 18.5t-18.5 45.5t18.5 45.5t45.5 18.5t45.5 -18.5t18.5 -45.5t-18.5 -45.5t-45.5 -18.5v0zM768 283v453
q0 13 -9.5 22.5t-22.5 9.5h-192q-13 0 -22.5 -9.5t-9.5 -22.5v-197l256 -256v0zM1005 663l-173 83v-515l188 389q5 12 1 24.5t-16 18.5v0zM629 320l-328 328q-10 10 -23 10t-23 -10l-135 -135q-10 -10 -10 -23t10 -23l147 -147h362v0z" />
    <glyph glyph-name="uniE92D" unicode="switch" 
d="M896 576v224q0 13 -9.5 22.5t-22.5 9.5h-224v128l-160 -160l160 -160v128h192v-192h-128l160 -160l160 160h-128v0zM720 448h-208v208q0 20 -14 34t-34 14h-416q-20 0 -34 -14t-14 -34v-416q0 -20 14 -34t34 -14h208v-208q0 -20 14 -34t34 -14h416q20 0 34 14t14 34v416
q0 20 -14 34t-34 14v0zM704 0h-384v192h144q20 0 34 14t14 34v144h192v-384v0z" />
    <glyph glyph-name="uniE92E" unicode="bucket" 
d="M849 598q-15 7 -35.5 12.5t-46.5 10.5q-52 9 -117.5 14t-137.5 5t-137.5 -5t-117.5 -14q-26 -5 -46.5 -10.5t-35.5 -12.5q-23 -10 -35 -23.5t-12 -30.5v-4.5t1 -4.5l63 -505q2 -34 38.5 -50.5t70.5 -23.5q43 -10 97.5 -15t113.5 -5t113.5 5t97.5 15q34 7 70.5 23.5
t38.5 50.5l63 505q1 2 1 4.5v4.5q0 17 -12 30.5t-35 23.5v0zM290 561q47 7 104 11t118 4t118 -4t104 -11q28 -4 47 -8.5t31 -8.5q-12 -4 -31 -8.5t-47 -8.5q-47 -7 -104 -11t-118 -4t-118 4t-104 11q-28 4 -47 8.5t-31 8.5q12 4 31 8.5t47 8.5v0zM769 39q-5 -3 -22 -10
t-57 -15q-37 -7 -83 -10.5t-95 -3.5t-95 3.5t-83 10.5q-40 8 -57 15t-22 10l-55 442q12 -4 26.5 -7.5t30.5 -6.5q15 -2 30.5 -4.5t32.5 -4.5v-138q0 -27 18.5 -45.5t45.5 -18.5t45.5 18.5t18.5 45.5v129q16 0 32 -0.5t32 -0.5v-288q0 -13 9.5 -22.5t22.5 -9.5t22.5 9.5
t9.5 22.5v289q16 1 32 1.5t32 1.5v-100q0 -13 9.5 -22.5t22.5 -9.5t22.5 9.5t9.5 22.5v106q17 2 32.5 4.5t30.5 4.5q16 3 30.5 6.5t26.5 7.5l-55 -442v0zM877 829q-27 32 -62 56t-78 40q-46 18 -102.5 26.5t-122.5 8.5t-122.5 -8.5t-102.5 -26.5q-43 -16 -78 -40t-62 -56
q-42 -51 -62.5 -120.5t-20.5 -164.5q0 -13 9.5 -22.5t22.5 -9.5t22.5 9.5t9.5 22.5q0 83 16.5 142.5t52.5 101.5q21 26 49 45t64 32q40 16 91 23.5t111 7.5t111 -7.5t91 -23.5q36 -13 64 -32t49 -45q36 -42 52.5 -101.5t16.5 -142.5q0 -13 9.5 -22.5t22.5 -9.5t22.5 9.5
t9.5 22.5q0 95 -20.5 164.5t-62.5 120.5v0z" />
    <glyph glyph-name="uniE92F" unicode="bucket&#x32;" 
d="M877 829q-27 32 -62 56t-78 40q-46 18 -102.5 26.5t-122.5 8.5t-122.5 -8.5t-102.5 -26.5q-43 -16 -78 -40t-62 -56q-42 -51 -62.5 -120.5t-20.5 -164.5q0 -13 9.5 -22.5t22.5 -9.5t22.5 9.5t9.5 22.5q0 83 16.5 142.5t52.5 101.5q21 26 49 45t64 32q40 16 91 23.5
t111 7.5t111 -7.5t91 -23.5q36 -13 64 -32t49 -45q36 -42 52.5 -101.5t16.5 -142.5q0 -13 9.5 -22.5t22.5 -9.5t22.5 9.5t9.5 22.5q0 95 -20.5 164.5t-62.5 120.5v0zM849 598q-15 7 -35.5 12.5t-46.5 10.5q-52 9 -117.5 14t-137.5 5t-137.5 -5t-117.5 -14
q-26 -5 -46.5 -10.5t-35.5 -12.5q-23 -10 -35 -23.5t-12 -30.5v-4.5t1 -4.5l63 -505q2 -34 38.5 -50.5t70.5 -23.5q43 -10 97.5 -15t113.5 -5t113.5 5t97.5 15q34 7 70.5 23.5t38.5 50.5l63 505q1 2 1 4.5v4.5q0 17 -12 30.5t-35 23.5v0zM734 527q-47 -7 -104 -11t-118 -4
t-118 4t-104 11q-28 4 -47 8.5t-31 8.5q12 4 31 8.5t47 8.5q47 7 104 11t118 4t118 -4t104 -11q28 -4 47 -8.5t31 -8.5q-12 -4 -31 -8.5t-47 -8.5v0z" />
    <glyph glyph-name="uniE930" unicode="color&#x35;" 
d="M960 960h-896q-26 0 -45 -19t-19 -45v-896q0 -26 19 -45t45 -19h896q26 0 45 19t19 45v896q0 26 -19 45t-45 19v0zM320 896v-32h-32v32h32v0zM288 160v32h32v-32h-32v0zM320 128v-32h-32v32h32v0zM288 224v32h32v-32h-32v0zM288 288v32h32v-32h-32v0zM288 352v32h32v-32
h-32v0zM288 416v32h32v-32h-32v0zM288 480v32h32v-32h-32v0zM288 544v32h32v-32h-32v0zM288 608v32h32v-32h-32v0zM288 672v32h32v-32h-32v0zM288 736v32h32v-32h-32v0zM288 800v32h32v-32h-32v0zM288 64h32v-32h-32v32v0zM256 896v-32h-32v32h32v0zM224 160v32h32v-32h-32
v0zM256 128v-32h-32v32h32v0zM224 224v32h32v-32h-32v0zM224 288v32h32v-32h-32v0zM224 352v32h32v-32h-32v0zM224 416v32h32v-32h-32v0zM224 480v32h32v-32h-32v0zM224 544v32h32v-32h-32v0zM224 608v32h32v-32h-32v0zM224 672v32h32v-32h-32v0zM224 736v32h32v-32h-32v0z
M224 800v32h32v-32h-32v0zM224 64h32v-32h-32v32v0zM192 896v-32h-32v32h32v0zM160 160v32h32v-32h-32v0zM192 128v-32h-32v32h32v0zM160 224v32h32v-32h-32v0zM160 288v32h32v-32h-32v0zM160 352v32h32v-32h-32v0zM160 416v32h32v-32h-32v0zM160 480v32h32v-32h-32v0z
M160 544v32h32v-32h-32v0zM160 608v32h32v-32h-32v0zM160 672v32h32v-32h-32v0zM160 736v32h32v-32h-32v0zM160 800v32h32v-32h-32v0zM160 64h32v-32h-32v32v0zM960 0h-128v32h-32v-32h-32v32h-32v-32h-32v32h-32v-32h-32v32h-32v-32h-32v32h-32v-32h-32v32h-32v-32h-32v32
h-32v-32h-32v32h-32v32h32v32h-32v32h32v32h-32v32h32v32h-32v32h32v32h-32v32h32v32h-32v32h32v32h-32v32h32v32h-32v32h32v32h-32v32h32v32h-32v32h32v32h-32v32h32v32h-32v32h32v32h-32v32h32v32h-32v32h32v-32h32v32h32v-32h32v32h32v-32h32v32h32v-32h32v32h352v-896v0
zM480 864h32v-32h-32v32v0zM544 864h32v-32h-32v32v0zM608 864h32v-32h-32v32v0zM672 864h32v-32h-32v32v0zM512 832h32v-32h-32v32v0zM480 800h32v-32h-32v32v0zM576 832h32v-32h-32v32v0zM544 800h32v-32h-32v32v0zM416 864h32v-32h-32v32v0zM384 832h32v-32h-32v32v0z
M448 832h32v-32h-32v32v0zM416 800h32v-32h-32v32v0zM608 800h32v-32h-32v32v0zM672 800h32v-32h-32v32v0zM736 864h32v-32h-32v32v0zM800 864h32v-32h-32v32v0zM736 800h32v-32h-32v32v0zM800 800h32v-32h-32v32v0zM512 768h32v-32h-32v32v0zM480 736h32v-32h-32v32v0z
M576 768h32v-32h-32v32v0zM544 736h32v-32h-32v32v0zM608 736h32v-32h-32v32v0zM672 736h32v-32h-32v32v0zM512 704h32v-32h-32v32v0zM480 672h32v-32h-32v32v0zM576 704h32v-32h-32v32v0zM544 672h32v-32h-32v32v0zM384 768h32v-32h-32v32v0zM448 768h32v-32h-32v32v0z
M416 736h32v-32h-32v32v0zM384 704h32v-32h-32v32v0zM448 704h32v-32h-32v32v0zM416 672h32v-32h-32v32v0zM608 672h32v-32h-32v32v0zM672 672h32v-32h-32v32v0zM736 736h32v-32h-32v32v0zM800 736h32v-32h-32v32v0zM736 672h32v-32h-32v32v0zM800 672h32v-32h-32v32v0z
M512 640h32v-32h-32v32v0zM480 608h32v-32h-32v32v0zM576 640h32v-32h-32v32v0zM544 608h32v-32h-32v32v0zM608 608h32v-32h-32v32v0zM672 608h32v-32h-32v32v0zM512 576h32v-32h-32v32v0zM480 544h32v-32h-32v32v0zM576 576h32v-32h-32v32v0zM544 544h32v-32h-32v32v0z
M384 640h32v-32h-32v32v0zM448 640h32v-32h-32v32v0zM416 608h32v-32h-32v32v0zM384 576h32v-32h-32v32v0zM448 576h32v-32h-32v32v0zM416 544h32v-32h-32v32v0zM608 544h32v-32h-32v32v0zM672 544h32v-32h-32v32v0zM736 608h32v-32h-32v32v0zM800 608h32v-32h-32v32v0z
M736 544h32v-32h-32v32v0zM800 544h32v-32h-32v32v0zM512 512h32v-32h-32v32v0zM480 480h32v-32h-32v32v0zM576 512h32v-32h-32v32v0zM544 480h32v-32h-32v32v0zM608 480h32v-32h-32v32v0zM672 480h32v-32h-32v32v0zM512 448h32v-32h-32v32v0zM480 416h32v-32h-32v32v0z
M576 448h32v-32h-32v32v0zM544 416h32v-32h-32v32v0zM384 512h32v-32h-32v32v0zM448 512h32v-32h-32v32v0zM416 480h32v-32h-32v32v0zM384 448h32v-32h-32v32v0zM448 448h32v-32h-32v32v0zM416 416h32v-32h-32v32v0zM608 416h32v-32h-32v32v0zM672 416h32v-32h-32v32v0z
M736 480h32v-32h-32v32v0zM800 480h32v-32h-32v32v0zM736 416h32v-32h-32v32v0zM800 416h32v-32h-32v32v0zM512 384h32v-32h-32v32v0zM480 352h32v-32h-32v32v0zM576 384h32v-32h-32v32v0zM544 352h32v-32h-32v32v0zM608 352h32v-32h-32v32v0zM672 352h32v-32h-32v32v0z
M512 320h32v-32h-32v32v0zM480 288h32v-32h-32v32v0zM576 320h32v-32h-32v32v0zM544 288h32v-32h-32v32v0zM384 384h32v-32h-32v32v0zM448 384h32v-32h-32v32v0zM416 352h32v-32h-32v32v0zM384 320h32v-32h-32v32v0zM448 320h32v-32h-32v32v0zM416 288h32v-32h-32v32v0z
M608 288h32v-32h-32v32v0zM672 288h32v-32h-32v32v0zM736 352h32v-32h-32v32v0zM800 352h32v-32h-32v32v0zM736 288h32v-32h-32v32v0zM800 288h32v-32h-32v32v0zM512 256h32v-32h-32v32v0zM480 224h32v-32h-32v32v0zM576 256h32v-32h-32v32v0zM544 224h32v-32h-32v32v0z
M608 224h32v-32h-32v32v0zM672 224h32v-32h-32v32v0zM512 192h32v-32h-32v32v0zM480 160h32v-32h-32v32v0zM576 192h32v-32h-32v32v0zM544 160h32v-32h-32v32v0zM384 256h32v-32h-32v32v0zM448 256h32v-32h-32v32v0zM416 224h32v-32h-32v32v0zM384 192h32v-32h-32v32v0z
M448 192h32v-32h-32v32v0zM416 160h32v-32h-32v32v0zM608 160h32v-32h-32v32v0zM672 160h32v-32h-32v32v0zM736 224h32v-32h-32v32v0zM800 224h32v-32h-32v32v0zM736 160h32v-32h-32v32v0zM800 160h32v-32h-32v32v0zM512 128h32v-32h-32v32v0zM480 96h32v-32h-32v32v0z
M576 128h32v-32h-32v32v0zM544 96h32v-32h-32v32v0zM608 96h32v-32h-32v32v0zM672 96h32v-32h-32v32v0zM512 64h32v-32h-32v32v0zM576 64h32v-32h-32v32v0zM384 128h32v-32h-32v32v0zM448 128h32v-32h-32v32v0zM416 96h32v-32h-32v32v0zM384 64h32v-32h-32v32v0zM448 64h32
v-32h-32v32v0zM736 96h32v-32h-32v32v0zM800 96h32v-32h-32v32v0z" />
    <glyph glyph-name="uniE931" unicode="color&#x36;" 
d="M987 923q-38 37 -91 37t-91 -37l-172 -173l-121 122l-136 -136l107 -106l-472 -473q-6 -6 -9 -13.5t-2 -15.5v0v-160q0 -13 9.5 -22.5t22.5 -9.5h160h1.5h2.5q7 0 13.5 2.5t11.5 8.5l473 472l106 -107l136 136l-122 121l173 172q37 38 37 91t-37 91v0zM173 0h-109v109
l470 470l109 -109l-470 -470v0z" />
    <glyph glyph-name="uniE932" unicode="color&#x37;" 
d="M987 923q-38 37 -91 37t-91 -37l-172 -173l-121 122l-136 -136l107 -106l-472 -473q-6 -6 -9 -13.5t-2 -15.5v0v-160q0 -13 9.5 -22.5t22.5 -9.5h160h1.5h2.5q7 0 13.5 2.5t11.5 8.5l473 472l106 -107l136 136l-122 121l173 172q37 38 37 91t-37 91v0zM493 320h-218
l259 259l109 -109l-150 -150v0z" />
    <glyph glyph-name="uniE933" unicode="color&#x38;" 
d="M768 640h-112q-48 0 -32 48t16 144q0 11 -1.5 20t-3.5 15q-11 40 -45 66.5t-78 26.5t-78 -26.5t-45 -66.5q-2 -6 -3.5 -15t-1.5 -20q0 -96 16 -144t-32 -48h-112v-128h128v-496q0 -7 4.5 -11.5t11.5 -4.5h32q7 0 11.5 -4.5t4.5 -11.5v-32q0 -7 4.5 -11.5t11.5 -4.5h96
q7 0 11.5 4.5t4.5 11.5v32q0 7 4.5 11.5t11.5 4.5h32q7 0 11.5 4.5t4.5 11.5v496h128v128v0zM576 62q-23 -4 -40.5 -21.5t-21.5 -40.5h-4q-4 23 -21.5 40.5t-40.5 21.5v450h128v-450v0z" />
    <glyph glyph-name="uniE934" unicode="color&#x39;" 
d="M865 487q-25 69 -62.5 134t-83.5 124.5t-99 113.5t-108 101q-55 -47 -108 -101t-99 -113.5t-83.5 -124.5t-62.5 -134q-15 -43 -23 -87t-7 -88t11 -87t32 -84q25 -46 61 -84t80.5 -65t95 -41.5t103.5 -14.5t103.5 14.5t95 41.5t80.5 65t61 84q22 41 32 84t11 87t-7 88
t-23 87v0zM739 201q-33 -62 -95 -99.5t-132 -37.5q-41 0 -80 13.5t-72 37.5q10 -2 20 -2.5t20 -0.5q44 0 86 12t79 34.5t67.5 54t50.5 70.5q34 64 35.5 128t-11.5 117q11 -22 20.5 -43t16.5 -41q17 -48 23 -113t-28 -130v0z" />
    <glyph glyph-name="uniE935" unicode="color&#x31;&#x30;" 
d="M512 831q37 -35 69.5 -71t61.5 -73q45 -58 78 -116.5t53 -116.5q19 -51 25 -123t-32 -145q-18 -35 -45.5 -63.5t-61 -48.5t-71 -31t-77.5 -11t-77.5 11t-71 31t-61 48.5t-45.5 63.5q-38 73 -32 145t25 123q20 58 53 116.5t78 116.5q29 37 61.5 73t69.5 71v0v0zM512 960
q-55 -47 -108 -101t-99 -113.5t-83.5 -124.5t-62.5 -134q-15 -43 -23 -87t-7 -88t11 -87t32 -84q25 -46 61 -84t80.5 -65t95 -41.5t103.5 -14.5t103.5 14.5t95 41.5t80.5 65t61 84q22 41 32 84t11 87t-7 88t-23 87q-25 69 -62.5 134t-83.5 124.5t-99 113.5t-108 101v0v0z
" />
    <glyph glyph-name="uniE936" unicode="droplet&#x33;" 
d="M865 487q-25 69 -62.5 134t-83.5 124.5t-99 113.5t-108 101q-55 -47 -108 -101t-99 -113.5t-83.5 -124.5t-62.5 -134q-15 -43 -23 -87t-7 -88t11 -87t32 -84q25 -46 61 -84t80.5 -65t95 -41.5t103.5 -14.5t103.5 14.5t95 41.5t80.5 65t61 84q22 41 32 84t11 87t-7 88
t-23 87v0zM257 186q-38 73 -32 145t25 123q20 58 53 116.5t78 116.5q29 37 61.5 73t69.5 71v-799q-40 0 -77.5 11t-71 31t-61 48.5t-45.5 63.5v0z" />
    <glyph glyph-name="uniE937" unicode="color&#x2d;clear" 
d="M1005 45l-832 832l-90 -90l149 -149q-22 -37 -40.5 -74.5t-32.5 -76.5q-15 -43 -23 -87t-7 -88t11 -87t32 -84q25 -46 61 -84t80.5 -65t95 -41.5t103.5 -14.5q42 0 82 9t77 26t70 41.5t60 55.5l114 -113l90 90v0zM865 487q-25 69 -62.5 134t-83.5 124.5t-99 113.5
t-108 101q-39 -33 -76.5 -69t-72.5 -76l531 -530q4 51 -4 102t-25 100v0z" />
    <glyph glyph-name="uniE938" unicode="format" 
d="M1024 384v384h-192v64q0 26 -19 45t-45 19h-704q-26 0 -45 -19t-19 -45v-192q0 -26 19 -45t45 -19h704q26 0 45 19t19 45v64h128v-256h-576v-128h-32q-13 0 -22.5 -9.5t-9.5 -22.5v-320q0 -13 9.5 -22.5t22.5 -9.5h128q13 0 22.5 9.5t9.5 22.5v320q0 13 -9.5 22.5
t-22.5 9.5h-32v64h576v0zM768 768h-704v64h704v-64v0z" />
    <glyph glyph-name="uniE939" unicode="pattern" 
d="M992 256h-320q-40 0 -68 28t-28 68v235q56 20 92 69t36 112q0 80 -56 136t-136 56t-136 -56t-56 -136q0 -63 36 -112t92 -69v-235q0 -40 -28 -68t-68 -28h-320q-13 0 -22.5 -9.5t-9.5 -22.5v-128q0 -13 9.5 -22.5t22.5 -9.5h960q13 0 22.5 9.5t9.5 22.5v128
q0 13 -9.5 22.5t-22.5 9.5v0zM64 32v-64q0 -13 9.5 -22.5t22.5 -9.5h832q13 0 22.5 9.5t9.5 22.5v64h-896v0z" />
    <glyph glyph-name="uniE93A" unicode="images" horiz-adv-x="1152" 
d="M1088 832h-64v64q0 26 -19 45t-45 19h-896q-26 0 -45 -19t-19 -45v-768q0 -26 19 -45t45 -19h64v-64q0 -26 19 -45t45 -19h896q26 0 45 19t19 45v768q0 26 -19 45t-45 19v0zM128 768v-640h-64v768h896v-64h-768q-26 0 -45 -19t-19 -45v0zM960 608q0 -40 -28 -68t-68 -28
t-68 28t-28 68t28 68t68 28t68 -28t28 -68v0zM1024 64h-768v128l224 384l256 -320h64l224 192v-384v0z" />
    <glyph glyph-name="uniE93B" unicode="image" 
d="M960 896h-896q-26 0 -45 -19t-19 -45v-768q0 -26 19 -45t45 -19h896q26 0 45 19t19 45v768q0 26 -19 45t-45 19v0zM736 768q40 0 68 -28t28 -68t-28 -68t-68 -28t-68 28t-28 68t28 68t68 28v0zM896 128h-768v128l224 384l256 -320h64l224 192v-384v0z" />
    <glyph glyph-name="uniE93C" unicode="image&#x32;" 
d="M960 832v0v0v-768v0v0h-896v0v0v768v0v0h896v0zM960 896h-896q-26 0 -45 -19t-19 -45v-768q0 -26 19 -45t45 -19h896q26 0 45 19t19 45v768q0 26 -19 45t-45 19v0v0zM832 672q0 -40 -28 -68t-68 -28t-68 28t-28 68t28 68t68 28t68 -28t28 -68v0zM896 128h-768v128
l224 384l256 -320h64l224 192v-384z" />
    <glyph glyph-name="uniE93D" unicode="diff" 
d="M832 608q0 -40 -28 -68t-68 -28t-68 28t-28 68t28 68t68 28t68 -28t28 -68v0zM0 768v-640q0 -26 19 -45t45 -19h384v64h-384v0v0v640v0v0h384v64h-384q-26 0 -45 -19t-19 -45v0zM960 832h-384v128h-64v-1024h64v128h384q26 0 45 19t19 45v640q0 26 -19 45t-45 19v0z
M960 128v0v0h-384v64h320v320l-224 -192h-64l-32 40v408h384v0v0v-640v0zM128 256v-64h320v328l-96 120z" />
    <glyph glyph-name="uniE93E" unicode="images&#x32;" horiz-adv-x="1152" 
d="M1088 832h-64v64q0 26 -19 45t-45 19h-896q-26 0 -45 -19t-19 -45v-768q0 -26 19 -45t45 -19h64v-64q0 -26 19 -45t45 -19h896q26 0 45 19t19 45v768q0 26 -19 45t-45 19v0zM128 768v-640h-64v0v0v768v0v0h896v0v0v-64h-768q-26 0 -45 -19t-19 -45v0v0zM1088 0v0v0h-896
v0v0v768v0v0h896v0v0v-768v0zM960 608q0 -40 -28 -68t-68 -28t-68 28t-28 68t28 68t68 28t68 -28t28 -68v0zM1024 64h-768v128l224 384l256 -320h64l224 192v-384z" />
    <glyph glyph-name="uniE93F" unicode="image&#x33;" 
d="M0 896v-960h1024v960h-1024v0zM896 192h-768v576h768v-576v0zM832 384l-64 128l-128 -128l-192 320l-256 -384v-64h640v128z" />
    <glyph glyph-name="uniE940" unicode="images&#x33;" 
d="M768 896h-768v-768h768v768v0zM704 320h-640v512h640v-512v0zM512 640l-46 -91l-146 219l-192 -384h512zM832 713v-649h-711l-5 -48l764 -80l80 764z" />
    <glyph glyph-name="uniE941" unicode="image&#x34;" 
d="M864 576l-224 -224l-192 192l-320 -320v-96h768v448h-32zM928 832q13 0 22.5 -9.5t9.5 -22.5v-704q0 -13 -9.5 -22.5t-22.5 -9.5h-832q-13 0 -22.5 9.5t-9.5 22.5v704q0 13 9.5 22.5t22.5 9.5h832v0zM928 896h-832q-40 0 -68 -28t-28 -68v-704q0 -40 28 -68t68 -28h832
q40 0 68 28t28 68v704q0 40 -28 68t-68 28v0v0z" />
    <glyph glyph-name="uniE942" unicode="image&#x35;" 
d="M896 768v-640h-768v640h768v0zM928 896h-832q-40 0 -68 -28t-28 -68v-704q0 -40 28 -68t68 -28h832q40 0 68 28t28 68v704q0 40 -28 68t-68 28v0v0zM640 352l-192 192l-256 -256v-96h640v352z" />
    <glyph glyph-name="uniE943" unicode="image&#x36;" 
d="M1021 824h-1018q-1 -4 -1.5 -8t-1.5 -8h1024q-1 4 -1.5 8t-1.5 8v0zM966 888h-908q-7 -3 -13.5 -7t-11.5 -9h958q-5 5 -11.5 9t-13.5 7v0zM1006 856h-988q-3 -4 -5 -8l-4 -8h1006l-4 8t-5 8v0zM58 8h908q7 3 13.5 7t11.5 9h-958q5 -5 11.5 -9t13.5 -7v0zM18 40h988
q3 4 5 8l4 8h-1006l4 -8t5 -8v0zM1024 776v16h-1024v-16h8v-656h-8v-16h1024v16h-8v656h8v0zM88 776h16v-656h-16v656v0zM72 120h-16v656h16v-656v0zM120 776h784v-656h-784v656v0zM920 776h16v-656h-16v656v0zM952 776h16v-656h-16v656v0zM24 776h16v-656h-16v656v0z
M1000 120h-16v656h16v-656v0zM3 72h1018q1 4 1.5 8t1.5 8h-1024q1 -4 1.5 -8t1.5 -8v0zM864 576l-224 -224l-192 192l-320 -320v-96h768v448h-32z" />
    <glyph glyph-name="uniE944" unicode="camera" 
d="M304 352q0 -43 16.5 -81t44.5 -66t66 -44.5t81 -16.5t81 16.5t66 44.5t44.5 66t16.5 81t-16.5 81t-44.5 66t-66 44.5t-81 16.5t-81 -16.5t-66 -44.5t-44.5 -66t-16.5 -81v0zM960 704h-224q-12 48 -30 88t-66 40h-256q-48 0 -66 -40t-30 -88h-224q-26 0 -45 -19t-19 -45
v-576q0 -26 19 -45t45 -19h896q26 0 45 19t19 45v576q0 26 -19 45t-45 19v0zM512 68q-59 0 -110.5 22.5t-90 61t-61 90t-22.5 110.5t22.5 110.5t61 90t90 61t110.5 22.5t110.5 -22.5t90 -61t61 -90t22.5 -110.5t-22.5 -110.5t-61 -90t-90 -61t-110.5 -22.5v0zM960 512h-128
v64h128v-64v0z" />
    <glyph glyph-name="uniE945" unicode="camera&#x32;" 
d="M960 640h-192q-4 0 -10 3.5t-8 7.5l-35 71q-10 19 -31.5 32.5t-43.5 13.5h-256q-22 0 -43.5 -13.5t-31.5 -32.5l-35 -71q-2 -4 -8 -7.5t-10 -3.5v32q0 13 -9.5 22.5t-22.5 9.5h-128q-13 0 -22.5 -9.5t-9.5 -22.5v-32q-26 0 -45 -19t-19 -45v-576q0 -26 19 -45t45 -19h896
q26 0 45 19t19 45v576q0 26 -19 45t-45 19v0zM64 0v576h192q22 0 43.5 13.5t31.5 32.5l35 71q2 4 8 7.5t10 3.5h256q4 0 10 -3.5t8 -7.5l35 -71q10 -19 31.5 -32.5t43.5 -13.5h192v-576h-896v0zM512 584q-55 0 -103 -21t-83.5 -56.5t-56.5 -83.5t-21 -103t21 -103
t56.5 -83.5t83.5 -56.5t103 -21t103 21t83.5 56.5t56.5 83.5t21 103t-21 103t-56.5 83.5t-83.5 56.5t-103 21v0zM512 122q-41 0 -77 15.5t-63 42.5t-42.5 63t-15.5 77t15.5 77t42.5 63t63 42.5t77 15.5t77 -15.5t63 -42.5t42.5 -63t15.5 -77t-15.5 -77t-42.5 -63t-63 -42.5
t-77 -15.5v0zM640 320q0 -53 -37.5 -90.5t-90.5 -37.5t-90.5 37.5t-37.5 90.5t37.5 90.5t90.5 37.5t90.5 -37.5t37.5 -90.5v0zM832 512h64v-64h-64v64v0z" />
    <glyph glyph-name="uniE946" unicode="camera&#x33;" 
d="M832 896h-640q-53 0 -90.5 -37.5t-37.5 -90.5v-640q0 -53 37.5 -90.5t90.5 -37.5h640q53 0 90.5 37.5t37.5 90.5v640q0 53 -37.5 90.5t-90.5 37.5v0zM672 384q0 -66 -47 -113t-113 -47t-113 47t-47 113q0 39 17.5 72.5t46.5 55.5h192q29 -22 46.5 -55.5t17.5 -72.5v0z
M320 768h64v-128h-64v128v0zM192 768h64v-128h-64v128v0zM832 128v0v0h-640v0v0v384h98q-16 -28 -25 -60.5t-9 -67.5q0 -53 20 -99.5t55 -81.5t81.5 -55t99.5 -20t99.5 20t81.5 55t55 81.5t20 99.5q0 35 -9 67.5t-25 60.5h98v-384v0z" />
    <glyph glyph-name="uniE947" unicode="camera&#x34;" 
d="M327 512l256 443q-17 2 -35 3.5t-36 1.5q-52 0 -102 -10t-95.5 -29t-86 -46.5t-75.5 -61.5l174 -301v0zM475 640h512q-22 55 -56 103t-77.5 86.5t-95 67t-109.5 44.5l-174 -301v0zM364 320l-256 443q-25 -33 -45 -69.5t-34 -76t-21.5 -82t-7.5 -87.5q0 -33 4 -65t12 -63
h348v0zM660 576l256 -443q25 33 45 69.5t34 76t21.5 82t7.5 87.5q0 33 -4 65t-12 63h-348v0zM549 256h-512q22 -55 56 -103t77.5 -86.5t95 -67t109.5 -44.5l174 301v0zM697 384l-256 -443q17 -2 35 -3.5t36 -1.5q52 0 102 10t95.5 29t86 46.5t75.5 61.5l-174 301v0z" />
    <glyph glyph-name="uniE948" unicode="headset" 
d="M288 384h-64v-448h64q13 0 22.5 9.5t9.5 22.5v384q0 13 -9.5 22.5t-22.5 9.5v0zM736 384q-13 0 -22.5 -9.5t-9.5 -22.5v-384q0 -13 9.5 -22.5t22.5 -9.5h64v448h-64v0zM1024 448q0 106 -40 199.5t-109.5 163t-163 109.5t-199.5 40t-199.5 -40t-163 -109.5t-109.5 -163
t-40 -199.5q0 -46 8 -90t23 -85q-15 -25 -23 -53.5t-8 -59.5q0 -42 14.5 -80t40.5 -67.5t61 -49t76 -25.5v444q-24 -4 -46 -12t-42 -21q-4 20 -6 41t-2 42q0 86 32.5 162t89 132.5t132.5 89t162 32.5t162 -32.5t132.5 -89t89 -132.5t32.5 -162q0 -21 -2 -42t-6 -41
q-20 13 -42 21t-46 12v-444q41 6 76 25.5t61 49t40.5 67.5t14.5 80q0 31 -8 59.5t-23 53.5q15 41 23 85t8 90v0z" />
    <glyph glyph-name="uniE949" unicode="headset&#x32;" 
d="M829 829q-32 32 -68.5 56t-77 41t-83.5 25.5t-88 8.5t-88 -8.5t-83.5 -25.5t-77 -41t-68.5 -56t-56 -68.5t-41 -77t-25.5 -83.5t-8.5 -88v-224q0 -40 28 -68t68 -28t68 28t28 68v128q0 40 -28 68t-68 28q-8 0 -15.5 -1.5t-15.5 -3.5v5q6 74 38.5 138t84 111.5t118.5 75
t142 27.5t142 -27.5t118.5 -75t84 -111.5t38.5 -138v-5q-8 2 -15.5 3.5t-15.5 1.5q-40 0 -68 -28t-28 -68v-128q0 -40 28 -68t68 -28q8 0 16 1.5t16 3.5v-101q0 -13 -9.5 -22.5t-22.5 -9.5h-165q-10 28 -35 46t-56 18q-40 0 -68 -28t-28 -68t28 -68t68 -28q31 0 56 18t35 46
h165q40 0 68 28t28 68v416q0 45 -8.5 88t-25.5 83.5t-41 77t-56 68.5v0z" />
    <glyph glyph-name="uniE94A" unicode="music" 
d="M812 666q-65 91 -82.5 93.5t-80.5 185.5l-89 15l-99 -733q-84 48 -151 51t-111 -25.5t-62.5 -80.5t-4.5 -114q7 -33 35 -62.5t70 -45.5t93 -13.5t103 32.5q50 30 70 73t27 77l70 544q95 -84 133 -152.5t41.5 -129.5t-15.5 -117t-39 -114q41 16 86 60t69.5 111t15 154
t-78.5 191v0z" />
    <glyph glyph-name="uniE94B" unicode="music&#x32;" 
d="M320 768v-527q-22 7 -46 11t-50 4q-46 0 -87 -12.5t-71.5 -34.5t-48 -51t-17.5 -62t17.5 -62t48 -51t71.5 -34.5t87 -12.5t87 12.5t71.5 34.5t48 51t17.5 62v303l448 122v-152q-22 7 -46 11t-50 4q-46 0 -87 -12.5t-71.5 -34.5t-48 -51t-17.5 -62t17.5 -62t48 -51
t71.5 -34.5t87 -12.5t87 12.5t71.5 34.5t48 51t17.5 62v736l-704 -192v0zM448 499v97l448 122v-97l-448 -122v0z" />
    <glyph glyph-name="uniE94C" unicode="music&#x33;" 
d="M320 768l704 192v-736q0 -33 -17.5 -62t-48 -51t-71.5 -34.5t-87 -12.5t-87 12.5t-71.5 34.5t-48 51t-17.5 62t17.5 62t48 51t71.5 34.5t87 12.5q26 0 50 -4t46 -11v329l-448 -122v-480q0 -33 -17.5 -62t-48 -51t-71.5 -34.5t-87 -12.5t-87 12.5t-71.5 34.5t-48 51
t-17.5 62t17.5 62t48 51t71.5 34.5t87 12.5q26 0 50 -4t46 -11v527v0z" />
    <glyph glyph-name="uniE94D" unicode="music&#x34;" 
d="M960 960l-576 -128v-624q-30 22 -71.5 35t-88.5 13q-46 0 -87 -12.5t-71.5 -34.5t-48 -51t-17.5 -62t17.5 -62t48 -51t71.5 -34.5t87 -12.5t87 12.5t71.5 34.5t48 51t17.5 62v413l512 114v-287q-30 22 -71.5 35t-88.5 13q-46 0 -87 -12.5t-71.5 -34.5t-48 -51t-17.5 -62
t17.5 -62t48 -51t71.5 -34.5t87 -12.5t87 12.5t71.5 34.5t48 51t17.5 62v736h-64v0zM960 705l-512 -114v127l512 114v-127v0z" />
    <glyph glyph-name="uniE94E" unicode="music&#x35;" 
d="M960 960h64v-736q0 -33 -17.5 -62t-48 -51t-71.5 -34.5t-87 -12.5t-87 12.5t-71.5 34.5t-48 51t-17.5 62t17.5 62t48 51t71.5 34.5t87 12.5q47 0 88.5 -13t71.5 -35v368l-512 -114v-494q0 -33 -17.5 -62t-48 -51t-71.5 -34.5t-87 -12.5t-87 12.5t-71.5 34.5t-48 51
t-17.5 62t17.5 62t48 51t71.5 34.5t87 12.5q47 0 88.5 -13t71.5 -35v624l576 128v0z" />
    <glyph glyph-name="uniE94F" unicode="music&#x36;" 
d="M960 960l-576 -128v-624q-30 22 -71.5 35t-88.5 13q-46 0 -87 -12.5t-71.5 -34.5t-48 -51t-17.5 -62t17.5 -62t48 -51t71.5 -34.5t87 -12.5t87 12.5t71.5 34.5t48 51t17.5 62v413l512 114v-287q-30 22 -71.5 35t-88.5 13q-46 0 -87 -12.5t-71.5 -34.5t-48 -51t-17.5 -62
t17.5 -62t48 -51t71.5 -34.5t87 -12.5t87 12.5t71.5 34.5t48 51t17.5 62v736h-64v0zM224 12q-64 0 -106 27t-42 57t42 57t106 27t106 -27t42 -57t-42 -57t-106 -27v0zM800 140q-64 0 -106 27t-42 57t42 57t106 27t106 -27t42 -57t-42 -57t-106 -27v0zM960 705l-512 -114v127
l512 114v-127v0z" />
    <glyph glyph-name="uniE950" unicode="album" 
d="M928 704h-832q-13 0 -22.5 -9.5t-9.5 -22.5v-704q0 -13 9.5 -22.5t22.5 -9.5h832q13 0 22.5 9.5t9.5 22.5v704q0 13 -9.5 22.5t-22.5 9.5v0zM768 160q0 -40 -37.5 -68t-90.5 -28t-90.5 28t-37.5 68t37.5 68t90.5 28q17 0 33.5 -3.5t30.5 -9.5v187l-256 -92v-242
q0 -40 -37.5 -68t-90.5 -28t-90.5 28t-37.5 68t37.5 68t90.5 28q17 0 33.5 -3.5t30.5 -9.5v269l384 128v-416v0zM864 768h-704q-13 0 -22.5 9.5t-9.5 22.5t9.5 22.5t22.5 9.5h704q13 0 22.5 -9.5t9.5 -22.5t-9.5 -22.5t-22.5 -9.5v0zM800 896h-576q-13 0 -22.5 9.5
t-9.5 22.5t9.5 22.5t22.5 9.5h576q13 0 22.5 -9.5t9.5 -22.5t-9.5 -22.5t-22.5 -9.5v0z" />
    <glyph glyph-name="uniE951" unicode="cassette" 
d="M247 192l-43 -128h615l-42 128h-530zM992 768h-960q-13 0 -22.5 -9.5t-9.5 -22.5v-640q0 -13 9.5 -22.5t22.5 -9.5h105l57 170q3 10 11.5 16t18.5 6h576q10 0 18.5 -6t11.5 -16l57 -170h105q13 0 22.5 9.5t9.5 22.5v640q0 13 -9.5 22.5t-22.5 9.5v0zM256 320
q-53 0 -90.5 37.5t-37.5 90.5t37.5 90.5t90.5 37.5t90.5 -37.5t37.5 -90.5t-37.5 -90.5t-90.5 -37.5v0zM768 320q-53 0 -90.5 37.5t-37.5 90.5t37.5 90.5t90.5 37.5t90.5 -37.5t37.5 -90.5t-37.5 -90.5t-90.5 -37.5v0zM864 640h-704q-13 0 -22.5 9.5t-9.5 22.5t9.5 22.5
t22.5 9.5h704q13 0 22.5 -9.5t9.5 -22.5t-9.5 -22.5t-22.5 -9.5v0zM320 448q0 -27 -18.5 -45.5t-45.5 -18.5t-45.5 18.5t-18.5 45.5t18.5 45.5t45.5 18.5t45.5 -18.5t18.5 -45.5v0zM832 448q0 -27 -18.5 -45.5t-45.5 -18.5t-45.5 18.5t-18.5 45.5t18.5 45.5t45.5 18.5
t45.5 -18.5t18.5 -45.5v0z" />
    <glyph glyph-name="uniE952" unicode="tape&#x32;" 
d="M800 640q-46 0 -87 -17.5t-71.5 -48t-48 -71.5t-17.5 -87q0 -26 5.5 -50t16.5 -46h-172q11 22 16.5 46t5.5 50q0 46 -17.5 87t-48 71.5t-71.5 48t-87 17.5t-87 -17.5t-71.5 -48t-48 -71.5t-17.5 -87t17.5 -87t48 -71.5t71.5 -48t87 -17.5h576q46 0 87 17.5t71.5 48
t48 71.5t17.5 87t-17.5 87t-48 71.5t-71.5 48t-87 17.5v0zM128 416q0 40 28 68t68 28t68 -28t28 -68t-28 -68t-68 -28t-68 28t-28 68v0zM800 320q-40 0 -68 28t-28 68t28 68t68 28t68 -28t28 -68t-28 -68t-68 -28v0z" />
    <glyph glyph-name="uniE953" unicode="music&#x37;" 
d="M0 960v-1024h960v1024h-960v0zM192 0h-128v896h64v-640h64v-256v0zM448 0h-192v256h64v640h64v-640h64v-256v0zM704 0h-192v256h64v640h64v-640h64v-256v0zM896 0h-128v256h64v640h64v-896v0z" />
    <glyph glyph-name="uniE954" unicode="guitar" 
d="M880 704l144 128q-9 49 -44 84t-84 44l-128 -144v-34l-181 -182q-71 58 -120.5 58t-81.5 -26q-31 -25 -46.5 -65.5t-32.5 -55.5q-34 -30 -108 -28t-146 -76q-42 -45 -49.5 -91t8 -91t47 -86.5t67.5 -77.5t77.5 -67.5t86.5 -47t91 -8t91 49.5q78 72 76 146t28 108
q15 17 55.5 32.5t65.5 46.5q26 32 26 81.5t-58 120.5l182 181h34v0zM293 101l-128 128l54 54l128 -128l-54 -54v0zM480 320q-40 0 -68 28t-28 68t28 68t68 28t68 -28t28 -68t-28 -68t-68 -28v0z" />
    <glyph glyph-name="uniE955" unicode="music&#x39;" 
d="M992 768q-13 0 -22.5 -9.5t-9.5 -22.5q0 -61 -28.5 -100.5t-58.5 -61.5q-40 -30 -92.5 -46t-108.5 -16h-32v96q0 13 -9.5 22.5t-22.5 9.5t-22.5 -9.5t-9.5 -22.5v-96h-64v96q0 13 -9.5 22.5t-22.5 9.5t-22.5 -9.5t-9.5 -22.5v-96h-64v96q0 13 -9.5 22.5t-22.5 9.5
t-22.5 -9.5t-9.5 -22.5v-96h-256v32q0 13 -9.5 22.5t-22.5 9.5t-22.5 -9.5t-9.5 -22.5v-192q0 -13 9.5 -22.5t22.5 -9.5t22.5 9.5t9.5 22.5v32h139q-5 -15 -8 -31t-3 -33q0 -79 56.5 -135.5t135.5 -56.5h192q79 0 135.5 56.5t56.5 135.5q0 14 -2 27.5t-6 25.5
q32 -7 60.5 -20t52.5 -31q30 -22 58.5 -61.5t28.5 -100.5q0 -13 9.5 -22.5t22.5 -9.5t22.5 9.5t9.5 22.5v576q0 13 -9.5 22.5t-22.5 9.5v0zM576 256h-192q-26 0 -45 19t-19 45t19 45t45 19h192q26 0 45 -19t19 -45t-19 -45t-45 -19v0z" />
    <glyph glyph-name="uniE956" unicode="music&#x31;&#x30;" 
d="M800 960h-576q-40 0 -68 -28t-28 -68v-832q0 -40 28 -68t68 -28h576q40 0 68 28t28 68v832q0 40 -28 68t-68 28v0zM512 896q53 0 90.5 -37.5t37.5 -90.5t-37.5 -90.5t-90.5 -37.5t-90.5 37.5t-37.5 90.5t37.5 90.5t90.5 37.5v0zM512 0q-53 0 -99.5 20t-81.5 55t-55 81.5
t-20 99.5t20 99.5t55 81.5t81.5 55t99.5 20t99.5 -20t81.5 -55t55 -81.5t20 -99.5t-20 -99.5t-55 -81.5t-81.5 -55t-99.5 -20v0zM512 448q-80 0 -136 -56t-56 -136t56 -136t136 -56t136 56t56 136t-56 136t-136 56v0zM512 192q-27 0 -45.5 18.5t-18.5 45.5t18.5 45.5
t45.5 18.5t45.5 -18.5t18.5 -45.5t-18.5 -45.5t-45.5 -18.5v0zM576 768q0 -27 -18.5 -45.5t-45.5 -18.5t-45.5 18.5t-18.5 45.5t18.5 45.5t45.5 18.5t45.5 -18.5t18.5 -45.5v0z" />
    <glyph glyph-name="uniE957" unicode="play" 
d="M981 800q-54 8 -110.5 14t-115.5 10t-119.5 6t-123.5 2t-123.5 -2t-119.5 -6t-115.5 -10t-110.5 -14q-11 -41 -18.5 -83t-13 -86.5t-8.5 -90t-3 -92.5t3 -92.5t8.5 -90t13 -86.5t18.5 -83q54 -8 110.5 -14t115.5 -10t119.5 -6t123.5 -2t123.5 2t119.5 6t115.5 10
t110.5 14q11 41 18.5 83t13 86.5t8.5 90t3 92.5t-3 92.5t-8.5 90t-13 86.5t-18.5 83v0zM384 256v384l320 -192l-320 -192v0z" />
    <glyph glyph-name="uniE958" unicode="play&#x32;" 
d="M384 598v-300l260 150zM0 704v-640h1024v640h-1024v0zM960 128h-896v64h896v-64v0zM960 256h-896v384h896v-384v0z" />
    <glyph glyph-name="uniE959" unicode="clapboard&#x2d;play" 
d="M78 697l866 232l49 -185l-865 -232zM128 512v-576h896v576h-896v0zM448 64v320l256 -160l-256 -160v0z" />
    <glyph glyph-name="uniE95A" unicode="clapboard" 
d="M64 832q-27 0 -45.5 -18.5t-18.5 -45.5v-256h1024v320h-960v0zM64 576v32l160 160h128l-192 -192h-96v0zM288 576l192 192h128l-192 -192h-128v0zM544 576l192 192h128l-192 -192h-128v0zM960 608l-32 -32h-128l160 160v-128v0zM0 448h1024v-512h-1024v512v0z" />
    <glyph glyph-name="uniE95B" unicode="media" 
d="M1024 96q0 -40 -37.5 -68t-90.5 -28t-90.5 28t-37.5 68t37.5 68t90.5 28q17 0 33.5 -3.5t30.5 -9.5v187l-256 -92v-242q0 -40 -37.5 -68t-90.5 -28t-90.5 28t-37.5 68t37.5 68t90.5 28q17 0 33.5 -3.5t30.5 -9.5v269l384 128v-416v0zM288 768q-40 0 -68 -28t-28 -68
t28 -68t68 -28t68 28t28 68t-28 68t-68 28v0zM544 896h-140l-23 46q-4 8 -12 13t-17 5h-128q-9 0 -17 -5t-12 -13l-23 -46h-140q-13 0 -22.5 -9.5t-9.5 -22.5v-384q0 -13 9.5 -22.5t22.5 -9.5h512q13 0 22.5 9.5t9.5 22.5v384q0 13 -9.5 22.5t-22.5 9.5v0zM288 512
q-66 0 -113 47t-47 113t47 113t113 47t113 -47t47 -113t-47 -113t-113 -47v0z" />
    <glyph glyph-name="uniE95C" unicode="board&#x2d;play" 
d="M912 960h-864q-20 0 -34 -14t-14 -34v-736q0 -20 14 -34t34 -14h285l-130 -131q-11 -10 -11 -25t11 -25q5 -6 11.5 -8.5t13.5 -2.5t13.5 2.5t11.5 8.5l182 181h13v-160q0 -13 9.5 -22.5t22.5 -9.5t22.5 9.5t9.5 22.5v160h13l182 -181q5 -6 11.5 -8.5t13.5 -2.5t13.5 2.5
t11.5 8.5q11 10 11 25t-11 25l-130 131h285q20 0 34 14t14 34v736q0 20 -14 34t-34 14v0zM384 768l256 -160l-256 -160v320v0zM800 256h-640q-13 0 -22.5 9.5t-9.5 22.5t9.5 22.5t22.5 9.5h640q13 0 22.5 -9.5t9.5 -22.5t-9.5 -22.5t-22.5 -9.5v0z" />
    <glyph glyph-name="uniE95D" unicode="movie" 
d="M512 960q-106 0 -199.5 -40t-163 -109.5t-109.5 -163t-40 -199.5t40 -199.5t109.5 -163t163 -109.5t199.5 -40t199.5 40t163 109.5t109.5 163t40 199.5t-40 199.5t-109.5 163t-163 109.5t-199.5 40v0zM512 846q45 0 77 -32t32 -77t-32 -77t-77 -32t-77 32t-32 77t32 77
t77 32v0zM116 545q0 46 32 78t77 32t77 -32t32 -78q0 -45 -32 -77t-77 -32t-77 32t-32 77v0zM338 115q-45 0 -77 32t-32 77t32 77t77 32q46 0 78 -32t32 -77t-32 -77t-78 -32v0zM512 384q-27 0 -45.5 18.5t-18.5 45.5t18.5 45.5t45.5 18.5t45.5 -18.5t18.5 -45.5
t-18.5 -45.5t-45.5 -18.5v0zM686 114q-46 0 -78 32t-32 77q0 46 32 78t78 32q45 0 77 -32t32 -78q0 -45 -32 -77t-77 -32v0zM799 435q-45 0 -77 32t-32 78q0 45 32 77t77 32t77 -32t32 -77q0 -46 -32 -78t-77 -32v0z" />
    <glyph glyph-name="uniE95E" unicode="film" 
d="M0 960v-1024h1024v1024h-1024v0zM640 896h128v-128h-128v128v0zM448 896h128v-128h-128v128v0zM256 896h128v-128h-128v128v0zM64 896h128v-128h-128v128v0zM64 704h384v-512h-384v512v0zM192 0h-128v128h128v-128v0zM384 0h-128v128h128v-128v0zM576 0h-128v128h128
v-128v0zM768 0h-128v128h128v-128v0zM960 0h-128v128h128v-128v0zM960 192h-448v512h448v-512v0zM960 768h-128v128h128v-128v0z" />
    <glyph glyph-name="uniE95F" unicode="film&#x32;" 
d="M0 896v-896h1024v896h-1024v0zM192 64h-128v128h128v-128v0zM192 256h-128v128h128v-128v0zM192 512h-128v128h128v-128v0zM192 704h-128v128h128v-128v0zM768 64h-512v320h512v-320v0zM768 512h-512v320h512v-320v0zM960 64h-128v128h128v-128v0zM960 256h-128v128h128
v-128v0zM960 512h-128v128h128v-128v0zM960 704h-128v128h128v-128v0z" />
    <glyph glyph-name="uniE960" unicode="film&#x33;" 
d="M0 832v-768h1024v768h-1024v0zM192 128h-128v128h128v-128v0zM192 384h-128v128h128v-128v0zM192 640h-128v128h128v-128v0zM768 128h-512v640h512v-640v0zM960 128h-128v128h128v-128v0zM960 384h-128v128h128v-128v0zM960 640h-128v128h128v-128v0z" />
    <glyph glyph-name="uniE961" unicode="film&#x34;" 
d="M0 832v-768h1024v768h-1024v0zM192 128h-128v128h128v-128v0zM192 384h-128v128h128v-128v0zM192 640h-128v128h128v-128v0zM768 128h-512v640h512v-640v0zM960 128h-128v128h128v-128v0zM960 384h-128v128h128v-128v0zM960 640h-128v128h128v-128v0zM384 640v-384
l256 192z" />
    <glyph glyph-name="uniE962" unicode="video&#x31;&#x30;" 
d="M384 672q0 66 47 113t113 47t113 -47t47 -113t-47 -113t-113 -47t-113 47t-47 113v0zM0 672q0 66 47 113t113 47t113 -47t47 -113t-47 -113t-113 -47t-113 47t-47 113v0zM768 352v96q0 26 -19 45t-45 19h-640q-26 0 -45 -19t-19 -45v-320q0 -26 19 -45t45 -19h640
q26 0 45 19t19 45v96l256 -160v448l-256 -160v0zM640 192h-512v192h512v-192v0z" />
    <glyph glyph-name="uniE963" unicode="video&#x31;&#x31;" 
d="M979 704q-8 0 -16 -3t-16 -8l-179 -127v106q0 40 -28 68t-68 28h-576q-40 0 -68 -28t-28 -68v-448q0 -40 28 -68t68 -28h576q40 0 68 28t28 68v106l179 -127q8 -5 16 -8t16 -3v0v0q10 0 19.5 5t15.5 13q5 7 7.5 15t2.5 18v410q0 25 -14 38t-31 13v0z" />
    <glyph glyph-name="uniE964" unicode="video&#x31;&#x32;" 
d="M96 768q-40 0 -68 -28t-28 -68v-448q0 -17 6 -33t16 -28l403 605h-329v0zM979 704q-8 0 -16 -3t-16 -8l-179 -127v106q0 40 -28 68t-68 28h-17l89 133l-80 54l-640 -960l80 -54l124 187h444q40 0 68 28t28 68v106l179 -127q8 -5 16 -8t16 -3v0v0q10 0 19.5 5t15.5 13
q5 7 7.5 15t2.5 18v410q0 25 -14 38t-31 13v0z" />
    <glyph glyph-name="uniE965" unicode="video&#x31;&#x33;" 
d="M979 704q-8 0 -16 -3t-16 -8l-179 -127v106q0 40 -28 68t-68 28h-576q-40 0 -68 -28t-28 -68v-448q0 -40 28 -68t68 -28h576q40 0 68 28t28 68v106l179 -127q8 -5 16 -8t16 -3v0v0q10 0 19.5 5t15.5 13q5 7 7.5 15t2.5 18v410q0 25 -14 38t-31 13v0zM256 256v384
l320 -192l-320 -192v0z" />
    <glyph glyph-name="uniE966" unicode="video&#x31;&#x34;" 
d="M979 704q-8 0 -16 -3t-16 -8l-179 -127v106q0 40 -28 68t-68 28h-576q-40 0 -68 -28t-28 -68v-448q0 -40 28 -68t68 -28h576q40 0 68 28t28 68v106l179 -127q8 -5 16 -8t16 -3v0v0q10 0 19.5 5t15.5 13q5 7 7.5 15t2.5 18v410q0 25 -14 38t-31 13v0zM960 272l-158 112
h-98v-160q0 -13 -9.5 -22.5t-22.5 -9.5h-576q-13 0 -22.5 9.5t-9.5 22.5v448q0 13 9.5 22.5t22.5 9.5h576q13 0 22.5 -9.5t9.5 -22.5v-160h98l158 112v-352v0z" />
    <glyph glyph-name="uniE967" unicode="video&#x31;&#x35;" 
d="M979 704q-8 0 -16 -3t-16 -8l-179 -127v106q0 40 -28 68t-68 28h-14l104 141q8 11 6 24t-13 21t-24 6t-21 -13l-131 -179h-483q-40 0 -68 -28t-28 -68v-448q0 -40 28 -68t68 -28h14l-104 -141q-8 -11 -6 -24t13 -21q4 -3 9 -4.5t10 -1.5q7 0 14 3.5t12 9.5l131 179h483
q40 0 68 28t28 68v106l179 -127q8 -5 16 -8t16 -3v0v0q10 0 19.5 5t15.5 13q5 7 7.5 15t2.5 18v410q0 25 -14 38t-31 13v0zM96 192q-13 0 -22.5 9.5t-9.5 22.5v448q0 13 9.5 22.5t22.5 9.5h436l-375 -512h-61v0zM960 272l-158 112h-98v-160q0 -13 -9.5 -22.5t-22.5 -9.5
h-436l375 512h61q13 0 22.5 -9.5t9.5 -22.5v-160h98l158 112v-352v0z" />
    <glyph glyph-name="uniE968" unicode="video&#x31;&#x36;" 
d="M979 704q-8 0 -16 -3t-16 -8l-179 -127v106q0 40 -28 68t-68 28h-576q-40 0 -68 -28t-28 -68v-448q0 -40 28 -68t68 -28h576q40 0 68 28t28 68v106l179 -127q8 -5 16 -8t16 -3v0v0q10 0 19.5 5t15.5 13q5 7 7.5 15t2.5 18v410q0 25 -14 38t-31 13v0zM960 272l-158 112
h-98v-160q0 -13 -9.5 -22.5t-22.5 -9.5h-576q-13 0 -22.5 9.5t-9.5 22.5v448q0 13 9.5 22.5t22.5 9.5h576q13 0 22.5 -9.5t9.5 -22.5v-160h98l158 112v-352v0zM256 640l320 -192l-320 -192v384z" />
    <glyph glyph-name="uniE969" unicode="recording" 
d="M704 704q0 -80 -56 -136t-136 -56t-136 56t-56 136t56 136t136 56t136 -56t56 -136v0zM608 320q13 0 22.5 9.5t9.5 22.5t-9.5 22.5t-22.5 9.5h-192q-13 0 -22.5 -9.5t-9.5 -22.5v-384q0 -13 9.5 -22.5t22.5 -9.5h192q13 0 22.5 9.5t9.5 22.5t-9.5 22.5t-22.5 9.5h-160
v128h160q13 0 22.5 9.5t9.5 22.5t-9.5 22.5t-22.5 9.5h-160v128h160v0zM256 256q0 53 -37.5 90.5t-90.5 37.5h-96q-13 0 -22.5 -9.5t-9.5 -22.5v-384q0 -13 9.5 -22.5t22.5 -9.5t22.5 9.5t9.5 22.5v160h44l87 -174q5 -9 12.5 -13.5t16.5 -4.5q4 0 7.5 1t6.5 2
q12 6 16.5 18.5t-1.5 24.5l-78 155q36 14 58.5 46.5t22.5 72.5v0zM128 192h-64v128h64q26 0 45 -19t19 -45t-19 -45t-45 -19v0zM992 0h-96q-26 0 -45 19t-19 45v192q0 26 19 45t45 19h96q13 0 22.5 9.5t9.5 22.5t-9.5 22.5t-22.5 9.5h-96q-53 0 -90.5 -37.5t-37.5 -90.5
v-192q0 -53 37.5 -90.5t90.5 -37.5h96q13 0 22.5 9.5t9.5 22.5t-9.5 22.5t-22.5 9.5v0z" />
    <glyph glyph-name="uniE96A" unicode="dice" 
d="M864 768h-512q-66 0 -113 -47t-47 -113v-512q0 -66 47 -113t113 -47h512q66 0 113 47t47 113v512q0 66 -47 113t-113 47v0zM416 64q-40 0 -68 28t-28 68t28 68t68 28t68 -28t28 -68t-28 -68t-68 -28v0zM416 448q-40 0 -68 28t-28 68t28 68t68 28t68 -28t28 -68t-28 -68
t-68 -28v0zM608 256q-40 0 -68 28t-28 68t28 68t68 28t68 -28t28 -68t-28 -68t-68 -28v0zM800 64q-40 0 -68 28t-28 68t28 68t68 28t68 -28t28 -68t-28 -68t-68 -28v0zM800 448q-40 0 -68 28t-28 68t28 68t68 28t68 -28t28 -68t-28 -68t-68 -28v0zM829 832q-11 55 -55 91.5
t-102 36.5h-512q-66 0 -113 -47t-47 -113v-512q0 -58 36.5 -102t91.5 -55v637q0 26 19 45t45 19h637v0z" />
    <glyph glyph-name="uniE96B" unicode="gamepad" 
d="M320 640h-64v-64h-64v-64h64v-64h64v64h64v64h-64v64zM640 592q0 20 14 34t34 14t34 -14t14 -34t-14 -34t-34 -14t-34 14t-14 34v0zM736 496q0 20 14 34t34 14t34 -14t14 -34t-14 -34t-34 -14t-34 14t-14 34v0zM739 788q-87 0 -122 -34.5t-105 -34.5t-105 34.5t-122 34.5
q-71 0 -124 -38.5t-89 -97t-54 -127.5t-18 -130q0 -117 14.5 -195t58.5 -90q43 -12 96.5 26t107.5 89t76.5 57.5t65.5 6.5l93 -2l93 2q43 0 65.5 -6.5t76.5 -57.5t107.5 -89t96.5 -26q44 12 58.5 90t14.5 195q0 61 -18 130t-54 127.5t-89 97t-124 38.5v0zM288 384
q-66 0 -113 47t-47 113t47 113t113 47t113 -47t47 -113t-47 -113t-113 -47v0zM736 384q-66 0 -113 47t-47 113t47 113t113 47t113 -47t47 -113t-47 -113t-113 -47v0z" />
    <glyph glyph-name="uniE96C" unicode="gamepad&#x32;" 
d="M952 644q-20 32 -43 57t-49 43q-30 20 -63.5 30.5t-68.5 10.5q-49 0 -79.5 -12.5t-54.5 -26.5q-20 -11 -38 -18.5t-44 -7.5t-44 7.5t-38 18.5q-24 14 -54.5 26.5t-79.5 12.5q-35 0 -68.5 -10.5t-63.5 -30.5q-26 -18 -49 -43t-43 -57q-34 -55 -53 -123.5t-19 -135.5
q0 -63 3.5 -109.5t10.5 -80.5q10 -45 28.5 -71t45.5 -34q6 -1 12.5 -2t13.5 -1q47 0 96.5 36.5t96.5 81.5q43 40 59 46.5t41 6.5h4h4h4.5h4.5l88 -2l88 2h4.5h4.5h4h4q25 0 41 -6.5t59 -46.5q47 -45 96.5 -81.5t96.5 -36.5v0v0q7 0 13.5 1t12.5 2q27 8 45.5 34t28.5 71
q7 34 10.5 80.5t3.5 109.5q0 67 -19 135.5t-53 123.5v0zM947 209q-5 -24 -13 -39.5t-15 -17.5q-2 -1 -4 -1h-5q-32 0 -77.5 38t-72.5 63q-25 24 -42 37t-32 20q-20 10 -37 11.5t-32 1.5h-4h-4h-4.5h-4.5h-1l-87 -2l-88 2h-4.5h-4.5h-4h-4q-15 0 -32 -1.5t-37 -11.5
q-15 -7 -32 -20t-42 -37q-27 -25 -72.5 -63t-77.5 -38h-5t-4 1q-7 2 -15 17.5t-13 39.5q-7 30 -10 73t-3 103q0 28 4.5 58t12.5 60q8 29 19.5 56.5t26.5 51.5q16 26 34.5 46t38.5 34q22 15 46 22.5t50 7.5q37 0 59 -9t44 -21q22 -13 48 -24t65 -11t65.5 11t47.5 24
q22 12 44 21t59 9q26 0 50 -7.5t46 -22.5q20 -14 38.5 -34t34.5 -46q15 -24 26.5 -51.5t19.5 -56.5q8 -30 12.5 -60t4.5 -58q0 -60 -3 -103t-10 -73v0v0zM640 576q0 27 18.5 45.5t45.5 18.5t45.5 -18.5t18.5 -45.5t-18.5 -45.5t-45.5 -18.5t-45.5 18.5t-18.5 45.5v0z
M768 448q0 27 18.5 45.5t45.5 18.5t45.5 -18.5t18.5 -45.5t-18.5 -45.5t-45.5 -18.5t-45.5 18.5t-18.5 45.5v0zM256 640q-53 0 -90.5 -37.5t-37.5 -90.5t37.5 -90.5t90.5 -37.5t90.5 37.5t37.5 90.5t-37.5 90.5t-90.5 37.5v0v0z" />
    <glyph glyph-name="uniE96D" unicode="gamepad&#x33;" horiz-adv-x="1280" 
d="M992 766v2h-672q-66 0 -124.5 -25t-102 -68.5t-68.5 -102t-25 -124.5t25 -124.5t68.5 -102t102 -68.5t124.5 -25q79 0 145.5 35t110.5 93h128q44 -58 110.5 -93t145.5 -35q66 0 124.5 25t102 68.5t68.5 102t25 124.5q0 62 -22.5 117.5t-61 98t-91 69.5t-113.5 33v0z
M512 384h-128v-128h-128v128h-128v128h128v128h128v-128h128v-128v0zM896 384q-27 0 -45.5 18.5t-18.5 45.5t18.5 45.5t45.5 18.5t45.5 -18.5t18.5 -45.5t-18.5 -45.5t-45.5 -18.5v0zM1088 384q-27 0 -45.5 18.5t-18.5 45.5t18.5 45.5t45.5 18.5t45.5 -18.5t18.5 -45.5
t-18.5 -45.5t-45.5 -18.5v0z" />
    <glyph glyph-name="uniE96E" unicode="game&#x35;" 
d="M965 781q-35 41 -78.5 74t-93 56.5t-104.5 36t-113 12.5q-106 0 -199.5 -40t-163 -109.5t-109.5 -163t-40 -199.5t40 -199.5t109.5 -163t163 -109.5t199.5 -40q58 0 113 12.5t104.5 36t93 56.5t78.5 74l-325 333l325 333v0zM704 839q30 0 50.5 -20.5t20.5 -50.5
t-20.5 -50.5t-50.5 -20.5t-50.5 20.5t-20.5 50.5t20.5 50.5t50.5 20.5v0z" />
    <glyph glyph-name="uniE96F" unicode="cards" 
d="M818 612q-73 54 -123.5 102.5t-85.5 92t-57.5 82t-39.5 71.5v0v0v0v0q-17 -33 -39.5 -71.5t-57.5 -82t-85.5 -92t-123.5 -102.5q-123 -92 -137.5 -192.5t38.5 -170t152 -88.5t201 52q-13 -88 -53.5 -150t-86.5 -89v-38h384v38q-46 27 -86.5 89t-53.5 150q102 -71 201 -52
t152 88.5t38.5 170t-137.5 192.5v0z" />
    <glyph glyph-name="uniE970" unicode="clubs" 
d="M787 567q-44 0 -83 -17t-67 -47q-12 -13 -31.5 -27.5t-42.5 -27.5q11 40 39 84.5t51 66.5q30 29 47 68t17 84q0 43 -16 81t-44 66t-65.5 45t-79.5 17t-79.5 -17t-65.5 -45t-44 -66t-16 -81q0 -45 17 -84t47 -68q23 -22 51 -66.5t39 -84.5q-23 13 -42.5 27.5t-31.5 27.5
q-28 30 -67 47t-83 17q-43 0 -80.5 -16.5t-65.5 -44.5t-44.5 -66.5t-16.5 -81.5t16.5 -81.5t44.5 -67t65.5 -44.5t80.5 -16q44 0 83 17.5t67 47.5q13 13 33.5 29t44.5 30q-1 -56 -13.5 -103.5t-33 -85.5t-46 -66t-52.5 -44v-38h384v38q-27 16 -52.5 44t-46 66t-33 85.5
t-13.5 103.5q24 -14 44.5 -30t33.5 -29q28 -30 67 -47.5t83 -17.5q43 0 80.5 16t65.5 44.5t44.5 67t16.5 81.5t-16.5 81.5t-44.5 66.5t-65.5 44.5t-80.5 16.5v0z" />
    <glyph glyph-name="uniE971" unicode="cards&#x33;" 
d="M512 960l-320 -512l320 -512l320 512z" />
    <glyph glyph-name="uniE972" unicode="chess&#x2d;king" 
d="M974 694q-25 26 -59 38t-72 12q-52 0 -108 -21t-108 -63q-12 38 -34 64.5t-49 37.5v70h96v64h-96v64h-64v-64h-96v-64h96v-70q-27 -11 -49 -37.5t-34 -64.5q-52 42 -108 63t-108 21q-38 0 -72 -12t-59 -37q-33 -33 -44 -80t-2 -99t38 -105.5t76 -100.5q17 -18 36 -33
t38 -27v-94q33 -7 70 -12t77.5 -8.5t84 -5.5t88.5 -2t88.5 2t84 5.5t77.5 8.5t70 12v94q19 12 38 27t36 33q47 47 76 100.5t38 105.5t-2 99t-44 79v0zM163 581q1 1 5.5 2t12.5 1v0q24 0 62.5 -15.5t77.5 -55.5q26 -25 44 -55t24 -59q5 -21 3.5 -31.5t-3.5 -12.5l-4.5 -1.5
t-13.5 -1.5q-24 0 -62.5 16t-77.5 55q-26 26 -43.5 56t-24.5 59q-5 20 -3 31t3 12v0zM861 538q-7 -29 -24.5 -59t-43.5 -56q-39 -39 -77.5 -55t-62.5 -16q-9 0 -13.5 1.5l-4.5 1.5q-2 2 -3.5 12.5t3.5 31.5q6 29 24 59t44 55q39 40 77.5 55.5t62.5 15.5q8 0 12.5 -1t5.5 -2
t3 -12t-3 -31v0zM192 58v-94q33 -7 70 -12t77.5 -8.5t84 -5.5t88.5 -2t88.5 2t84 5.5t77.5 8.5t70 12v94q-35 -6 -73 -11t-78.5 -8.5t-82.5 -5t-86 -1.5t-86 1.5t-82.5 5t-78.5 8.5t-73 11v0z" />
    <glyph glyph-name="uniE973" unicode="chess&#x32;" 
d="M512 0q-43 0 -85 2t-82 5.5t-76.5 8.5t-69.5 12q-2 0 -3.5 0.5t-3.5 0.5v-65q33 -7 70 -12t77.5 -8.5t84 -5.5t88.5 -2t88.5 2t84 5.5t77.5 8.5t70 12v65q-2 0 -3.5 -0.5t-3.5 -0.5q-33 -7 -69.5 -12t-76.5 -8.5t-82 -5.5t-85 -2v0zM768 98v30l-32 64h-448l-32 -64v-30
q56 -8 121 -12.5t135 -4.5t135 4.5t121 12.5v0zM1002 678q-23 23 -55 23t-54 -23q-19 -19 -22 -45t10 -48l-195 -118l39 182q25 -5 49 6t35 36q14 28 4 58t-39 44q-28 14 -58.5 3.5t-44.5 -38.5q-11 -24 -5.5 -50t25.5 -43l-118 -140l-42 168q25 7 41.5 27.5t16.5 47.5
q0 32 -22.5 54.5t-54.5 22.5t-54.5 -22.5t-22.5 -54.5q0 -27 16.5 -47.5t41.5 -27.5l-42 -168l-118 140q20 17 25.5 43t-5.5 50q-14 28 -44.5 38.5t-58.5 -3.5q-29 -14 -39 -44t4 -58q11 -25 35 -36t49 -6l39 -182l-195 118q13 22 10 48t-22 45q-22 23 -54 23t-55 -23
q-22 -22 -22 -54t22 -54q20 -19 46 -22t48 10l182 -302h428l182 302q22 -13 48 -10t46 22q22 22 22 54t-22 54v0z" />
    <glyph glyph-name="uniE974" unicode="chess&#x33;" 
d="M192 672h576v-512h-576v512zM768 704l128 128v128h-128v-64h-192v64h-192v-64h-192v64h-128v-128l128 -128h576v0zM768 800l-32 -32h-512l-32 32h576v0zM128 128h704v-64h-704v64zM896 32h-832l-26.5 -24t-37.5 -72h960q-11 48 -37.5 72l-26.5 24v0z" />
    <glyph glyph-name="uniE975" unicode="chess&#x34;" 
d="M794 192h-628q12 -27 40.5 -50.5t70 -41t93.5 -27t110 -9.5t110 9.5t93.5 27t70 41t40.5 50.5v0zM0 -64h90q0 2 2.5 7.5t8.5 12.5t11.5 9.5t7.5 2.5h270q40 1 65 36t25 60h-48h-109.5h-120.5h-82q-45 0 -82.5 -40t-37.5 -88v0zM840 64h-81.5h-121h-109.5h-48
q0 -25 25 -60t65 -36h270q2 0 7.5 -2.5t11.5 -9.5t8.5 -12.5t2.5 -7.5h90q0 48 -37.5 88t-82.5 40v0zM480 256h314q-10 24 -33.5 45t-57.5 38q16 21 24.5 48t8.5 61q0 60 -19.5 110t-49 88t-64.5 64.5t-66 41.5q25 14 40 39.5t15 56.5q0 46 -33 79t-79 33t-79 -33t-33 -79
q0 -31 15 -56.5t40 -39.5q-31 -15 -66 -41.5t-64.5 -64.5t-49 -88t-19.5 -110q0 -34 8.5 -61t24.5 -48q-34 -17 -57.5 -38t-33.5 -45h314v0v0v0zM320 512v64h128v128h64v-128h128v-64h-128v-128h-64v128h-128v0z" />
    <glyph glyph-name="uniE976" unicode="chess&#x35;" 
d="M992 0h-736l-32 -64h800zM567 448q6 -78 -21 -135t-66 -103.5t-80.5 -88.5t-64.5 -89h625v62v78.5v96.5v115q0 83 -15 154.5t-41 130t-60.5 102.5t-73.5 73q-3 15 -8.5 31t-11.5 30l-12 28q-11 24 -30.5 26.5t-36.5 -17.5l-39 -46v0h-1q-12 0 -23.5 -0.5t-21.5 -0.5
l-85 56q-22 15 -37.5 6.5t-15.5 -35.5v-65q-19 -11 -36.5 -24t-36.5 -27q-24 -18 -62.5 -60t-83 -94t-90 -106.5t-84.5 -97.5q-70 -80 -45.5 -133.5t91.5 -38.5q-3 -63 37.5 -55.5t76.5 35.5q42 32 104 45.5t118 27.5t95 39t35 80v0zM775 787q26 -26 48 -59.5t39 -72.5
q27 -59 40.5 -127.5t13.5 -143.5v-288l-96 96v192q0 65 -11.5 123.5t-33.5 108.5q-14 31 -31 57t-37 46l68 68v0zM160 371q-19 0 -32 13t-13 32t13 32t32 13t32 -13t13 -32t-13 -32t-32 -13v0zM482 672q-28 -28 -58 -38t-44 4t-4 44t38 58t58 38t44 -4t4 -44t-38 -58v0z" />
    <glyph glyph-name="uniE977" unicode="chess&#x36;" 
d="M736 324q15 28 23.5 59t8.5 65q0 77 -41.5 139.5t-107.5 93.5q24 22 38.5 52.5t14.5 66.5q0 66 -47 113t-113 47t-113 -47t-47 -113q0 -36 14.5 -66.5t38.5 -52.5q-66 -31 -107.5 -93.5t-41.5 -139.5q0 -34 8.5 -65t23.5 -59q-50 -29 -91.5 -70t-71 -91t-45.5 -107.5
t-16 -119.5h896q0 62 -16 119.5t-45.5 107.5t-71 91t-91.5 70v0z" />
    <glyph glyph-name="uniE978" unicode="chess&#x37;" 
d="M896 960h128v-128h-128v128zM896 704h128v-128h-128v128zM896 448h128v-128h-128v128zM896 192h128v-128h-128v128zM768 832h128v-128h-128v128zM768 576h128v-128h-128v128zM768 320h128v-128h-128v128zM768 64h128v-128h-128v128zM640 960h128v-128h-128v128zM640 704
h128v-128h-128v128zM640 448h128v-128h-128v128zM640 192h128v-128h-128v128zM512 832h128v-128h-128v128zM512 576h128v-128h-128v128zM512 320h128v-128h-128v128zM512 64h128v-128h-128v128zM384 960h128v-128h-128v128zM384 704h128v-128h-128v128zM384 448h128v-128
h-128v128zM384 192h128v-128h-128v128zM256 832h128v-128h-128v128zM256 576h128v-128h-128v128zM256 320h128v-128h-128v128zM256 64h128v-128h-128v128zM128 960h128v-128h-128v128zM128 704h128v-128h-128v128zM128 448h128v-128h-128v128zM128 192h128v-128h-128v128z
M0 832h128v-128h-128v128zM0 576h128v-128h-128v128zM0 320h128v-128h-128v128zM0 64h128v-128h-128v128z" />
    <glyph glyph-name="uniE979" unicode="bullhorn" 
d="M1024 531q0 75 -10.5 141.5t-28 116t-41.5 78t-51 29.5v0v0h-83l-34.5 -24t-97.5 -56.5t-150.5 -67t-192.5 -56.5q-6 -34 -10 -74.5t-4 -86.5q0 -47 4 -87.5t10 -74.5q105 -21 192.5 -55.5t150.5 -67.5t97.5 -57l34.5 -24h83v0.5v0.5q27 0 51 29t41.5 78.5t28 115.5
t10.5 142v0zM865 221q-7 0 -14 5.5t-11 9.5q-9 11 -18 27t-17 37q-18 46 -27 105.5t-9 125.5t9 125.5t27 105.5q8 20 17 36.5t18 26.5q4 5 11 10.5t14 5.5t14 -5.5t11 -10.5q9 -10 18 -26.5t17 -36.5q17 -46 26.5 -105.5t9.5 -125.5t-9.5 -125.5t-26.5 -105.5
q-8 -21 -17 -37t-18 -27q-4 -4 -11 -9.5t-14 -5.5v0zM252 531q0 39 2.5 76.5t8.5 72.5q-36 -5 -69 -7.5t-71 -2.5h-59.5h-8.5l-55 -95v-88l55 -95h8.5h59.5q38 0 71 -2.5t69 -7.5q-6 35 -8.5 72.5t-2.5 76.5v0zM368 318l-128 24l82 -321q3 -13 14 -18.5t23 -0.5l118 48
q12 4 16.5 15.5t-2.5 23.5l-123 229v0zM865 411q-3 0 -5.5 2.5t-4.5 3.5q-3 4 -6.5 10.5t-6.5 14.5q-7 17 -10.5 40t-3.5 49q0 25 3.5 48t10.5 41q3 8 6.5 14t6.5 10q2 2 4.5 4t5.5 2t5.5 -2t3.5 -4q4 -4 7.5 -10t6.5 -14q7 -18 10.5 -41t3.5 -48q0 -26 -3.5 -49t-10.5 -40
q-3 -8 -6.5 -14.5t-7.5 -10.5l-3.5 -3.5t-5.5 -2.5v0z" />
    <glyph glyph-name="uniE97A" unicode="bullhorn&#x32;" 
d="M128 576h-128v-320h128v64l128 -37v-0.5v-0.5v-90q0 -26 19 -45t45 -19h128q26 0 45 19t19 45v18l320 -91v594l-704 -201v64v0zM320 265l128 -36v-37h-128v73v0zM896 731v-630l128 -37v704z" />
    <glyph glyph-name="uniE97B" unicode="news&#x32;" 
d="M896 768h-768q-53 0 -90.5 -37.5t-37.5 -90.5v-448q0 -53 37.5 -90.5t90.5 -37.5h768q53 0 90.5 37.5t37.5 90.5v448q0 53 -37.5 90.5t-90.5 37.5v0zM320 256h-64l-128 213v-213h-64v320h64l128 -213v213h64v-320v0zM576 512h-128v-64h128v-64h-128v-64h128v-64h-192v320
h192v-64v0zM960 256h-96l-64 128l-64 -128h-96v320h64v-256l64 128h64l64 -128v256h64v-320v0z" />
    <glyph glyph-name="uniE97C" unicode="connection" horiz-adv-x="1280" 
d="M640 384q79 0 149 -30t122 -83l-90 -90q-35 35 -81.5 55t-99.5 20t-99.5 -20t-81.5 -55l-90 90q52 53 122 83t149 30v0zM187 453q46 45 98 80t109.5 58.5t119.5 36t126 12.5t126 -12.5t119.5 -36t109.5 -58.5t98 -80l-91 -91q-36 36 -78 64t-88 47t-95.5 29t-100.5 10
t-100.5 -10t-95.5 -29t-88 -47t-78 -64l-91 91v0zM989 826q40 -17 78 -37.5t73.5 -45t69 -52t64.5 -57.5v0l-91 -91q-54 54 -117 96t-132 71t-143 43.5t-151 14.5t-151 -14.5t-143 -43.5t-132 -71t-117 -96l-91 91q31 30 64.5 57.5t69 52t73.5 45t78 37.5q42 17 84.5 30
t86 22t88.5 13.5t90 4.5t90 -4.5t88.5 -13.5t86 -22t84.5 -30v0zM576 64q0 27 18.5 45.5t45.5 18.5t45.5 -18.5t18.5 -45.5t-18.5 -45.5t-45.5 -18.5t-45.5 18.5t-18.5 45.5v0z" />
    <glyph glyph-name="uniE97D" unicode="connection&#x32;" horiz-adv-x="1280" 
d="M640 384q79 0 149 -30t122 -83l-90 -90q-35 35 -81.5 55t-99.5 20t-99.5 -20t-81.5 -55l-90 90q52 53 122 83t149 30v0v0zM187 453q46 45 98 80t109.5 58.5t119.5 36t126 12.5t126 -12.5t119.5 -36t109.5 -58.5t98 -80l-91 -91q-36 36 -78 64t-88 47t-95.5 29t-100.5 10
t-100.5 -10t-95.5 -29t-88 -47t-78 -64l-91 91v0zM576 64q0 27 18.5 45.5t45.5 18.5t45.5 -18.5t18.5 -45.5t-18.5 -45.5t-45.5 -18.5t-45.5 18.5t-18.5 45.5v0zM840 742l8 -2t8 -3v133l-8 2l-8 2v-132v0zM808 750l8 -2l8 -2v131l-8 2t-8 1v-130v0zM936 709q4 -2 8 -3.5
t8 -3.5v138q-4 2 -8 3.5t-8 2.5v-137v0zM872 733q4 -2 8 -3t8 -3v134q-4 1 -8 2.5t-8 2.5v-133v0zM904 722q4 -2 8 -3.5t8 -2.5v135q-4 2 -8 3l-8 2v-134v0zM712 765q4 -1 8 -1.5t8 -0.5v129q-4 0 -8 0.5t-8 0.5v-128v0zM648 768h8h8v128h-8h-8v-128v0zM776 756q4 -1 8 -1.5
t8 -1.5v130q-4 1 -8 1.5t-8 1.5v-130v0zM744 761q4 0 8 -1t8 -1v129q-4 1 -8 1.5t-8 0.5v-129v0zM680 767q4 0 8 -0.5t8 -0.5v128q-4 1 -8 1h-8v-128v0zM1224 584l16 16v65q-4 4 -8 7.5t-8 7.5v-96v0zM1192 552l16 16v125q-4 3 -8 6.5t-8 6.5v-154v0zM1160 565q4 -4 8 -7.5
t8 -7.5v168l-8 6l-8 6v-165v0zM1256 651v-35l16 16v3l-8 8l-8 8v0zM968 834v-139l8 -4l8 -4v141q-4 1 -8 2.5t-8 3.5v0zM1000 679q4 -2 8 -4.5t8 -4.5v144q-4 1 -8 3l-8 4v-142v0zM1032 661q4 -3 8 -5.5t8 -4.5v147l-8 4l-8 4v-145v0zM1096 618l8 -6l8 -6v156q-4 2 -8 4.5
t-8 5.5v-154v0zM1128 593q4 -3 8 -6.5t8 -6.5v161q-4 3 -8 5.5t-8 5.5v-159v0zM1064 641l8 -6t8 -5v151l-8 4t-8 5v-149v0zM200 630q4 2 8 5l8 6v149q-4 -3 -8 -5l-8 -4v-151v0zM616 768h8h8v128h-8h-8v-128v0zM232 651q4 2 8 4.5t8 5.5v145l-8 -4l-8 -4v-147v0zM136 580
q4 3 8 6.5t8 6.5v159q-4 -3 -8 -5.5t-8 -5.5v-161v0zM264 814v-144q4 2 8 4.5t8 4.5v142l-8 -4t-8 -3v0zM8 632l16 -16v35l-8 -8l-8 -8v-3v0zM104 550q4 4 8 7.5t8 7.5v165l-8 -6l-8 -6v-168v0zM296 687l8 4l8 4v139q-4 -2 -8 -3.5t-8 -2.5v-141v0zM40 600l16 -16v96
q-4 -4 -8 -7.5t-8 -7.5v-65v0zM72 568l16 -16v154q-4 -3 -8 -6.5t-8 -6.5v-125v0zM168 606l8 6l8 6v154q-4 -3 -8 -5.5t-8 -4.5v-156v0zM328 702q4 2 8 3.5t8 3.5v137q-4 -1 -8 -2.5t-8 -3.5v-138v0zM552 763q4 0 8 0.5t8 1.5v128q-4 0 -8 -0.5t-8 -0.5v-129v0zM584 766
q4 0 8 0.5t8 0.5v128h-8t-8 -1v-128v0zM488 753q4 1 8 1.5t8 1.5v130q-4 -1 -8 -1.5t-8 -1.5v-130v0zM520 759q4 0 8 1t8 1v129q-4 0 -8 -0.5t-8 -1.5v-129v0zM392 727q4 2 8 3t8 3v133q-4 -1 -8 -2.5t-8 -2.5v-134v0zM360 716q4 1 8 2.5t8 3.5v134l-8 -2t-8 -3v-135v0z
M456 746l8 2l8 2v130q-4 0 -8 -1l-8 -2v-131v0zM424 737q4 2 8 3l8 2v132l-8 -2l-8 -2v-133v0z" />
    <glyph glyph-name="uniE97E" unicode="connection&#x33;" horiz-adv-x="1280" 
d="M640 384q79 0 149 -30t122 -83l-90 -90q-35 35 -81.5 55t-99.5 20t-99.5 -20t-81.5 -55l-90 90q52 53 122 83t149 30v0v0zM576 64q0 27 18.5 45.5t45.5 18.5t45.5 -18.5t18.5 -45.5t-18.5 -45.5t-45.5 -18.5t-45.5 18.5t-18.5 45.5v0zM840 742l8 -2t8 -3v133l-8 2l-8 2
v-132v0zM808 750l8 -2l8 -2v131l-8 2t-8 1v-130v0zM936 709q4 -2 8 -3.5t8 -3.5v138q-4 2 -8 3.5t-8 2.5v-137v0zM872 733q4 -2 8 -3t8 -3v134q-4 1 -8 2.5t-8 2.5v-133v0zM904 722q4 -2 8 -3.5t8 -2.5v135q-4 2 -8 3l-8 2v-134v0zM712 765q4 -1 8 -1.5t8 -0.5v129
q-4 0 -8 0.5t-8 0.5v-128v0zM648 768h8h8v128h-8h-8v-128v0zM776 756q4 -1 8 -1.5t8 -1.5v130q-4 1 -8 1.5t-8 1.5v-130v0zM744 761q4 0 8 -1t8 -1v129q-4 1 -8 1.5t-8 0.5v-129v0zM680 767q4 0 8 -0.5t8 -0.5v128q-4 1 -8 1h-8v-128v0zM1224 584l16 16v65q-4 4 -8 7.5
t-8 7.5v-96v0zM1192 552l16 16v125q-4 3 -8 6.5t-8 6.5v-154v0zM1160 565q4 -4 8 -7.5t8 -7.5v168l-8 6l-8 6v-165v0zM1256 651v-35l16 16v3l-8 8l-8 8v0zM968 834v-139l8 -4l8 -4v141q-4 1 -8 2.5t-8 3.5v0zM1000 679q4 -2 8 -4.5t8 -4.5v144q-4 1 -8 3l-8 4v-142v0z
M1032 661q4 -3 8 -5.5t8 -4.5v147l-8 4l-8 4v-145v0zM1096 618l8 -6l8 -6v156q-4 2 -8 4.5t-8 5.5v-154v0zM1128 593q4 -3 8 -6.5t8 -6.5v161q-4 3 -8 5.5t-8 5.5v-159v0zM1064 641l8 -6t8 -5v151l-8 4t-8 5v-149v0zM200 630q4 2 8 5l8 6v149q-4 -3 -8 -5l-8 -4v-151v0z
M616 768h8h8v128h-8h-8v-128v0zM232 651q4 2 8 4.5t8 5.5v145l-8 -4l-8 -4v-147v0zM136 580q4 3 8 6.5t8 6.5v159q-4 -3 -8 -5.5t-8 -5.5v-161v0zM264 814v-144q4 2 8 4.5t8 4.5v142l-8 -4t-8 -3v0zM8 632l16 -16v35l-8 -8l-8 -8v-3v0zM104 550q4 4 8 7.5t8 7.5v165l-8 -6
l-8 -6v-168v0zM296 687l8 4l8 4v139q-4 -2 -8 -3.5t-8 -2.5v-141v0zM40 600l16 -16v96q-4 -4 -8 -7.5t-8 -7.5v-65v0zM72 568l16 -16v154q-4 -3 -8 -6.5t-8 -6.5v-125v0zM168 606l8 6l8 6v154q-4 -3 -8 -5.5t-8 -4.5v-156v0zM328 702q4 2 8 3.5t8 3.5v137q-4 -1 -8 -2.5
t-8 -3.5v-138v0zM552 763q4 0 8 0.5t8 1.5v128q-4 0 -8 -0.5t-8 -0.5v-129v0zM584 766q4 0 8 0.5t8 0.5v128h-8t-8 -1v-128v0zM488 753q4 1 8 1.5t8 1.5v130q-4 -1 -8 -1.5t-8 -1.5v-130v0zM520 759q4 0 8 1t8 1v129q-4 0 -8 -0.5t-8 -1.5v-129v0zM392 727q4 2 8 3t8 3v133
q-4 -1 -8 -2.5t-8 -2.5v-134v0zM360 716q4 1 8 2.5t8 3.5v134l-8 -2t-8 -3v-135v0zM456 746l8 2l8 2v130q-4 0 -8 -1l-8 -2v-131v0zM424 737q4 2 8 3l8 2v132l-8 -2l-8 -2v-133v0zM776 494q4 -1 8 -2.5t8 -2.5v133l-8 2l-8 2v-132v0zM808 484q4 -1 8 -2.5t8 -3.5v135
q-4 1 -8 2.5t-8 2.5v-134v0zM712 507q4 -1 8 -1.5t8 -0.5v129q-4 1 -8 1.5t-8 0.5v-129v0zM680 510q4 0 8 -0.5t8 -0.5v129h-8t-8 1v-129v0zM744 501q4 0 8 -1l8 -2v131q-4 1 -8 1.5t-8 1.5v-131v0zM840 472l8 -4l8 -4v139q-4 1 -8 2.5t-8 2.5v-136v0zM872 457q4 -2 8 -4.5
t8 -4.5v142q-4 2 -8 3.5t-8 3.5v-140v0zM1032 392l16 16v85q-4 3 -8 6.5t-8 6.5v-114v0zM1064 479v-55l16 16v25q-4 3 -8 7t-8 7v0zM1000 364q1 0 1.5 -0.5t0.5 -1.5l14 14v142l-8 6t-8 5v-165v0zM904 439q4 -3 8 -5.5t8 -4.5v147l-8 4t-8 3v-144v0zM968 393q4 -3 8 -6.5
t8 -7.5v161q-4 2 -8 4.5t-8 5.5v-157v0zM648 512h8t8 -1v129h-8h-8v-128v0zM936 418l8 -6l8 -6v153q-4 2 -8 4.5t-8 4.5v-150v0zM456 478q4 2 8 3.5t8 2.5v134q-4 -1 -8 -2.5t-8 -2.5v-135v0zM296 379q4 4 8 7.5t8 6.5v157q-4 -3 -8 -5.5t-8 -4.5v-161v0zM264 376l14 -14
q0 1 0.5 1.5t1.5 0.5v165q-4 -2 -8 -5l-8 -6v-142v0zM328 406l8 6l8 6v150q-4 -2 -8 -4.5t-8 -4.5v-153v0zM360 429q4 2 8 4.5t8 5.5v144q-4 -1 -8 -3l-8 -4v-147v0zM232 408l16 -16v114q-4 -3 -8 -6.5t-8 -6.5v-85v0zM200 440l16 -16v55q-4 -3 -8 -7t-8 -7v-25v0zM584 509
q4 0 8 0.5t8 0.5v129q-4 -1 -8 -1h-8v-129v0zM392 448q4 2 8 4.5t8 4.5v140q-4 -2 -8 -3.5t-8 -3.5v-142v0zM616 511q4 1 8 1h8v128h-8h-8v-129v0zM520 498l8 2t8 1v131q-4 -1 -8 -1.5t-8 -1.5v-131v0zM552 505q4 0 8 0.5t8 1.5v129q-4 0 -8 -0.5t-8 -1.5v-129v0zM424 464
l8 4l8 4v136q-4 -1 -8 -2.5t-8 -2.5v-139v0zM488 489q4 1 8 2.5t8 2.5v132l-8 -2l-8 -2v-133v0z" />
    <glyph glyph-name="uniE97F" unicode="connection&#x34;" horiz-adv-x="1280" 
d="M576 64q0 27 18.5 45.5t45.5 18.5t45.5 -18.5t18.5 -45.5t-18.5 -45.5t-45.5 -18.5t-45.5 18.5t-18.5 45.5v0zM840 742l8 -2t8 -3v133l-8 2l-8 2v-132v0zM808 750l8 -2l8 -2v131l-8 2t-8 1v-130v0zM936 709q4 -2 8 -3.5t8 -3.5v138q-4 2 -8 3.5t-8 2.5v-137v0zM872 733
q4 -2 8 -3t8 -3v134q-4 1 -8 2.5t-8 2.5v-133v0zM904 722q4 -2 8 -3.5t8 -2.5v135q-4 2 -8 3l-8 2v-134v0zM712 765q4 -1 8 -1.5t8 -0.5v129q-4 0 -8 0.5t-8 0.5v-128v0zM648 768h8h8v128h-8h-8v-128v0zM776 756q4 -1 8 -1.5t8 -1.5v130q-4 1 -8 1.5t-8 1.5v-130v0zM744 761
q4 0 8 -1t8 -1v129q-4 1 -8 1.5t-8 0.5v-129v0zM680 767q4 0 8 -0.5t8 -0.5v128q-4 1 -8 1h-8v-128v0zM1224 584l16 16v65q-4 4 -8 7.5t-8 7.5v-96v0zM1192 552l16 16v125q-4 3 -8 6.5t-8 6.5v-154v0zM1160 565q4 -4 8 -7.5t8 -7.5v168l-8 6l-8 6v-165v0zM1256 651v-35
l16 16v3l-8 8l-8 8v0zM968 834v-139l8 -4l8 -4v141q-4 1 -8 2.5t-8 3.5v0zM1000 679q4 -2 8 -4.5t8 -4.5v144q-4 1 -8 3l-8 4v-142v0zM1032 661q4 -3 8 -5.5t8 -4.5v147l-8 4l-8 4v-145v0zM1096 618l8 -6l8 -6v156q-4 2 -8 4.5t-8 5.5v-154v0zM1128 593q4 -3 8 -6.5t8 -6.5
v161q-4 3 -8 5.5t-8 5.5v-159v0zM1064 641l8 -6t8 -5v151l-8 4t-8 5v-149v0zM200 630q4 2 8 5l8 6v149q-4 -3 -8 -5l-8 -4v-151v0zM616 768h8h8v128h-8h-8v-128v0zM232 651q4 2 8 4.5t8 5.5v145l-8 -4l-8 -4v-147v0zM136 580q4 3 8 6.5t8 6.5v159q-4 -3 -8 -5.5t-8 -5.5
v-161v0zM264 814v-144q4 2 8 4.5t8 4.5v142l-8 -4t-8 -3v0zM8 632l16 -16v35l-8 -8l-8 -8v-3v0zM104 550q4 4 8 7.5t8 7.5v165l-8 -6l-8 -6v-168v0zM296 687l8 4l8 4v139q-4 -2 -8 -3.5t-8 -2.5v-141v0zM40 600l16 -16v96q-4 -4 -8 -7.5t-8 -7.5v-65v0zM72 568l16 -16v154
q-4 -3 -8 -6.5t-8 -6.5v-125v0zM168 606l8 6l8 6v154q-4 -3 -8 -5.5t-8 -4.5v-156v0zM328 702q4 2 8 3.5t8 3.5v137q-4 -1 -8 -2.5t-8 -3.5v-138v0zM552 763q4 0 8 0.5t8 1.5v128q-4 0 -8 -0.5t-8 -0.5v-129v0zM584 766q4 0 8 0.5t8 0.5v128h-8t-8 -1v-128v0zM488 753
q4 1 8 1.5t8 1.5v130q-4 -1 -8 -1.5t-8 -1.5v-130v0zM520 759q4 0 8 1t8 1v129q-4 0 -8 -0.5t-8 -1.5v-129v0zM392 727q4 2 8 3t8 3v133q-4 -1 -8 -2.5t-8 -2.5v-134v0zM360 716q4 1 8 2.5t8 3.5v134l-8 -2t-8 -3v-135v0zM456 746l8 2l8 2v130q-4 0 -8 -1l-8 -2v-131v0z
M424 737q4 2 8 3l8 2v132l-8 -2l-8 -2v-133v0zM776 494q4 -1 8 -2.5t8 -2.5v133l-8 2l-8 2v-132v0zM808 484q4 -1 8 -2.5t8 -3.5v135q-4 1 -8 2.5t-8 2.5v-134v0zM712 507q4 -1 8 -1.5t8 -0.5v129q-4 1 -8 1.5t-8 0.5v-129v0zM680 510q4 0 8 -0.5t8 -0.5v129h-8t-8 1v-129v0
zM744 501q4 0 8 -1l8 -2v131q-4 1 -8 1.5t-8 1.5v-131v0zM840 472l8 -4l8 -4v139q-4 1 -8 2.5t-8 2.5v-136v0zM872 457q4 -2 8 -4.5t8 -4.5v142q-4 2 -8 3.5t-8 3.5v-140v0zM1032 392l16 16v85q-4 3 -8 6.5t-8 6.5v-114v0zM1064 479v-55l16 16v25q-4 3 -8 7t-8 7v0z
M1000 364q1 0 1.5 -0.5t0.5 -1.5l14 14v142l-8 6t-8 5v-165v0zM904 439q4 -3 8 -5.5t8 -4.5v147l-8 4t-8 3v-144v0zM968 393q4 -3 8 -6.5t8 -7.5v161q-4 2 -8 4.5t-8 5.5v-157v0zM648 512h8t8 -1v129h-8h-8v-128v0zM936 418l8 -6l8 -6v153q-4 2 -8 4.5t-8 4.5v-150v0z
M456 478q4 2 8 3.5t8 2.5v134q-4 -1 -8 -2.5t-8 -2.5v-135v0zM296 379q4 4 8 7.5t8 6.5v157q-4 -3 -8 -5.5t-8 -4.5v-161v0zM264 376l14 -14q0 1 0.5 1.5t1.5 0.5v165q-4 -2 -8 -5l-8 -6v-142v0zM328 406l8 6l8 6v150q-4 -2 -8 -4.5t-8 -4.5v-153v0zM360 429q4 2 8 4.5
t8 5.5v144q-4 -1 -8 -3l-8 -4v-147v0zM232 408l16 -16v114q-4 -3 -8 -6.5t-8 -6.5v-85v0zM200 440l16 -16v55q-4 -3 -8 -7t-8 -7v-25v0zM584 509q4 0 8 0.5t8 0.5v129q-4 -1 -8 -1h-8v-129v0zM392 448q4 2 8 4.5t8 4.5v140q-4 -2 -8 -3.5t-8 -3.5v-142v0zM616 511q4 1 8 1h8
v128h-8h-8v-129v0zM520 498l8 2t8 1v131q-4 -1 -8 -1.5t-8 -1.5v-131v0zM552 505q4 0 8 0.5t8 1.5v129q-4 0 -8 -0.5t-8 -1.5v-129v0zM424 464l8 4l8 4v136q-4 -1 -8 -2.5t-8 -2.5v-139v0zM488 489q4 1 8 2.5t8 2.5v132l-8 -2l-8 -2v-133v0zM648 256q4 0 8 -0.5t8 -0.5v128
q-4 0 -8 0.5t-8 0.5v-128v0zM712 246q4 -2 8 -3t8 -3v134q-4 1 -8 1.5t-8 1.5v-131v0zM680 253q4 -1 8 -1.5t8 -1.5v130q-4 0 -8 1t-8 1v-129v0zM776 217q4 -3 8 -5.5t8 -5.5v147q-4 1 -8 3t-8 3v-142v0zM744 234l8 -4l8 -4v139q-4 1 -8 2.5t-8 2.5v-136v0zM808 193
q3 -3 6.5 -6t6.5 -6l3 3v153l-8 4l-8 4v-152v0zM904 279v-15l7 7q-1 2 -3 4l-4 4v0zM872 232l16 16v45q-4 3 -8 6.5t-8 6.5v-74v0zM840 200l16 16v101q-4 3 -8 5.5t-8 5.5v-128v0zM616 255q4 0 8 0.5t8 0.5v128q-4 0 -8 -0.5t-8 -0.5v-128v0zM424 216l16 -16v128
q-4 -3 -8 -5.5t-8 -5.5v-101v0zM584 250q4 1 8 1.5t8 1.5v129q-4 0 -8 -1t-8 -1v-130v0zM376 264v15l-4 -4t-3 -4l7 -7v0zM456 184l3 -3q3 3 6.5 6t6.5 6v152l-8 -4l-8 -4v-153v0zM392 248l16 -16v74q-4 -3 -8 -6.5t-8 -6.5v-45v0zM488 206q4 3 8 5.5t8 5.5v142q-4 -1 -8 -3
t-8 -3v-147v0zM552 240q4 2 8 3t8 3v131q-4 -1 -8 -1.5t-8 -1.5v-134v0zM520 226l8 4l8 4v136q-4 -1 -8 -2.5t-8 -2.5v-139v0z" />
    <glyph glyph-name="uniE980" unicode="broadcast" 
d="M1024 448q0 106 -40 199.5t-109.5 163t-163 109.5t-199.5 40t-199.5 -40t-163 -109.5t-109.5 -163t-40 -199.5q0 -83 24.5 -158t69 -137.5t106 -110t134.5 -74.5l-14 -32h384l-14 32q73 27 134.5 74.5t106 110t69 137.5t24.5 158v0zM487 325q-17 8 -28 23.5t-11 35.5
q0 27 18.5 45.5t45.5 18.5t45.5 -18.5t18.5 -45.5q0 -20 -11 -35.5t-28 -23.5l-25 59l-25 -59v0zM538 323q44 9 73 44t29 81q0 53 -37.5 90.5t-90.5 37.5t-90.5 -37.5t-37.5 -90.5q0 -46 29 -81t73 -44l-75 -174q-68 29 -111.5 92.5t-43.5 142.5q0 53 20 101.5t55 85.5
t81.5 59t99.5 22t99.5 -22t81.5 -59t55 -85.5t20 -101.5q0 -79 -43.5 -142.5t-111.5 -92.5l-75 174v0zM688 -28l-73 173q47 16 87 45.5t69 69t45 87.5t16 101q0 66 -25 124.5t-68.5 102t-102 68.5t-124.5 25t-124.5 -25t-102 -68.5t-68.5 -102t-25 -124.5q0 -53 16 -101
t45 -87.5t69 -69t87 -45.5l-73 -173q-60 26 -110 67.5t-86 95t-56 117t-20 132.5q0 93 35.5 176.5t96 146.5t142 100t174.5 37t174.5 -37t142 -100t96 -146.5t35.5 -176.5q0 -69 -20 -132.5t-56 -117t-86 -95t-110 -67.5v0z" />
    <glyph glyph-name="uniE981" unicode="radio" 
d="M640 640q0 53 -37.5 90.5t-90.5 37.5t-90.5 -37.5t-37.5 -90.5q0 -34 16.5 -62.5t42.5 -45.5l-162 -596h78l18 64h270l18 -64h78l-162 596q26 17 42.5 45.5t16.5 62.5v0zM595 192h-166l18 64h130l18 -64v0zM464 320l48 176l48 -176h-96v0zM394 64l18 64h200l18 -64h-236
v0zM664 921q38 -20 69 -49.5t53 -65.5t34 -78t12 -88t-12 -88t-34 -78t-53 -65.5t-69 -49.5q33 52 52.5 125t19.5 156t-19.5 156t-52.5 125v0zM856 921q38 -20 69 -49.5t53 -65.5t34 -78t12 -88t-12 -88t-34 -78t-53 -65.5t-69 -49.5q33 52 52.5 125t19.5 156t-19.5 156
t-52.5 125v0zM360 359q-38 20 -69 49.5t-53 65.5t-34 78t-12 88t12 88t34 78t53 65.5t69 49.5q-33 -52 -52.5 -125t-19.5 -156t19.5 -156t52.5 -125v0zM0 640q0 46 12 88t34 78t53 65.5t69 49.5q-33 -52 -52.5 -125t-19.5 -156t19.5 -156t52.5 -125q-38 20 -69 49.5
t-53 65.5t-34 78t-12 88v0z" />
    <glyph glyph-name="uniE982" unicode="radio&#x32;" 
d="M200 234l41 90q-33 29 -60 64t-46 75.5t-29 85t-10 91.5q0 74 24.5 140t66.5 120l-75 60q-27 -34 -48 -71.5t-35 -78t-21.5 -83.5t-7.5 -87q0 -51 10 -100.5t29 -95.5t47 -88t64 -78q12 -12 24.5 -23t25.5 -21v0zM783 324l41 -90q13 10 25.5 21t24.5 23q36 36 64 78
t47 88t29 95.5t10 100.5q0 44 -7.5 87t-21.5 83.5t-35 78t-48 71.5l-75 -60q42 -54 66.5 -120t24.5 -140q0 -47 -10 -91.5t-29 -85t-46 -75.5t-60 -64v0zM704 497l44 -96l0.5 0.5t1.5 0.5q45 46 69.5 103t27.5 117.5t-15 119.5t-58 108l-75 -60q26 -32 39 -69.5t13.5 -76.5
t-11 -77t-36.5 -70v0zM274 402q1 0 1.5 -0.5l0.5 -0.5l44 96q-25 32 -36.5 70t-11 77t13.5 76.5t39 69.5l-75 60q-40 -49 -58 -108t-15 -119.5t27.5 -117.5t69.5 -103v0zM640 640q0 53 -37.5 90.5t-90.5 37.5t-90.5 -37.5t-37.5 -90.5q0 -28 11 -52.5t30 -41.5l-277 -610
h106l58 128h400l58 -128h106l-277 610q19 17 30 41.5t11 52.5v0zM512 504l84 -184h-168l84 184v0zM683 128h-342l58 128h226l58 -128v0z" />
    <glyph glyph-name="uniE983" unicode="antenna" 
d="M716 196q-10 0 -18.5 3.5t-15.5 10.5q-14 14 -14 34t14 34q35 35 52.5 79.5t17.5 90.5t-17.5 90.5t-52.5 79.5t-79.5 52.5t-90.5 17.5t-90.5 -17.5t-79.5 -52.5q-34 -34 -52 -78t-18 -92t18 -92t52 -78q14 -14 14 -34t-14 -34t-34 -14t-34 14q-47 48 -72.5 109.5
t-25.5 128.5t25.5 128.5t72.5 109.5q50 49 111.5 73.5t126.5 24.5t126.5 -24.5t111.5 -73.5q49 -50 73.5 -111.5t24.5 -126.5t-24.5 -126.5t-73.5 -111.5q-7 -7 -16 -10.5t-18 -3.5v0v0zM840 72q-9 0 -18 3.5t-16 10.5q-14 14 -14 34t14 34q61 61 91.5 137.5t30.5 156.5
t-30.5 156.5t-91.5 137.5t-137.5 91.5t-156.5 30.5t-156.5 -30.5t-137.5 -91.5t-91.5 -137.5t-30.5 -156.5t30.5 -156.5t91.5 -137.5q14 -14 14 -34t-14 -34t-34 -14t-34 14q-36 36 -64 78t-47 88t-29 95.5t-10 100.5t10 100.5t29 95.5t47 88t64 78t78 64t88 47t95.5 29
t100.5 10t100.5 -10t95.5 -29t88 -47t78 -64t64 -78t47 -88t29 -95.5t10 -100.5t-10 -100.5t-29 -95.5t-47 -88t-64 -78q-7 -7 -16 -10.5t-18 -3.5v0v0zM608 0h-32v337q29 17 46.5 46t17.5 65q0 53 -37.5 90.5t-90.5 37.5t-90.5 -37.5t-37.5 -90.5q0 -36 17.5 -65t46.5 -46
v-337h-32q-13 0 -22.5 -9.5t-9.5 -22.5t9.5 -22.5t22.5 -9.5h192q13 0 22.5 9.5t9.5 22.5t-9.5 22.5t-22.5 9.5v0z" />
    <glyph glyph-name="uniE984" unicode="satellite&#x2d;dish" 
d="M1022 920q3 8 1.5 16.5t-8.5 14.5q-6 7 -14.5 8.5t-16.5 -1.5v0l-351 -125q-17 12 -33 22t-32 19q-54 30 -103.5 45.5t-90.5 15.5q-33 0 -59.5 -10t-46.5 -29q-9 -9 -16.5 -20.5t-12.5 -24.5q-22 -49 -34.5 -103t-12.5 -112q0 -105 40 -197.5t109 -161.5t161.5 -109
t197.5 -40q58 0 112 12.5t103 35.5q13 5 24.5 12t20.5 16q37 37 39.5 97t-29.5 136q-13 32 -31.5 65t-41.5 67l125 351v0zM772 394q-4 -12 1 -23t17 -15q2 -1 4.5 -1.5t5.5 -0.5q9 0 17 5.5t11 14.5l42 117q13 -20 23.5 -40.5t18.5 -40.5q20 -50 23 -88.5t-14 -54.5
q-7 -7 -18 -10.5t-27 -3.5q-28 0 -66.5 12t-85 37.5t-98 64t-104.5 91.5q-31 31 -58.5 63.5t-50.5 65.5t-41.5 65t-30.5 63q-21 50 -23.5 88t13.5 54q7 7 18.5 10.5t26.5 3.5q32 0 78.5 -16t101.5 -49l-118 -42q-12 -4 -17 -15t-1 -23t15 -17t23 -1l421 149l-292 -292
q-9 -9 -9 -21t9 -21q4 -5 9.5 -7t11.5 -2t11.5 2t9.5 7l292 292l-149 -421v0zM576 -32v32q0 12 -1.5 23.5t-4.5 22.5q-72 16 -138.5 49t-123.5 81q-51 -22 -83.5 -69.5t-32.5 -106.5v-32q0 -13 9.5 -22.5t22.5 -9.5h320q13 0 22.5 9.5t9.5 22.5v0z" />
    <glyph glyph-name="uniE985" unicode="satellite&#x2d;dish&#x32;" 
d="M960 960q-27 0 -45.5 -18.5t-18.5 -45.5q0 -8 2 -16t6 -15l-352 -252q26 -36 57.5 -67.5t67.5 -57.5l252 352q7 -4 15 -6t16 -2q27 0 45.5 18.5t18.5 45.5t-18.5 45.5t-45.5 18.5v0zM862 616l-39 -55q29 -39 51.5 -77t37.5 -74q20 -50 23 -88.5t-14 -54.5
q-7 -7 -18 -10.5t-27 -3.5q-28 0 -66.5 12t-85 37.5t-98 64t-104.5 91.5q-31 31 -58.5 63.5t-50.5 65.5t-41.5 65t-30.5 63q-21 50 -23.5 88t13.5 54q7 7 18.5 10.5t26.5 3.5q42 0 107 -27t142 -85l55 39q-28 22 -56 41t-56 35q-54 30 -103.5 45.5t-90.5 15.5
q-33 0 -59.5 -10t-46.5 -29q-9 -9 -16.5 -20.5t-12.5 -24.5q-22 -49 -34.5 -103t-12.5 -112q0 -105 40 -197.5t109 -161.5t161.5 -109t197.5 -40q58 0 112 12.5t103 35.5q13 5 24.5 12t20.5 16q37 37 39.5 97t-29.5 136q-17 44 -44.5 89t-63.5 90v0zM576 -32v32
q0 12 -1.5 23.5t-4.5 22.5q-72 16 -138.5 49t-123.5 81q-51 -22 -83.5 -69.5t-32.5 -106.5v-32q0 -13 9.5 -22.5t22.5 -9.5h320q13 0 22.5 9.5t9.5 22.5v0z" />
    <glyph glyph-name="uniE986" unicode="feed" 
d="M384 448q0 53 37.5 90.5t90.5 37.5t90.5 -37.5t37.5 -90.5t-37.5 -90.5t-90.5 -37.5t-90.5 37.5t-37.5 90.5v0zM664 729q38 -20 69 -49.5t53 -65.5t34 -78t12 -88t-12 -88t-34 -78t-53 -65.5t-69 -49.5q33 52 52.5 125t19.5 156t-19.5 156t-52.5 125v0zM288 448
q0 -83 19.5 -156t52.5 -125q-38 20 -69 49.5t-53 65.5t-34 78t-12 88t12 88t34 78t53 65.5t69 49.5q-33 -52 -52.5 -125t-19.5 -156v0zM96 448q0 -64 10 -125t28 -116t44 -103t59 -88q-54 34 -97.5 80.5t-74.5 102t-48 118.5t-17 131t17 131t48 118.5t74.5 102t97.5 80.5
q-33 -40 -59 -88t-44 -103t-28 -116t-10 -125v0zM787 880q54 -34 97.5 -80.5t74.5 -102t48 -118.5t17 -131t-17 -131t-48 -118.5t-74.5 -102t-97.5 -80.5q33 40 59 88t44 103t28 116t10 125t-10 125t-28 116t-44 103t-59 88v0z" />
    <glyph glyph-name="uniE987" unicode="broadcast&#x32;" 
d="M512 960q-106 0 -199.5 -40t-163 -109.5t-109.5 -163t-40 -199.5q0 -53 10.5 -103t30 -96t47 -87t62.5 -76l45 45q-30 31 -54.5 66.5t-41.5 76t-26 84.5t-9 90q0 93 35 174.5t96 142.5t142.5 96t174.5 35t174.5 -35t142.5 -96t96 -142.5t35 -174.5q0 -46 -9 -90
t-26 -84.5t-41.5 -76t-54.5 -66.5l45 -45q35 35 62.5 76t47 87t30 96t10.5 103q0 106 -40 199.5t-109.5 163t-163 109.5t-199.5 40v0zM512 768q-66 0 -124.5 -25t-102 -68.5t-68.5 -102t-25 -124.5t25 -124.5t69 -101.5l45 45q-35 35 -55 81.5t-20 99.5t20 99.5t55 81.5
t81.5 55t99.5 20t99.5 -20t81.5 -55t55 -81.5t20 -99.5t-20 -99.5t-55 -81.5l45 -45q44 43 69 101.5t25 124.5t-25 124.5t-68.5 102t-102 68.5t-124.5 25v0v0zM603 357q17 18 27 41t10 50q0 53 -37.5 90.5t-90.5 37.5t-90.5 -37.5t-37.5 -90.5q0 -27 10 -50t27 -41l46 46
q-9 8 -14 20t-5 25q0 27 18.5 45.5t45.5 18.5t45.5 -18.5t18.5 -45.5q0 -13 -5 -25t-14 -20l46 -46v0zM488 384l-168 -448h384l-168 448h-48v0z" />
    <glyph glyph-name="uniE988" unicode="antenna&#x32;" 
d="M320 -64h384l-128 128v465q29 17 46.5 46t17.5 65q0 53 -37.5 90.5t-90.5 37.5t-90.5 -37.5t-37.5 -90.5q0 -36 17.5 -65t46.5 -46v-465l-128 -128v0zM712 800q26 -33 41 -74t15 -86t-15 -86t-41 -74l50 -40q33 41 51.5 92t18.5 108t-18.5 108t-51.5 92l-50 -40v0z
M262 840q-33 -41 -51.5 -92t-18.5 -108t18.5 -108t51.5 -92l50 40q-26 33 -41 74t-15 86t15 86t41 74l-50 40v0zM112 960q-26 -33 -47 -70t-35.5 -77.5t-22 -84t-7.5 -88.5t7.5 -88.5t22 -84t35.5 -77.5t47 -70l50 40q-46 58 -72 129.5t-26 150.5t26 150.5t72 129.5l-50 40
v0zM912 960l-50 -40q46 -58 72 -129.5t26 -150.5t-26 -150.5t-72 -129.5l50 -40q26 33 47 70t35.5 77.5t22 84t7.5 88.5t-7.5 88.5t-22 84t-35.5 77.5t-47 70v0z" />
    <glyph glyph-name="uniE989" unicode="microphone" 
d="M480 256q66 0 113 47t47 113v384q0 66 -47 113t-113 47t-113 -47t-47 -113v-384q0 -66 47 -113t113 -47v0zM704 512v-96q0 -46 -17.5 -87t-48 -71.5t-71.5 -48t-87 -17.5t-87 17.5t-71.5 48t-48 71.5t-17.5 87v96h-64v-96q0 -56 20 -105t54.5 -87.5t81 -63t100.5 -30.5
v-130h-128v-64h320v64h-128v130q54 6 100.5 30.5t81 63t54.5 87.5t20 105v96h-64v0z" />
    <glyph glyph-name="uniE98A" unicode="microphone&#x32;" 
d="M640 800q0 66 -47 113t-113 47t-113 -47t-47 -113v-344l320 320v24v0zM257 393q0 6 -0.5 11.5t-0.5 11.5v96h-64v-96q0 -20 2.5 -39.5t8.5 -38.5l54 55v0zM704 416q0 -46 -17.5 -87t-48 -71.5t-71.5 -48t-87 -17.5q-50 0 -93.5 20.5t-73.5 54.5l45 46q22 -26 53.5 -41.5
t68.5 -15.5q66 0 113 47t47 113v179l257 256l-46 46l-211 -212l-638 -640l45 -46l220 223q35 -38 81 -62t100 -30v-130h-128v-64h320v64h-128v130q54 6 100.5 30.5t81 63t54.5 87.5t20 105v96h-64v-96v0z" />
    <glyph glyph-name="uniE98B" unicode="microphone&#x33;" 
d="M896 512v9.5v9.5q-1 20 -16 33t-35 12t-33 -15.5t-12 -34.5v-6.5v-7.5q0 -60 -22.5 -112.5t-62 -91.5t-91.5 -61.5t-112 -22.5t-112 22.5t-91.5 61.5t-62 91.5t-22.5 112.5v7.5v6.5q1 20 -12 34.5t-33 15.5t-35 -12t-16 -33v-9.5v-9.5q0 -71 24.5 -135t67.5 -114.5
t101.5 -84t126.5 -45.5v-133q0 -27 18.5 -45.5t45.5 -18.5t45.5 18.5t18.5 45.5v133q68 12 126.5 45.5t101.5 84t67.5 114.5t24.5 135v0zM512 960q-80 0 -136 -56t-56 -136v-256q0 -80 56 -136t136 -56t136 56t56 136v256q0 80 -56 136t-136 56v0z" />
    <glyph glyph-name="uniE98C" unicode="microphone&#x34;" 
d="M687 847q-23 50 -70 81.5t-105 31.5q-80 0 -136 -56t-56 -136v-256q0 -8 0.5 -15t1.5 -15l365 365v0zM245 405q-10 25 -15.5 52t-5.5 55v7.5v6.5q1 20 -12 34.5t-33 15.5t-35 -12t-16 -33v-9.5v-9.5q0 -49 11.5 -94t33.5 -85l72 72v0zM845 576q-20 -1 -33 -15.5
t-12 -34.5v-6.5v-7.5q0 -60 -22.5 -112.5t-62 -91.5t-91.5 -61.5t-112 -22.5q-41 0 -79 11t-71 31l71 71q18 -8 38 -12.5t41 -4.5q80 0 136 56t56 136v96l288 288l-64 64l-928 -928l64 -64l229 229q34 -24 73 -40.5t82 -23.5v-133q0 -27 18.5 -45.5t45.5 -18.5t45.5 18.5
t18.5 45.5v133q68 12 126.5 45.5t101.5 84t67.5 114.5t24.5 135v9.5v9.5q-1 20 -16 33t-35 12v0z" />
    <glyph glyph-name="uniE98D" unicode="microphone&#x35;" 
d="M896 512v9.5v9.5q-1 20 -16 33t-35 12t-33 -15.5t-12 -34.5v-6.5v-7.5q0 -60 -22.5 -112.5t-62 -91.5t-91.5 -61.5t-112 -22.5t-112 22.5t-91.5 61.5t-62 91.5t-22.5 112.5v7.5v6.5q1 20 -12 34.5t-33 15.5t-35 -12t-16 -33v-9.5v-9.5q0 -71 24.5 -135t67.5 -114.5
t101.5 -84t126.5 -45.5v-133q0 -27 18.5 -45.5t45.5 -18.5t45.5 18.5t18.5 45.5v133q68 12 126.5 45.5t101.5 84t67.5 114.5t24.5 135v0zM512 864q40 0 68 -28t28 -68v-256q0 -40 -28 -68t-68 -28t-68 28t-28 68v256q0 40 28 68t68 28v0zM512 960q-80 0 -136 -56t-56 -136
v-256q0 -80 56 -136t136 -56t136 56t56 136v256q0 80 -56 136t-136 56v0v0z" />
    <glyph glyph-name="uniE98E" unicode="microphone&#x36;" 
d="M256 384q0 -53 37.5 -90.5t90.5 -37.5h256q53 0 90.5 37.5t37.5 90.5v192h-512v-192v0zM928 640h-128q-13 0 -22.5 -9.5t-9.5 -22.5t9.5 -22.5t22.5 -9.5h32v-192q0 -79 -56.5 -135.5t-135.5 -56.5h-256q-79 0 -135.5 56.5t-56.5 135.5v192h32q13 0 22.5 9.5t9.5 22.5
t-9.5 22.5t-22.5 9.5h-128q-13 0 -22.5 -9.5t-9.5 -22.5t9.5 -22.5t22.5 -9.5h32v-192q0 -53 20 -99.5t55 -81.5t81.5 -55t99.5 -20h64v-128h-96q-13 0 -22.5 -9.5t-9.5 -22.5t9.5 -22.5t22.5 -9.5h320q13 0 22.5 9.5t9.5 22.5t-9.5 22.5t-22.5 9.5h-96v128h64q53 0 99.5 20
t81.5 55t55 81.5t20 99.5v192h32q13 0 22.5 9.5t9.5 22.5t-9.5 22.5t-22.5 9.5v0zM640 960h-256q-53 0 -90.5 -37.5t-37.5 -90.5v-192h512v192q0 53 -37.5 90.5t-90.5 37.5v0zM352 720q-7 0 -11.5 4.5t-4.5 11.5t4.5 11.5t11.5 4.5t11.5 -4.5t4.5 -11.5t-4.5 -11.5
t-11.5 -4.5v0zM352 784q-7 0 -11.5 4.5t-4.5 11.5t4.5 11.5t11.5 4.5t11.5 -4.5t4.5 -11.5t-4.5 -11.5t-11.5 -4.5v0zM352 848q-7 0 -11.5 4.5t-4.5 11.5t4.5 11.5t11.5 4.5t11.5 -4.5t4.5 -11.5t-4.5 -11.5t-11.5 -4.5v0zM416 720q-7 0 -11.5 4.5t-4.5 11.5t4.5 11.5
t11.5 4.5t11.5 -4.5t4.5 -11.5t-4.5 -11.5t-11.5 -4.5v0zM416 784q-7 0 -11.5 4.5t-4.5 11.5t4.5 11.5t11.5 4.5t11.5 -4.5t4.5 -11.5t-4.5 -11.5t-11.5 -4.5v0zM416 848q-7 0 -11.5 4.5t-4.5 11.5t4.5 11.5t11.5 4.5t11.5 -4.5t4.5 -11.5t-4.5 -11.5t-11.5 -4.5v0zM480 720
q-7 0 -11.5 4.5t-4.5 11.5t4.5 11.5t11.5 4.5t11.5 -4.5t4.5 -11.5t-4.5 -11.5t-11.5 -4.5v0zM480 784q-7 0 -11.5 4.5t-4.5 11.5t4.5 11.5t11.5 4.5t11.5 -4.5t4.5 -11.5t-4.5 -11.5t-11.5 -4.5v0zM480 848q-7 0 -11.5 4.5t-4.5 11.5t4.5 11.5t11.5 4.5t11.5 -4.5
t4.5 -11.5t-4.5 -11.5t-11.5 -4.5v0zM544 720q-7 0 -11.5 4.5t-4.5 11.5t4.5 11.5t11.5 4.5t11.5 -4.5t4.5 -11.5t-4.5 -11.5t-11.5 -4.5v0zM544 784q-7 0 -11.5 4.5t-4.5 11.5t4.5 11.5t11.5 4.5t11.5 -4.5t4.5 -11.5t-4.5 -11.5t-11.5 -4.5v0zM544 848q-7 0 -11.5 4.5
t-4.5 11.5t4.5 11.5t11.5 4.5t11.5 -4.5t4.5 -11.5t-4.5 -11.5t-11.5 -4.5v0zM608 720q-7 0 -11.5 4.5t-4.5 11.5t4.5 11.5t11.5 4.5t11.5 -4.5t4.5 -11.5t-4.5 -11.5t-11.5 -4.5v0zM608 784q-7 0 -11.5 4.5t-4.5 11.5t4.5 11.5t11.5 4.5t11.5 -4.5t4.5 -11.5t-4.5 -11.5
t-11.5 -4.5v0zM608 848q-7 0 -11.5 4.5t-4.5 11.5t4.5 11.5t11.5 4.5t11.5 -4.5t4.5 -11.5t-4.5 -11.5t-11.5 -4.5v0zM672 720q-7 0 -11.5 4.5t-4.5 11.5t4.5 11.5t11.5 4.5t11.5 -4.5t4.5 -11.5t-4.5 -11.5t-11.5 -4.5v0zM672 784q-7 0 -11.5 4.5t-4.5 11.5t4.5 11.5
t11.5 4.5t11.5 -4.5t4.5 -11.5t-4.5 -11.5t-11.5 -4.5v0zM672 848q-7 0 -11.5 4.5t-4.5 11.5t4.5 11.5t11.5 4.5t11.5 -4.5t4.5 -11.5t-4.5 -11.5t-11.5 -4.5v0z" />
    <glyph glyph-name="uniE98F" unicode="microphone&#x37;" 
d="M458 624l-458 -560q0 -48 40 -88t88 -40l560 458q-42 11 -79 32.5t-67 51.5t-51.5 67t-32.5 79v0zM583 881q-33 -35 -52 -80.5t-19 -96.5q0 -53 20 -99.5t55 -81.5t81.5 -55t99.5 -20q51 0 96.5 19t80.5 52q-69 12 -129.5 44.5t-108 80t-80 108t-44.5 129.5v0zM768 960
q-35 0 -67 -8.5t-60 -24.5q6 -70 35.5 -131t76 -107.5t107.5 -76t131 -35.5q16 28 24.5 60t8.5 67q0 53 -20 99.5t-55 81.5t-81.5 55t-99.5 20v0zM864 896q13 0 22.5 -9.5t9.5 -22.5t-9.5 -22.5t-22.5 -9.5t-22.5 9.5t-9.5 22.5t9.5 22.5t22.5 9.5v0zM736 832
q-13 0 -22.5 9.5t-9.5 22.5t9.5 22.5t22.5 9.5t22.5 -9.5t9.5 -22.5t-9.5 -22.5t-22.5 -9.5v0zM800 768q-13 0 -22.5 9.5t-9.5 22.5t9.5 22.5t22.5 9.5t22.5 -9.5t9.5 -22.5t-9.5 -22.5t-22.5 -9.5v0zM864 704q-13 0 -22.5 9.5t-9.5 22.5t9.5 22.5t22.5 9.5t22.5 -9.5
t9.5 -22.5t-9.5 -22.5t-22.5 -9.5v0zM928 640q-13 0 -22.5 9.5t-9.5 22.5t9.5 22.5t22.5 9.5t22.5 -9.5t9.5 -22.5t-9.5 -22.5t-22.5 -9.5v0zM928 768q-13 0 -22.5 9.5t-9.5 22.5t9.5 22.5t22.5 9.5t22.5 -9.5t9.5 -22.5t-9.5 -22.5t-22.5 -9.5v0z" />
    <glyph glyph-name="uniE990" unicode="book" 
d="M1017 729q-38 48 -105 75.5t-144 27.5t-144 -27.5t-105 -75.5q-3 -4 -5 -9t-2 -11q0 6 -2 11t-5 9q-38 48 -105 75.5t-144 27.5t-144 -27.5t-105 -75.5q-3 -4 -5 -9t-2 -11v-640q0 -10 6 -18.5t15 -11.5q10 -3 20 -0.5t16 10.5q29 37 82.5 58t116.5 21t116.5 -21
t82.5 -58q5 -6 11.5 -9t13.5 -3h64q7 0 13.5 3t11.5 9q29 37 82.5 58t116.5 21t116.5 -21t82.5 -58q6 -8 16 -10.5t20 0.5q9 3 15 11.5t6 18.5v640q0 6 -2 11t-5 9v0zM448 139q-39 25 -88.5 39t-103.5 14t-103.5 -14t-88.5 -39v558q31 33 82 52t110 19t110 -19t82 -52v-558
v0zM960 139q-39 25 -88.5 39t-103.5 14t-103.5 -14t-88.5 -39v558q31 33 82 52t110 19t110 -19t82 -52v-558v0zM640 640h256v-64h-256v64v0zM640 512h256v-64h-256v64v0zM640 384h192v-64h-192v64v0zM128 640h256v-64h-256v64v0zM128 512h256v-64h-256v64v0zM128 384h192
v-64h-192v64v0z" />
    <glyph glyph-name="uniE991" unicode="book&#x32;" 
d="M1017 729q-38 48 -105 75.5t-144 27.5t-144 -27.5t-105 -75.5q-3 -4 -5 -9t-2 -11q0 6 -2 11t-5 9q-38 48 -105 75.5t-144 27.5t-144 -27.5t-105 -75.5q-3 -4 -5 -9t-2 -11v-640q0 -10 6 -18.5t15 -11.5q10 -3 20 -0.5t16 10.5q29 37 82.5 58t116.5 21t116.5 -21
t82.5 -58q5 -6 11.5 -9t13.5 -3h64q7 0 13.5 3t11.5 9q29 37 82.5 58t116.5 21t116.5 -21t82.5 -58q6 -8 16 -10.5t20 0.5q9 3 15 11.5t6 18.5v640q0 6 -2 11t-5 9v0zM448 139q-39 25 -88.5 39t-103.5 14t-103.5 -14t-88.5 -39v558q31 33 82 52t110 19t110 -19t82 -52v-558
v0zM960 139q-39 25 -88.5 39t-103.5 14t-103.5 -14t-88.5 -39v558q31 33 82 52t110 19t110 -19t82 -52v-558v0z" />
    <glyph glyph-name="uniE992" unicode="book&#x33;" 
d="M384 608l320 -192l-320 -192v384v0zM512 -15q-7 0 -13.5 3.5t-11.5 8.5q-28 35 -97 67t-134 32q-63 0 -116.5 -21t-82.5 -58q-6 -8 -16 -10.5t-20 0.5q-9 3 -15 11.5t-6 18.5v672q0 6 2 11t5 9q38 48 105 75.5t144 27.5q70 0 141 -29.5t115 -67.5q44 38 115 67.5
t141 29.5q77 0 144 -27.5t105 -75.5q3 -4 5 -9t2 -11v-672q0 -10 -6 -18.5t-15 -11.5q-10 -3 -20 -0.5t-16 10.5q-29 37 -82.5 58t-116.5 21q-65 0 -134 -32t-97 -67q-5 -5 -11.5 -8.5t-13.5 -3.5v0zM256 160q70 0 141 -29.5t115 -67.5q44 38 115 67.5t141 29.5
q54 0 103.5 -14t88.5 -39v590q-31 33 -82 52t-110 19q-65 0 -134 -32t-97 -67q-5 -5 -11.5 -8.5t-13.5 -3.5t-13.5 3.5t-11.5 8.5q-28 35 -97 67t-134 32q-59 0 -110 -19t-82 -52v-590q39 25 88.5 39t103.5 14v0z" />
    <glyph glyph-name="uniE993" unicode="book&#x34;" 
d="M896 832v-832h-672q-40 0 -68 28t-28 68t28 68t68 28h608v768h-640q-53 0 -90.5 -37.5t-37.5 -90.5v-768q0 -53 37.5 -90.5t90.5 -37.5h768v896h-64v0zM224 128v0v0v0q-13 0 -22.5 -9.5t-9.5 -22.5t9.5 -22.5t22.5 -9.5v0v0v0h608v64h-608v0z" />
    <glyph glyph-name="uniE994" unicode="bookmark" 
d="M896 832v-832h-672q-40 0 -68 28t-28 68t28 68t68 28h608v768h-640q-53 0 -90.5 -37.5t-37.5 -90.5v-768q0 -53 37.5 -90.5t90.5 -37.5h768v896h-64v0zM320 928h320v-448l-160 160l-160 -160v448v0zM224 128v0v0v0q-13 0 -22.5 -9.5t-9.5 -22.5t9.5 -22.5t22.5 -9.5v0v0
v0h608v64h-608v0z" />
    <glyph glyph-name="uniE995" unicode="books" horiz-adv-x="1152" 
d="M224 832h-192q-13 0 -22.5 -9.5t-9.5 -22.5v-704q0 -13 9.5 -22.5t22.5 -9.5h192q13 0 22.5 9.5t9.5 22.5v704q0 13 -9.5 22.5t-22.5 9.5v0zM192 640h-128v64h128v-64v0zM544 832h-192q-13 0 -22.5 -9.5t-9.5 -22.5v-704q0 -13 9.5 -22.5t22.5 -9.5h192q13 0 22.5 9.5
t9.5 22.5v704q0 13 -9.5 22.5t-22.5 9.5v0zM512 640h-128v64h128v-64v0zM765 783l-171 -87q-12 -6 -16 -18.5t1 -24.5l288 -571q6 -12 19 -16.5t24 1.5l172 87q12 6 16 18.5t-2 24.5l-288 571q-6 12 -18.5 16t-24.5 -1v0z" />
    <glyph glyph-name="uniE996" unicode="archive" horiz-adv-x="1088" 
d="M256 896h-192q-26 0 -45 -19t-19 -45v-768q0 -26 19 -45t45 -19h192q26 0 45 19t19 45v768q0 26 -19 45t-45 19v0zM192 152q0 -10 -7 -17t-17 -7h-16q-10 0 -17 7t-7 17v16q0 10 7 17t17 7h16q10 0 17 -7t7 -17v-16v0zM256 320h-192v320h192v-320v0zM256 704h-192v64h192
v-64v0zM640 896h-192q-26 0 -45 -19t-19 -45v-768q0 -26 19 -45t45 -19h192q26 0 45 19t19 45v768q0 26 -19 45t-45 19v0zM576 152q0 -10 -7 -17t-17 -7h-16q-10 0 -17 7t-7 17v16q0 10 7 17t17 7h16q10 0 17 -7t7 -17v-16v0zM640 320h-192v320h192v-320v0zM640 704h-192v64
h192v-64v0zM1024 896h-192q-26 0 -45 -19t-19 -45v-768q0 -26 19 -45t45 -19h192q26 0 45 19t19 45v768q0 26 -19 45t-45 19v0zM960 152q0 -10 -7 -17t-17 -7h-16q-10 0 -17 7t-7 17v16q0 10 7 17t17 7h16q10 0 17 -7t7 -17v-16v0zM1024 320h-192v320h192v-320v0zM1024 704
h-192v64h192v-64v0z" />
    <glyph glyph-name="uniE997" unicode="library&#x32;" 
d="M352 800q0 66 47 113t113 47t113 -47t47 -113t-47 -113t-113 -47t-113 47t-47 113v0zM1010 232l-256 320q-9 12 -22.5 18t-27.5 6v0h-384q-14 0 -27.5 -6t-22.5 -18l-256 -320q-13 -16 -14 -36t9 -37q9 -15 23.5 -23t31.5 -8q3 0 6 0.5t7 0.5l179 36v-229h512v229
l179 -36q4 0 7 -0.5t6 -0.5q17 0 31.5 8t23.5 23q10 17 9 37t-14 36v0zM704 308l-51 11q-26 5 -48.5 -9.5t-27.5 -40.5t9.5 -48.5t40.5 -27.5l77 -15v-50l-192 -64l-192 64v50l77 15q26 5 40.5 27.5t9.5 48.5t-27.5 40.5t-48.5 9.5l-51 -11v140l192 -64l192 64v-140v0z" />
    <glyph glyph-name="uniE998" unicode="bank" horiz-adv-x="1088" 
d="M1024 0v64h-64v384h64v64h-192v-64h64v-384h-192v384h64v64h-192v-64h64v-384h-192v384h64v64h-192v-64h64v-384h-192v384h64v64h-192v-64h64v-384h-64v-64h-64v-64h1088v64h-64v0zM512 960h64l512 -320v-64h-1088v64l512 320v0z" />
    <glyph glyph-name="uniE999" unicode="bank&#x32;" 
d="M960 512h-128v-448h-128v448h-128v-448h-128v448h-128v-448h-128v448h-128v-512h-64v-64h1024v64h-64v512v0zM544 960h-64l-480 -320v-64h1024v64l-480 320v0zM512 704q-27 0 -45.5 18.5t-18.5 45.5t18.5 45.5t45.5 18.5t45.5 -18.5t18.5 -45.5t-18.5 -45.5t-45.5 -18.5
v0z" />
    <glyph glyph-name="uniE99A" unicode="education" 
d="M192 373v-149q0 -24 25 -52t68.5 -52t102 -40t124.5 -16t124.5 16t102 40t68.5 52t25 52v149l-320 -160l-320 160v0zM512 832l-512 -256l512 -256l415 208l-31 -272h64v288l64 32l-512 256v0zM544 562q-19 0 -32.5 13.5t-13.5 32.5t13.5 32.5t32.5 13.5t32.5 -13.5
t13.5 -32.5t-13.5 -32.5t-32.5 -13.5v0z" />
    <glyph glyph-name="uniE99B" unicode="file&#x2d;text" 
d="M864 960h-768q-40 0 -68 -28t-28 -68v-832q0 -40 28 -68t68 -28h768q40 0 68 28t28 68v832q0 40 -28 68t-68 28v0zM832 64h-704v768h704v-768v0zM256 512h448v-64h-448v64zM256 384h448v-64h-448v64zM256 256h448v-64h-448v64zM256 640h448v-64h-448v64z" />
    <glyph glyph-name="uniE99C" unicode="file&#x32;" 
d="M864 960h-768q-40 0 -68 -28t-28 -68v-832q0 -40 28 -68t68 -28h768q40 0 68 28t28 68v832q0 40 -28 68t-68 28v0zM832 64h-704v768h704v-768v0zM256 384h448v-64h-448v64zM256 256h448v-64h-448v64zM320 672q0 40 28 68t68 28t68 -28t28 -68t-28 -68t-68 -28t-68 28
t-28 68v0zM480 576h-128q-40 0 -68 -19t-28 -45v-64h320v64q0 26 -28 45t-68 19v0z" />
    <glyph glyph-name="uniE99D" unicode="file&#x33;" 
d="M918 731q-17 23 -39.5 48.5t-47.5 51.5q-26 25 -51.5 47.5t-48.5 39.5q-39 28 -59.5 35t-31.5 7h-496q-33 0 -56.5 -23.5t-23.5 -56.5v-864q0 -33 23.5 -56.5t56.5 -23.5h736q33 0 56.5 23.5t23.5 56.5v624q0 11 -7 31.5t-35 59.5v0zM785 785q23 -23 41.5 -43.5
t31.5 -37.5h-154v154q17 -13 37.5 -31.5t43.5 -41.5v0zM896 16q0 -7 -4.5 -11.5t-11.5 -4.5h-736q-7 0 -11.5 4.5t-4.5 11.5v864q0 7 4.5 11.5t11.5 4.5h77.5h170.5h170.5h77.5v-224q0 -13 9.5 -22.5t22.5 -9.5h224v-624v0z" />
    <glyph glyph-name="uniE99E" unicode="file&#x34;" 
d="M704 704h232q-4 6 -8.5 12.5t-9.5 14.5q-17 23 -39.5 48.5t-47.5 51.5q-26 25 -51.5 47.5t-48.5 39.5q-8 5 -14.5 9.5t-12.5 8.5v-232v0zM640 672v288h-496q-33 0 -56.5 -23.5t-23.5 -56.5v-864q0 -33 23.5 -56.5t56.5 -23.5h736q33 0 56.5 23.5t23.5 56.5v624h-288
q-13 0 -22.5 9.5t-9.5 22.5v0z" />
    <glyph glyph-name="uniE99F" unicode="files&#x2d;empty" 
d="M918 603q-17 23 -39.5 48.5t-47.5 51.5q-26 25 -51.5 47.5t-48.5 39.5q-39 28 -59.5 35t-31.5 7h-368q-33 0 -56.5 -23.5t-23.5 -56.5v-736q0 -33 23.5 -56.5t56.5 -23.5h608q33 0 56.5 23.5t23.5 56.5v496q0 11 -7 31.5t-35 59.5v0zM785 657q23 -23 41.5 -43.5
t31.5 -37.5h-154v154q17 -13 37.5 -31.5t43.5 -41.5v0v0zM896 16q0 -7 -4.5 -11.5t-11.5 -4.5h-608q-7 0 -11.5 4.5t-4.5 11.5v736q0 7 4.5 11.5t11.5 4.5h57.5h126.5h126.5h57.5v-224q0 -13 9.5 -22.5t22.5 -9.5h224v-496v0zM603 918q-39 28 -59.5 35t-31.5 7h-368
q-33 0 -56.5 -23.5t-23.5 -56.5v-736q0 -29 18.5 -51t45.5 -27v814q0 7 4.5 11.5t11.5 4.5h487q-7 6 -14 11.5t-14 10.5v0z" />
    <glyph glyph-name="uniE9A0" unicode="files&#x32;" 
d="M603 918q-39 28 -59.5 35t-31.5 7h-368q-33 0 -56.5 -23.5t-23.5 -56.5v-736q0 -29 18.5 -51t45.5 -27v814q0 7 4.5 11.5t11.5 4.5h487q-7 6 -14 11.5t-14 10.5v0zM704 576h232q-4 6 -8.5 12.5t-9.5 14.5q-17 23 -39.5 48.5t-47.5 51.5q-26 25 -51.5 47.5t-48.5 39.5
q-8 5 -14.5 9.5t-12.5 8.5v-232v0zM640 544v288h-368q-33 0 -56.5 -23.5t-23.5 -56.5v-736q0 -33 23.5 -56.5t56.5 -23.5h608q33 0 56.5 23.5t23.5 56.5v496h-288q-13 0 -22.5 9.5t-9.5 22.5v0z" />
    <glyph glyph-name="uniE9A1" unicode="file&#x35;" 
d="M918 731q-17 23 -39.5 48.5t-47.5 51.5q-26 25 -51.5 47.5t-48.5 39.5q-39 28 -59.5 35t-31.5 7h-496q-33 0 -56.5 -23.5t-23.5 -56.5v-864q0 -33 23.5 -56.5t56.5 -23.5h400q13 0 22.5 9.5t9.5 22.5t-9.5 22.5t-22.5 9.5h-400q-7 0 -11.5 4.5t-4.5 11.5v864
q0 7 4.5 11.5t11.5 4.5h77.5h170.5h170.5h77.5v-224q0 -13 9.5 -22.5t22.5 -9.5h224v-224q0 -13 9.5 -22.5t22.5 -9.5t22.5 9.5t9.5 22.5v224q0 11 -7 31.5t-35 59.5v0zM704 704v154q17 -13 37.5 -31.5t43.5 -41.5t41.5 -43.5t31.5 -37.5h-154v0zM1024 192h-128v128h-128
v-128h-128v-128h128v-128h128v128h128v128z" />
    <glyph glyph-name="uniE9A2" unicode="file&#x36;" 
d="M704 704h232q-4 6 -8.5 12.5t-9.5 14.5q-17 23 -39.5 48.5t-47.5 51.5q-26 25 -51.5 47.5t-48.5 39.5q-8 5 -14.5 9.5t-12.5 8.5v-232v0zM504 160q0 61 23.5 115t63.5 94t94 63.5t115 23.5q44 0 84.5 -12.5t75.5 -34.5v231h-288q-13 0 -22.5 9.5t-9.5 22.5v288h-496
q-33 0 -56.5 -23.5t-23.5 -56.5v-864q0 -33 23.5 -56.5t56.5 -23.5h463q-47 41 -75 99t-28 125v0zM800 384q-46 0 -87 -17.5t-71.5 -48t-48 -71.5t-17.5 -87t17.5 -87t48 -71.5t71.5 -48t87 -17.5t87 17.5t71.5 48t48 71.5t17.5 87t-17.5 87t-48 71.5t-71.5 48t-87 17.5v0z
M832 128v-128h-64v128h-128v64h128v128h64v-128h128v-64h-128v0z" />
    <glyph glyph-name="uniE9A3" unicode="file&#x37;" 
d="M918 731q-17 23 -39.5 48.5t-47.5 51.5q-26 25 -51.5 47.5t-48.5 39.5q-39 28 -59.5 35t-31.5 7h-496q-33 0 -56.5 -23.5t-23.5 -56.5v-864q0 -33 23.5 -56.5t56.5 -23.5h400q13 0 22.5 9.5t9.5 22.5t-9.5 22.5t-22.5 9.5h-400q-7 0 -11.5 4.5t-4.5 11.5v864
q0 7 4.5 11.5t11.5 4.5h77.5h170.5h170.5h77.5v-224q0 -13 9.5 -22.5t22.5 -9.5h224v-224q0 -13 9.5 -22.5t22.5 -9.5t22.5 9.5t9.5 22.5v224q0 11 -7 31.5t-35 59.5v0zM704 704v154q17 -13 37.5 -31.5t43.5 -41.5t41.5 -43.5t31.5 -37.5h-154v0zM640 192h384v-128h-384v128
v0z" />
    <glyph glyph-name="uniE9A4" unicode="file&#x38;" 
d="M704 704h232q-4 6 -8.5 12.5t-9.5 14.5q-17 23 -39.5 48.5t-47.5 51.5q-26 25 -51.5 47.5t-48.5 39.5q-8 5 -14.5 9.5t-12.5 8.5v-232v0zM504 160q0 61 23.5 115t63.5 94t94 63.5t115 23.5q44 0 84.5 -12.5t75.5 -34.5v231h-288q-13 0 -22.5 9.5t-9.5 22.5v288h-496
q-33 0 -56.5 -23.5t-23.5 -56.5v-864q0 -33 23.5 -56.5t56.5 -23.5h463q-47 41 -75 99t-28 125v0zM800 384q-46 0 -87 -17.5t-71.5 -48t-48 -71.5t-17.5 -87t17.5 -87t48 -71.5t71.5 -48t87 -17.5t87 17.5t71.5 48t48 71.5t17.5 87t-17.5 87t-48 71.5t-71.5 48t-87 17.5v0z
M640 128v64h320v-64h-320v0z" />
    <glyph glyph-name="uniE9A5" unicode="file&#x39;" 
d="M854 731q-17 23 -39.5 48.5t-47.5 51.5q-26 25 -51.5 47.5t-48.5 39.5q-39 28 -59.5 35t-31.5 7h-432q-33 0 -56.5 -23.5t-23.5 -56.5v-240l32 -704l32 704v240q0 7 4.5 11.5t11.5 4.5h67.5h148.5h148.5h67.5v-224q0 -13 9.5 -22.5t22.5 -9.5h224l32 -704l32 704
q0 11 -7 31.5t-35 59.5v0zM640 704v154q17 -13 37.5 -31.5t43.5 -41.5t41.5 -43.5t31.5 -37.5h-154v0zM576 512h-192v-320h-160l256 -256l256 256h-160v320z" />
    <glyph glyph-name="uniE9A6" unicode="file&#x31;&#x30;" 
d="M704 704h232q-4 6 -8.5 12.5t-9.5 14.5q-17 23 -39.5 48.5t-47.5 51.5q-26 25 -51.5 47.5t-48.5 39.5q-8 5 -14.5 9.5t-12.5 8.5v-232v0zM672 640q-13 0 -22.5 9.5t-9.5 22.5v288h-496q-33 0 -56.5 -23.5t-23.5 -56.5v-864q0 -33 23.5 -56.5t56.5 -23.5h736
q33 0 56.5 23.5t23.5 56.5v624h-288v0zM512 -32l-224 224h160v320h128v-320h160l-224 -224v0z" />
    <glyph glyph-name="uniE9A7" unicode="file&#x31;&#x31;" 
d="M854 731q-17 23 -39.5 48.5t-47.5 51.5q-26 25 -51.5 47.5t-48.5 39.5q-39 28 -59.5 35t-31.5 7h-432q-33 0 -56.5 -23.5t-23.5 -56.5v-240l32 -704l32 704v240q0 7 4.5 11.5t11.5 4.5h67.5h148.5h148.5h67.5v-224q0 -13 9.5 -22.5t22.5 -9.5h224l32 -704l32 704
q0 11 -7 31.5t-35 59.5v0zM640 704v154q17 -13 37.5 -31.5t43.5 -41.5t41.5 -43.5t31.5 -37.5h-154v0zM384 -64h192v320h160l-256 256l-256 -256h160v-320z" />
    <glyph glyph-name="uniE9A8" unicode="file&#x31;&#x32;" 
d="M704 704h232q-4 6 -8.5 12.5t-9.5 14.5q-17 23 -39.5 48.5t-47.5 51.5q-26 25 -51.5 47.5t-48.5 39.5q-8 5 -14.5 9.5t-12.5 8.5v-232v0zM672 640q-13 0 -22.5 9.5t-9.5 22.5v288h-496q-33 0 -56.5 -23.5t-23.5 -56.5v-864q0 -33 23.5 -56.5t56.5 -23.5h736
q33 0 56.5 23.5t23.5 56.5v624h-288v0zM512 544l224 -224h-160v-320h-128v320h-160l224 224v0z" />
    <glyph glyph-name="uniE9A9" unicode="file&#x31;&#x33;" 
d="M704 -64l-192 224l81 81l111 -111l256 254l64 -64l-320 -384v0zM918 731q-17 23 -39.5 48.5t-47.5 51.5q-26 25 -51.5 47.5t-48.5 39.5q-39 28 -59.5 35t-31.5 7h-496q-33 0 -56.5 -23.5t-23.5 -56.5v-864q0 -33 23.5 -56.5t56.5 -23.5h400q13 0 22.5 9.5t9.5 22.5
t-9.5 22.5t-22.5 9.5h-400q-7 0 -11.5 4.5t-4.5 11.5v864q0 7 4.5 11.5t11.5 4.5h77.5h170.5h170.5h77.5v-224q0 -13 9.5 -22.5t22.5 -9.5h224v-160q0 -13 9.5 -22.5t22.5 -9.5t22.5 9.5t9.5 22.5v160q0 11 -7 31.5t-35 59.5v0zM704 704v154q17 -13 37.5 -31.5t43.5 -41.5
t41.5 -43.5t31.5 -37.5h-154v0z" />
    <glyph glyph-name="uniE9AA" unicode="file&#x31;&#x34;" 
d="M704 704h232q-4 6 -8.5 12.5t-9.5 14.5q-17 23 -39.5 48.5t-47.5 51.5q-26 25 -51.5 47.5t-48.5 39.5q-8 5 -14.5 9.5t-12.5 8.5v-232v0zM672 640q-13 0 -22.5 9.5t-9.5 22.5v288h-496q-33 0 -56.5 -23.5t-23.5 -56.5v-864q0 -33 23.5 -56.5t56.5 -23.5h736
q33 0 56.5 23.5t23.5 56.5v624h-288v0zM430 41l-205 238l58 58l147 -114l275 242l58 -58l-333 -366v0z" />
    <glyph glyph-name="uniE9AB" unicode="file&#x31;&#x35;" 
d="M1021 268q-23 54 -60.5 98.5t-88.5 77.5t-110 50.5t-122 17.5t-122 -17.5t-110 -50.5t-88.5 -77.5t-60.5 -98.5q-2 -6 -2 -12t2 -12q23 -54 60.5 -98.5t88.5 -77.5t110 -50.5t122 -17.5t122 17.5t110 50.5t88.5 77.5t60.5 98.5q2 6 2 12t-2 12v0zM640 320
q0 -27 -18.5 -45.5t-45.5 -18.5t-45.5 18.5t-18.5 45.5t18.5 45.5t45.5 18.5t45.5 -18.5t18.5 -45.5v0zM838 122q-44 -29 -94.5 -43.5t-103.5 -14.5t-103.5 14.5t-94.5 43.5q-39 25 -69 59t-49 75q19 41 49 75t69 59q5 4 10 6.5t10 5.5q-9 -19 -14.5 -40.5t-5.5 -45.5
q0 -40 15.5 -75.5t42 -62t62 -41.5t75.5 -15q41 0 76.5 15t61.5 41.5t41.5 62t15.5 75.5q0 25 -5.5 47.5t-16.5 43.5l14 -8t14 -9q39 -25 69 -59.5t49 -74.5q-19 -41 -49 -75t-69 -59v0v0zM918 731q-17 23 -39.5 48.5t-47.5 51.5q-26 25 -51.5 47.5t-48.5 39.5
q-39 28 -59.5 35t-31.5 7h-496q-33 0 -56.5 -23.5t-23.5 -56.5v-864q0 -33 23.5 -56.5t56.5 -23.5h336q13 0 22.5 9.5t9.5 22.5t-9.5 22.5t-22.5 9.5h-336q-7 0 -11.5 4.5t-4.5 11.5v864q0 7 4.5 11.5t11.5 4.5h77.5h170.5h170.5h77.5v-224q0 -13 9.5 -22.5t22.5 -9.5h224
v-160q0 -13 9.5 -22.5t22.5 -9.5t22.5 9.5t9.5 22.5v160q0 11 -7 31.5t-35 59.5v0zM704 704v154q17 -13 37.5 -31.5t43.5 -41.5t41.5 -43.5t31.5 -37.5h-154v0z" />
    <glyph glyph-name="uniE9AC" unicode="file&#x31;&#x36;" 
d="M704 704h232q-4 6 -8.5 12.5t-9.5 14.5q-17 23 -39.5 48.5t-47.5 51.5q-26 25 -51.5 47.5t-48.5 39.5q-8 5 -14.5 9.5t-12.5 8.5v-232v0zM368 -56q-59 38 -104 91t-71 117q-8 19 -8 40t8 40q26 64 71 117t104 91q60 39 129.5 59.5t142.5 20.5t142.5 -20.5t129.5 -59.5
q12 -8 24.5 -17t23.5 -18v235h-288q-13 0 -22.5 9.5t-9.5 22.5v288h-496q-33 0 -56.5 -23.5t-23.5 -56.5v-864q0 -33 23.5 -56.5t56.5 -23.5h236l-6 4l-6 4v0zM1021 204q-23 54 -60.5 98.5t-88.5 77.5t-110 50.5t-122 17.5t-122 -17.5t-110 -50.5t-88.5 -77.5t-60.5 -98.5
q-2 -6 -2 -12t2 -12q23 -54 60.5 -98.5t88.5 -77.5t110 -50.5t122 -17.5t122 17.5t110 50.5t88.5 77.5t60.5 98.5q2 6 2 12t-2 12v0zM640 256q0 -27 -18.5 -45.5t-45.5 -18.5t-45.5 18.5t-18.5 45.5t18.5 45.5t45.5 18.5t45.5 -18.5t18.5 -45.5v0zM838 58
q-44 -29 -94.5 -43.5t-103.5 -14.5t-103.5 14.5t-94.5 43.5q-39 25 -69 59t-49 75q19 41 49 75t69 59q5 4 10 6.5t10 5.5q-9 -19 -14.5 -40.5t-5.5 -45.5q0 -40 15.5 -75.5t42 -62t62 -41.5t75.5 -15q41 0 76.5 15t61.5 41.5t41.5 62t15.5 75.5q0 25 -5.5 47.5t-16.5 43.5
l14 -8t14 -9q39 -25 69 -59.5t49 -74.5q-19 -41 -49 -75t-69 -59v0v0v0z" />
    <glyph glyph-name="uniE9AD" unicode="file&#x31;&#x37;" 
d="M918 731q-17 23 -39.5 48.5t-47.5 51.5q-26 25 -51.5 47.5t-48.5 39.5q-39 28 -59.5 35t-31.5 7h-496q-33 0 -56.5 -23.5t-23.5 -56.5v-864q0 -33 23.5 -56.5t56.5 -23.5h736q33 0 56.5 23.5t23.5 56.5v624q0 11 -7 31.5t-35 59.5v0zM785 785q23 -23 41.5 -43.5
t31.5 -37.5h-154v154q17 -13 37.5 -31.5t43.5 -41.5v0zM896 16q0 -7 -4.5 -11.5t-11.5 -4.5h-736q-7 0 -11.5 4.5t-4.5 11.5v864q0 7 4.5 11.5t11.5 4.5h77.5h170.5h170.5h77.5v-224q0 -13 9.5 -22.5t22.5 -9.5h224v-624v0zM736 128h-448q-13 0 -22.5 9.5t-9.5 22.5
t9.5 22.5t22.5 9.5h448q13 0 22.5 -9.5t9.5 -22.5t-9.5 -22.5t-22.5 -9.5v0zM736 256h-448q-13 0 -22.5 9.5t-9.5 22.5t9.5 22.5t22.5 9.5h448q13 0 22.5 -9.5t9.5 -22.5t-9.5 -22.5t-22.5 -9.5v0zM736 384h-448q-13 0 -22.5 9.5t-9.5 22.5t9.5 22.5t22.5 9.5h448
q13 0 22.5 -9.5t9.5 -22.5t-9.5 -22.5t-22.5 -9.5v0z" />
    <glyph glyph-name="uniE9AE" unicode="file&#x31;&#x38;" 
d="M704 704h232q-4 6 -8.5 12.5t-9.5 14.5q-17 23 -39.5 48.5t-47.5 51.5q-26 25 -51.5 47.5t-48.5 39.5q-8 5 -14.5 9.5t-12.5 8.5v-232v0zM672 640q-13 0 -22.5 9.5t-9.5 22.5v288h-496q-33 0 -56.5 -23.5t-23.5 -56.5v-864q0 -33 23.5 -56.5t56.5 -23.5h736
q33 0 56.5 23.5t23.5 56.5v624h-288v0zM736 128h-448q-13 0 -22.5 9.5t-9.5 22.5t9.5 22.5t22.5 9.5h448q13 0 22.5 -9.5t9.5 -22.5t-9.5 -22.5t-22.5 -9.5v0zM736 256h-448q-13 0 -22.5 9.5t-9.5 22.5t9.5 22.5t22.5 9.5h448q13 0 22.5 -9.5t9.5 -22.5t-9.5 -22.5
t-22.5 -9.5v0zM736 384h-448q-13 0 -22.5 9.5t-9.5 22.5t9.5 22.5t22.5 9.5h448q13 0 22.5 -9.5t9.5 -22.5t-9.5 -22.5t-22.5 -9.5v0z" />
    <glyph glyph-name="uniE9AF" unicode="file&#x31;&#x39;" 
d="M832 64h-640v128l192 320l263 -320l185 128v-256v0zM832 480q0 -40 -28 -68t-68 -28t-68 28t-28 68t28 68t68 28t68 -28t28 -68v0zM918 731q-17 23 -39.5 48.5t-47.5 51.5q-26 25 -51.5 47.5t-48.5 39.5q-39 28 -59.5 35t-31.5 7h-496q-33 0 -56.5 -23.5t-23.5 -56.5
v-864q0 -33 23.5 -56.5t56.5 -23.5h736q33 0 56.5 23.5t23.5 56.5v624q0 11 -7 31.5t-35 59.5v0zM785 785q23 -23 41.5 -43.5t31.5 -37.5h-154v154q17 -13 37.5 -31.5t43.5 -41.5v0zM896 16q0 -7 -4.5 -11.5t-11.5 -4.5h-736q-7 0 -11.5 4.5t-4.5 11.5v864q0 7 4.5 11.5
t11.5 4.5h77.5h170.5h170.5h77.5v-224q0 -13 9.5 -22.5t22.5 -9.5h224v-624v0z" />
    <glyph glyph-name="uniE9B0" unicode="file&#x32;&#x30;" 
d="M704 704h232q-4 6 -8.5 12.5t-9.5 14.5q-17 23 -39.5 48.5t-47.5 51.5q-26 25 -51.5 47.5t-48.5 39.5q-8 5 -14.5 9.5t-12.5 8.5v-232v0zM672 640q-13 0 -22.5 9.5t-9.5 22.5v288h-496q-33 0 -56.5 -23.5t-23.5 -56.5v-864q0 -33 23.5 -56.5t56.5 -23.5h736
q33 0 56.5 23.5t23.5 56.5v624h-288v0zM832 64h-640v128l192 320l263 -320l185 128v-256v0zM736 384q-40 0 -68 28t-28 68t28 68t68 28t68 -28t28 -68t-28 -68t-68 -28v0z" />
    <glyph glyph-name="uniE9B1" unicode="file&#x32;&#x31;" 
d="M918 731q-17 23 -39.5 48.5t-47.5 51.5q-26 25 -51.5 47.5t-48.5 39.5q-39 28 -59.5 35t-31.5 7h-496q-33 0 -56.5 -23.5t-23.5 -56.5v-864q0 -33 23.5 -56.5t56.5 -23.5h736q33 0 56.5 23.5t23.5 56.5v624q0 11 -7 31.5t-35 59.5v0v0zM785 785q23 -23 41.5 -43.5
t31.5 -37.5h-154v154q17 -13 37.5 -31.5t43.5 -41.5v0v0zM896 16q0 -7 -4.5 -11.5t-11.5 -4.5h-736q-7 0 -11.5 4.5t-4.5 11.5v864q0 7 4.5 11.5t11.5 4.5h77.5h170.5h170.5h77.5v-224q0 -13 9.5 -22.5t22.5 -9.5h224v-624v0zM756 569q-5 4 -12 6t-14 0l-320 -64
q-11 -2 -18.5 -11t-7.5 -20v-237q-14 6 -30.5 9.5t-33.5 3.5q-53 0 -90.5 -28t-37.5 -68t37.5 -68t90.5 -28t90.5 28t37.5 68v230l256 51v-134q-14 6 -30.5 9.5t-33.5 3.5q-53 0 -90.5 -28t-37.5 -68t37.5 -68t90.5 -28t90.5 28t37.5 68v320q0 7 -3 13.5t-9 11.5v0z" />
    <glyph glyph-name="uniE9B2" unicode="file&#x32;&#x32;" 
d="M704 704h232q-4 6 -8.5 12.5t-9.5 14.5q-17 23 -39.5 48.5t-47.5 51.5q-26 25 -51.5 47.5t-48.5 39.5q-8 5 -14.5 9.5t-12.5 8.5v-232v0zM672 640q-13 0 -22.5 9.5t-9.5 22.5v288h-496q-33 0 -56.5 -23.5t-23.5 -56.5v-864q0 -33 23.5 -56.5t56.5 -23.5h736
q33 0 56.5 23.5t23.5 56.5v624h-288v0zM768 160q0 -40 -37.5 -68t-90.5 -28t-90.5 28t-37.5 68t37.5 68t90.5 28q17 0 33.5 -3.5t30.5 -9.5v134l-256 -51v-230q0 -40 -37.5 -68t-90.5 -28t-90.5 28t-37.5 68t37.5 68t90.5 28q17 0 33.5 -3.5t30.5 -9.5v237q0 11 7.5 20
t18.5 11l320 64q7 2 14 0t12 -6q6 -5 9 -11.5t3 -13.5v-320v0z" />
    <glyph glyph-name="uniE9B3" unicode="file&#x32;&#x33;" 
d="M384 576l320 -224l-320 -224v448v0zM918 731q-17 23 -39.5 48.5t-47.5 51.5q-26 25 -51.5 47.5t-48.5 39.5q-39 28 -59.5 35t-31.5 7h-496q-33 0 -56.5 -23.5t-23.5 -56.5v-864q0 -33 23.5 -56.5t56.5 -23.5h736q33 0 56.5 23.5t23.5 56.5v624q0 11 -7 31.5t-35 59.5v0z
M785 785q23 -23 41.5 -43.5t31.5 -37.5h-154v154q17 -13 37.5 -31.5t43.5 -41.5v0zM896 16q0 -7 -4.5 -11.5t-11.5 -4.5h-736q-7 0 -11.5 4.5t-4.5 11.5v864q0 7 4.5 11.5t11.5 4.5h77.5h170.5h170.5h77.5v-224q0 -13 9.5 -22.5t22.5 -9.5h224v-624v0z" />
    <glyph glyph-name="uniE9B4" unicode="file&#x32;&#x34;" 
d="M704 704h232q-4 6 -8.5 12.5t-9.5 14.5q-17 23 -39.5 48.5t-47.5 51.5q-26 25 -51.5 47.5t-48.5 39.5q-8 5 -14.5 9.5t-12.5 8.5v-232v0zM672 640q-13 0 -22.5 9.5t-9.5 22.5v288h-496q-33 0 -56.5 -23.5t-23.5 -56.5v-864q0 -33 23.5 -56.5t56.5 -23.5h736
q33 0 56.5 23.5t23.5 56.5v624h-288v0zM384 128v448l320 -224l-320 -224v0z" />
    <glyph glyph-name="uniE9B5" unicode="file&#x32;&#x35;" 
d="M918 731q-17 23 -39.5 48.5t-47.5 51.5q-26 25 -51.5 47.5t-48.5 39.5q-39 28 -59.5 35t-31.5 7h-496q-33 0 -56.5 -23.5t-23.5 -56.5v-864q0 -33 23.5 -56.5t56.5 -23.5h736q33 0 56.5 23.5t23.5 56.5v624q0 11 -7 31.5t-35 59.5v0v0v0zM785 785q23 -23 41.5 -43.5
t31.5 -37.5h-154v154q17 -13 37.5 -31.5t43.5 -41.5v0v0v0zM896 16q0 -7 -4.5 -11.5t-11.5 -4.5h-736q-7 0 -11.5 4.5t-4.5 11.5v864q0 7 4.5 11.5t11.5 4.5h77.5h170.5h170.5h77.5v-224q0 -13 9.5 -22.5t22.5 -9.5h224v-624v0zM256 448h320v-320h-320v320v0zM576 320
l192 128v-320l-192 128v64z" />
    <glyph glyph-name="uniE9B6" unicode="file&#x32;&#x36;" 
d="M704 704h232q-4 6 -8.5 12.5t-9.5 14.5q-17 23 -39.5 48.5t-47.5 51.5q-26 25 -51.5 47.5t-48.5 39.5q-8 5 -14.5 9.5t-12.5 8.5v-232v0zM672 640q-13 0 -22.5 9.5t-9.5 22.5v288h-496q-33 0 -56.5 -23.5t-23.5 -56.5v-864q0 -33 23.5 -56.5t56.5 -23.5h736
q33 0 56.5 23.5t23.5 56.5v624h-288v0zM768 64l-192 128v-128h-320v320h320v-128l192 128v-320v0z" />
    <glyph glyph-name="uniE9B7" unicode="copy" 
d="M864 832h-64v-64h32v-512h-256v-256h-384v768h32v64h-64q-13 0 -22.5 -9.5t-9.5 -22.5v-832q0 -13 9.5 -22.5t22.5 -9.5h504l232 232v632q0 13 -9.5 22.5t-22.5 9.5v0zM640 0v192h192l-192 -192v0zM768 832h-128v64q0 26 -19 45t-45 19h-128q-26 0 -45 -19t-19 -45v-64
h-128v-128h512v128v0zM576 832h-128v64v0v0h128v0v0v-64v0z" />
    <glyph glyph-name="uniE9B8" unicode="copy&#x32;" 
d="M864 832q13 0 22.5 -9.5t9.5 -22.5v-608l-256 -256h-480q-13 0 -22.5 9.5t-9.5 22.5v832q0 13 9.5 22.5t22.5 9.5h64v-64h-32v-768h384v256h256v512h-32v64h64v0zM768 832h-128v64q0 26 -19 45t-45 19h-128q-26 0 -45 -19t-19 -45v-64h-128v-128h512v128v0zM576 832h-128
v64v0v0h128v0v0v-64v0z" />
    <glyph glyph-name="uniE9B9" unicode="file&#x32;&#x37;" 
d="M918 731q-17 23 -39.5 48.5t-47.5 51.5q-26 25 -51.5 47.5t-48.5 39.5q-39 28 -59.5 35t-31.5 7h-496q-33 0 -56.5 -23.5t-23.5 -56.5v-864q0 -33 23.5 -56.5t56.5 -23.5h736q33 0 56.5 23.5t23.5 56.5v624q0 11 -7 31.5t-35 59.5v0v0v0zM785 785q23 -23 41.5 -43.5
t31.5 -37.5h-154v154q17 -13 37.5 -31.5t43.5 -41.5v0v0v0zM896 16q0 -7 -4.5 -11.5t-11.5 -4.5h-736q-7 0 -11.5 4.5t-4.5 11.5v864q0 7 4.5 11.5t11.5 4.5h77.5h170.5h170.5h77.5v-224q0 -13 9.5 -22.5t22.5 -9.5h224v-624v0zM256 896h128v-64h-128v64v0zM384 832h128v-64
h-128v64v0zM256 768h128v-64h-128v64v0zM384 704h128v-64h-128v64v0zM256 640h128v-64h-128v64v0zM384 576h128v-64h-128v64v0zM256 512h128v-64h-128v64v0zM384 448h128v-64h-128v64v0zM256 112q0 -20 14 -34t34 -14h160q20 0 34 14t14 34v160q0 20 -14 34t-34 14h-80v64
h-128v-272v0zM448 192v-64h-128v64h128v0z" />
    <glyph glyph-name="uniE9BA" unicode="file&#x32;&#x38;" 
d="M704 704h232q-4 6 -8.5 12.5t-9.5 14.5q-17 23 -39.5 48.5t-47.5 51.5q-26 25 -51.5 47.5t-48.5 39.5q-8 5 -14.5 9.5t-12.5 8.5v-232v0zM672 640q-13 0 -22.5 9.5t-9.5 22.5v288h-496q-33 0 -56.5 -23.5t-23.5 -56.5v-864q0 -33 23.5 -56.5t56.5 -23.5h736
q33 0 56.5 23.5t23.5 56.5v624h-288v0zM448 768h-128v-64h128v-64h-128v-64h128v-64h-128v-64h128v-64h-128v-64h80q20 0 34 -14t14 -34v-160q0 -20 -14 -34t-34 -14h-160q-20 0 -34 14t-14 34v272h128v64h-128v64h128v64h-128v64h128v64h-128v64h128v64h-128v64h128v-64
h128v-64v0zM256 192h128v-64h-128v64v0z" />
    <glyph glyph-name="uniE9BB" unicode="file&#x32;&#x39;" 
d="M480 384l-64 64l-192 -192l192 -192l64 64l-128 128l128 128v0zM544 128l64 -64l192 192l-192 192l-64 -64l128 -128l-128 -128v0zM918 731q-17 23 -39.5 48.5t-47.5 51.5q-26 25 -51.5 47.5t-48.5 39.5q-39 28 -59.5 35t-31.5 7h-496q-33 0 -56.5 -23.5t-23.5 -56.5
v-864q0 -33 23.5 -56.5t56.5 -23.5h736q33 0 56.5 23.5t23.5 56.5v624q0 11 -7 31.5t-35 59.5v0v0zM785 785q23 -23 41.5 -43.5t31.5 -37.5h-154v154q17 -13 37.5 -31.5t43.5 -41.5v0v0zM896 16q0 -7 -4.5 -11.5t-11.5 -4.5h-736q-7 0 -11.5 4.5t-4.5 11.5v864q0 7 4.5 11.5
t11.5 4.5h77.5h170.5h170.5h77.5v-224q0 -13 9.5 -22.5t22.5 -9.5h224v-624v0z" />
    <glyph glyph-name="uniE9BC" unicode="file&#x33;&#x30;" 
d="M704 704h232q-4 6 -8.5 12.5t-9.5 14.5q-17 23 -39.5 48.5t-47.5 51.5q-26 25 -51.5 47.5t-48.5 39.5q-8 5 -14.5 9.5t-12.5 8.5v-232v0zM672 640q-13 0 -22.5 9.5t-9.5 22.5v288h-496q-33 0 -56.5 -23.5t-23.5 -56.5v-864q0 -33 23.5 -56.5t56.5 -23.5h736
q33 0 56.5 23.5t23.5 56.5v624h-288v0zM480 128l-64 -64l-192 192l192 192l64 -64l-128 -128l128 -128v0zM608 64l-64 64l128 128l-128 128l64 64l192 -192l-192 -192v0z" />
    <glyph glyph-name="uniE9BD" unicode="file&#x33;&#x31;" 
d="M918 731q-17 23 -39.5 48.5t-47.5 51.5q-26 25 -51.5 47.5t-48.5 39.5q-39 28 -59.5 35t-31.5 7h-496q-33 0 -56.5 -23.5t-23.5 -56.5v-864q0 -33 23.5 -56.5t56.5 -23.5h736q33 0 56.5 23.5t23.5 56.5v624q0 11 -7 31.5t-35 59.5v0v0zM785 785q23 -23 41.5 -43.5
t31.5 -37.5h-154v154q17 -13 37.5 -31.5t43.5 -41.5v0v0zM896 16q0 -7 -4.5 -11.5t-11.5 -4.5h-736q-7 0 -11.5 4.5t-4.5 11.5v864q0 7 4.5 11.5t11.5 4.5h77.5h170.5h170.5h77.5v-224q0 -13 9.5 -22.5t22.5 -9.5h224v-624v0zM416 128q-13 0 -22.5 9.5t-9.5 22.5v80
q0 13 -4 25.5t-12 22.5q8 10 12 22.5t4 25.5v80q0 13 9.5 22.5t22.5 9.5t22.5 9.5t9.5 22.5t-9.5 22.5t-22.5 9.5q-40 0 -68 -28t-28 -68v-80q0 -7 -4.5 -11.5t-11.5 -4.5h-16q-13 0 -22.5 -9.5t-9.5 -22.5t9.5 -22.5t22.5 -9.5h16q7 0 11.5 -4.5t4.5 -11.5v-80
q0 -40 28 -68t68 -28q13 0 22.5 9.5t9.5 22.5t-9.5 22.5t-22.5 9.5v0zM608 128q13 0 22.5 9.5t9.5 22.5v80q0 13 4 25.5t12 22.5q-8 10 -12 22.5t-4 25.5v80q0 13 -9.5 22.5t-22.5 9.5t-22.5 9.5t-9.5 22.5t9.5 22.5t22.5 9.5q40 0 68 -28t28 -68v-80q0 -7 4.5 -11.5
t11.5 -4.5h16q13 0 22.5 -9.5t9.5 -22.5t-9.5 -22.5t-22.5 -9.5h-16q-7 0 -11.5 -4.5t-4.5 -11.5v-80q0 -40 -28 -68t-68 -28q-13 0 -22.5 9.5t-9.5 22.5t9.5 22.5t22.5 9.5v0z" />
    <glyph glyph-name="uniE9BE" unicode="file&#x33;&#x32;" 
d="M704 704h232q-4 6 -8.5 12.5t-9.5 14.5q-17 23 -39.5 48.5t-47.5 51.5q-26 25 -51.5 47.5t-48.5 39.5q-8 5 -14.5 9.5t-12.5 8.5v-232v0zM672 640q-13 0 -22.5 9.5t-9.5 22.5v288h-496q-33 0 -56.5 -23.5t-23.5 -56.5v-864q0 -33 23.5 -56.5t56.5 -23.5h736
q33 0 56.5 23.5t23.5 56.5v624h-288v0zM384 240v-80q0 -13 9.5 -22.5t22.5 -9.5t22.5 -9.5t9.5 -22.5t-9.5 -22.5t-22.5 -9.5q-40 0 -68 28t-28 68v80q0 7 -4.5 11.5t-11.5 4.5h-16q-13 0 -22.5 9.5t-9.5 22.5t9.5 22.5t22.5 9.5h16q7 0 11.5 4.5t4.5 11.5v80q0 40 28 68
t68 28q13 0 22.5 -9.5t9.5 -22.5t-9.5 -22.5t-22.5 -9.5t-22.5 -9.5t-9.5 -22.5v-80q0 -13 -4 -25.5t-12 -22.5q8 -10 12 -22.5t4 -25.5v0zM736 256h-16q-7 0 -11.5 -4.5t-4.5 -11.5v-80q0 -40 -28 -68t-68 -28q-13 0 -22.5 9.5t-9.5 22.5t9.5 22.5t22.5 9.5t22.5 9.5
t9.5 22.5v80q0 13 4 25.5t12 22.5q-8 10 -12 22.5t-4 25.5v80q0 13 -9.5 22.5t-22.5 9.5t-22.5 9.5t-9.5 22.5t9.5 22.5t22.5 9.5q40 0 68 -28t28 -68v-80q0 -7 4.5 -11.5t11.5 -4.5h16q13 0 22.5 -9.5t9.5 -22.5t-9.5 -22.5t-22.5 -9.5v0z" />
    <glyph glyph-name="uniE9BF" unicode="file&#x33;&#x33;" 
d="M192 448h192v-64h-192v64v0zM192 320h192v-64h-192v64v0zM192 192h192v-64h-192v64v0zM576 256h189q-11 -55 -55 -91.5t-102 -36.5q-66 0 -113 47t-47 113q0 58 36.5 102t91.5 55v-189v0zM672 512q66 0 113 -47t47 -113q0 -8 -1 -16l-2 -16h-189v189l16 2t16 1v0z
M918 731q-17 23 -39.5 48.5t-47.5 51.5q-26 25 -51.5 47.5t-48.5 39.5q-39 28 -59.5 35t-31.5 7h-496q-33 0 -56.5 -23.5t-23.5 -56.5v-864q0 -33 23.5 -56.5t56.5 -23.5h736q33 0 56.5 23.5t23.5 56.5v624q0 11 -7 31.5t-35 59.5v0v0zM785 785q23 -23 41.5 -43.5
t31.5 -37.5h-154v154q17 -13 37.5 -31.5t43.5 -41.5v0v0zM896 16q0 -7 -4.5 -11.5t-11.5 -4.5h-736q-7 0 -11.5 4.5t-4.5 11.5v864q0 7 4.5 11.5t11.5 4.5h77.5h170.5h170.5h77.5v-224q0 -13 9.5 -22.5t22.5 -9.5h224v-624v0z" />
    <glyph glyph-name="uniE9C0" unicode="file&#x33;&#x34;" 
d="M704 704h232q-4 6 -8.5 12.5t-9.5 14.5q-17 23 -39.5 48.5t-47.5 51.5q-26 25 -51.5 47.5t-48.5 39.5q-8 5 -14.5 9.5t-12.5 8.5v-232v0zM672 640q-13 0 -22.5 9.5t-9.5 22.5v288h-496q-33 0 -56.5 -23.5t-23.5 -56.5v-864q0 -33 23.5 -56.5t56.5 -23.5h736
q33 0 56.5 23.5t23.5 56.5v624h-288v0zM384 64h-192v64h192v-64v0zM384 192h-192v64h192v-64v0zM384 320h-192v64h192v-64v0zM608 64q-66 0 -113 47t-47 113q0 58 36.5 102t91.5 55v-189h189q-11 -55 -55 -91.5t-102 -36.5v0zM829 256h-189v189l16 2t16 1q66 0 113 -47
t47 -113q0 -8 -1 -16l-2 -16v0z" />
    <glyph glyph-name="uniE9C1" unicode="file&#x33;&#x35;" 
d="M918 731q-17 23 -39.5 48.5t-47.5 51.5q-26 25 -51.5 47.5t-48.5 39.5q-39 28 -59.5 35t-31.5 7h-496q-33 0 -56.5 -23.5t-23.5 -56.5v-864q0 -33 23.5 -56.5t56.5 -23.5h736q33 0 56.5 23.5t23.5 56.5v624q0 11 -7 31.5t-35 59.5v0v0v0zM785 785q23 -23 41.5 -43.5
t31.5 -37.5h-154v154q17 -13 37.5 -31.5t43.5 -41.5v0v0v0zM896 16q0 -7 -4.5 -11.5t-11.5 -4.5h-736q-7 0 -11.5 4.5t-4.5 11.5v864q0 7 4.5 11.5t11.5 4.5h77.5h170.5h170.5h77.5v-224q0 -13 9.5 -22.5t22.5 -9.5h224v-624v0zM256 640h128v-576h-128v576v0zM448 384h128
v-320h-128v320v0zM640 256h128v-192h-128v192v0z" />
    <glyph glyph-name="uniE9C2" unicode="file&#x33;&#x36;" 
d="M704 704h232q-4 6 -8.5 12.5t-9.5 14.5q-17 23 -39.5 48.5t-47.5 51.5q-26 25 -51.5 47.5t-48.5 39.5q-8 5 -14.5 9.5t-12.5 8.5v-232v0zM672 640q-13 0 -22.5 9.5t-9.5 22.5v288h-496q-33 0 -56.5 -23.5t-23.5 -56.5v-864q0 -33 23.5 -56.5t56.5 -23.5h736
q33 0 56.5 23.5t23.5 56.5v624h-288v0zM384 64h-128v576h128v-576v0zM576 64h-128v320h128v-320v0zM768 64h-128v192h128v-192v0z" />
    <glyph glyph-name="uniE9C3" unicode="file&#x33;&#x37;" 
d="M918 731q-17 23 -39.5 48.5t-47.5 51.5q-26 25 -51.5 47.5t-48.5 39.5q-39 28 -59.5 35t-31.5 7h-496q-33 0 -56.5 -23.5t-23.5 -56.5v-864q0 -33 23.5 -56.5t56.5 -23.5h736q33 0 56.5 23.5t23.5 56.5v624q0 11 -7 31.5t-35 59.5v0v0v0zM785 785q23 -23 41.5 -43.5
t31.5 -37.5h-154v154q17 -13 37.5 -31.5t43.5 -41.5v0v0v0zM896 16q0 -7 -4.5 -11.5t-11.5 -4.5h-736q-7 0 -11.5 4.5t-4.5 11.5v864q0 7 4.5 11.5t11.5 4.5h77.5h170.5h170.5h77.5v-224q0 -13 9.5 -22.5t22.5 -9.5h224v-624v0zM672 384h-32v160q0 13 -9.5 22.5t-22.5 9.5
h-192q-13 0 -22.5 -9.5t-9.5 -22.5v-160h-32q-13 0 -22.5 -9.5t-9.5 -22.5v-256q0 -13 9.5 -22.5t22.5 -9.5h320q13 0 22.5 9.5t9.5 22.5v256q0 13 -9.5 22.5t-22.5 9.5v0zM448 512h128v-128h-128v128v0z" />
    <glyph glyph-name="uniE9C4" unicode="file&#x33;&#x38;" 
d="M704 704h232q-4 6 -8.5 12.5t-9.5 14.5q-17 23 -39.5 48.5t-47.5 51.5q-26 25 -51.5 47.5t-48.5 39.5q-8 5 -14.5 9.5t-12.5 8.5v-232v0zM448 512h128v-128h-128v128v0zM672 640q-13 0 -22.5 9.5t-9.5 22.5v288h-496q-33 0 -56.5 -23.5t-23.5 -56.5v-864
q0 -33 23.5 -56.5t56.5 -23.5h736q33 0 56.5 23.5t23.5 56.5v624h-288v0zM704 96q0 -13 -9.5 -22.5t-22.5 -9.5h-320q-13 0 -22.5 9.5t-9.5 22.5v256q0 13 9.5 22.5t22.5 9.5h32v160q0 13 9.5 22.5t22.5 9.5h192q13 0 22.5 -9.5t9.5 -22.5v-160h32q13 0 22.5 -9.5t9.5 -22.5
v-256v0z" />
    <glyph glyph-name="uniE9C5" unicode="file&#x33;&#x39;" 
d="M918 731q-17 23 -39.5 48.5t-47.5 51.5q-26 25 -51.5 47.5t-48.5 39.5q-39 28 -59.5 35t-31.5 7h-496q-33 0 -56.5 -23.5t-23.5 -56.5v-864q0 -33 23.5 -56.5t56.5 -23.5h736q33 0 56.5 23.5t23.5 56.5v624q0 11 -7 31.5t-35 59.5v0v0v0zM785 785q23 -23 41.5 -43.5
t31.5 -37.5h-154v154q17 -13 37.5 -31.5t43.5 -41.5v0v0v0zM896 16q0 -7 -4.5 -11.5t-11.5 -4.5h-736q-7 0 -11.5 4.5t-4.5 11.5v864q0 7 4.5 11.5t11.5 4.5h77.5h170.5h170.5h77.5v-224q0 -13 9.5 -22.5t22.5 -9.5h224v-624v0zM192 512v-448h640v448h-640v0zM384 128h-128
v128h128v-128v0zM384 320h-128v128h128v-128v0zM576 128h-128v128h128v-128v0zM576 320h-128v128h128v-128v0zM768 128h-128v128h128v-128v0zM768 320h-128v128h128v-128v0z" />
    <glyph glyph-name="uniE9C6" unicode="file&#x34;&#x30;" 
d="M704 704h232q-4 6 -8.5 12.5t-9.5 14.5q-17 23 -39.5 48.5t-47.5 51.5q-26 25 -51.5 47.5t-48.5 39.5q-8 5 -14.5 9.5t-12.5 8.5v-232v0zM448 256h128v-128h-128v128v0zM640 256h128v-128h-128v128v0zM640 448h128v-128h-128v128v0zM448 448h128v-128h-128v128v0z
M672 640q-13 0 -22.5 9.5t-9.5 22.5v288h-496q-33 0 -56.5 -23.5t-23.5 -56.5v-864q0 -33 23.5 -56.5t56.5 -23.5h736q33 0 56.5 23.5t23.5 56.5v624h-288v0zM832 64h-640v448h640v-448v0zM256 448h128v-128h-128v128v0zM256 256h128v-128h-128v128v0z" />
    <glyph glyph-name="uniE9C7" unicode="copy&#x33;" 
d="M640 704v256h-448l-192 -192v-576h384v-256h640v768h-384v0zM192 869v-101h-101l101 101v0zM64 256v448h192v192h320v-192l-192 -192v-256h-320v0zM576 613v-101h-101l101 101v0zM960 0h-512v448h192v192h320v-640v0z" />
    <glyph glyph-name="uniE9C8" unicode="copy&#x34;" 
d="M832 704h-192v64l-192 192h-448v-768h384v-256h640v576l-192 192v0zM832 613l101 -101h-101v101v0zM448 869l101 -101h-101v101v0zM64 896h320v-192h192v-448h-512v640v0zM960 0h-512v192h192v448h128v-192h192v-448v0z" />
    <glyph glyph-name="uniE9C9" unicode="clipboard&#x2d;file" 
d="M704 832h-128v64q0 26 -19 45t-45 19h-128q-26 0 -45 -19t-19 -45v-64h-128v-128h512v128v0zM512 832h-128v64v0v0h128v0v0v-64v0zM832 640v160q0 13 -9.5 22.5t-22.5 9.5h-64v-64h32v-128h-384v-448h-256v576h32v64h-64q-13 0 -22.5 -9.5t-9.5 -22.5v-640
q0 -13 9.5 -22.5t22.5 -9.5h288v-192h448l192 192v512h-192v0zM832 27v101h101l-101 -101v0zM960 192h-192v-192h-320v576h512v-384v0z" />
    <glyph glyph-name="uniE9CA" unicode="clipboard&#x2d;file&#x32;" 
d="M832 640v160q0 13 -9.5 22.5t-22.5 9.5h-224v64q0 26 -19 45t-45 19h-128q-26 0 -45 -19t-19 -45v-64h-224q-13 0 -22.5 -9.5t-9.5 -22.5v-640q0 -13 9.5 -22.5t22.5 -9.5h288v-192h448l192 192v512h-192v0zM384 896v0v0h128v0v0v-64h-128v64v0zM192 704v64h512v-64h-512
v0zM832 27v101h101l-101 -101v0zM960 192h-192v-192h-320v576h512v-384v0z" />
    <glyph glyph-name="uniE9CB" unicode="clipboard&#x2d;file&#x33;" 
d="M512 448v-128h32l32 64h64v-256h-48v-64h224v64h-48v256h64l32 -64h32v128h-384zM832 640v160q0 13 -9.5 22.5t-22.5 9.5h-224v64q0 26 -19 45t-45 19h-128q-26 0 -45 -19t-19 -45v-64h-224q-13 0 -22.5 -9.5t-9.5 -22.5v-640q0 -13 9.5 -22.5t22.5 -9.5h288v-192h640
v704h-192v0zM384 896v0v0h128v0v0v-64h-128v64v0zM192 704v64h512v-64h-512v0zM960 0h-512v576h512v-576v0z" />
    <glyph glyph-name="uniE9CC" unicode="clipboard&#x2d;file&#x34;" 
d="M704 832h-128v64q0 26 -19 45t-45 19h-128q-26 0 -45 -19t-19 -45v-64h-128v-128h512v128v0zM512 832h-128v64v0v0h128v0v0v-64v0zM832 640v160q0 13 -9.5 22.5t-22.5 9.5h-64v-64h32v-128h-192l-192 -192v-256h-256v576h32v64h-64q-13 0 -22.5 -9.5t-9.5 -22.5v-640
q0 -13 9.5 -22.5t22.5 -9.5h288v-192h640v704h-192v0zM576 549v-101h-101l101 101v0zM960 0h-512v384h192v192h320v-576v0z" />
    <glyph glyph-name="uniE9CD" unicode="files&#x33;" 
d="M880 704h-48v48q0 33 -23.5 56.5t-56.5 23.5h-48v48q0 33 -23.5 56.5t-56.5 23.5h-480q-33 0 -56.5 -23.5t-23.5 -56.5v-608q0 -33 23.5 -56.5t56.5 -23.5h48v-48q0 -33 23.5 -56.5t56.5 -23.5h48v-48q0 -33 23.5 -56.5t56.5 -23.5h480q33 0 56.5 23.5t23.5 56.5v608
q0 33 -23.5 56.5t-56.5 23.5v0zM144 256q-7 0 -11.5 4.5t-4.5 11.5v608q0 7 4.5 11.5t11.5 4.5h480q7 0 11.5 -4.5t4.5 -11.5v-48h-368q-33 0 -56.5 -23.5t-23.5 -56.5v-496h-48v0zM272 128q-7 0 -11.5 4.5t-4.5 11.5v608q0 7 4.5 11.5t11.5 4.5h480q7 0 11.5 -4.5
t4.5 -11.5v-48h-368q-33 0 -56.5 -23.5t-23.5 -56.5v-496h-48v0zM896 16q0 -7 -4.5 -11.5t-11.5 -4.5h-480q-7 0 -11.5 4.5t-4.5 11.5v608q0 7 4.5 11.5t11.5 4.5h480q7 0 11.5 -4.5t4.5 -11.5v-608v0z" />
    <glyph glyph-name="uniE9CE" unicode="layers" 
d="M1024 640l-512 256l-512 -256l512 -256l512 256v0zM512 811l342 -171l-342 -171l-342 171l342 171v0zM921 499l103 -51l-512 -256l-512 256l103 51l409 -204zM921 307l103 -51l-512 -256l-512 256l103 51l409 -204z" />
    <glyph glyph-name="uniE9CF" unicode="layers&#x32;" 
d="M512 384l-512 256l512 256l512 -256zM921 499l103 -51l-512 -256l-512 256l103 51l409 -204zM921 307l103 -51l-512 -256l-512 256l103 51l409 -204z" />
    <glyph glyph-name="uniE9D0" unicode="directory" 
d="M0 640h1024l-64 -640h-896l-64 640v0zM928 768l32 -64h-896l64 128h352l32 -64h416v0z" />
    <glyph glyph-name="uniE9D1" unicode="dicrectory" 
d="M928 832h-416l-32 64h-352l-64 -128h896zM904 256h75l45 448h-1024l64 -640h484q-39 14 -72 39.5t-57 58.5t-37.5 73.5t-13.5 84.5q0 56 21.5 105.5t58.5 86.5t86.5 58.5t105.5 21.5t105.5 -21.5t86.5 -58.5t58.5 -86.5t21.5 -105.5q0 -16 -2 -32t-6 -32v0zM1003 46
l-198 175q13 22 20 47t7 52q0 80 -56 136t-136 56t-136 -56t-56 -136t56 -136t136 -56q27 0 52 7t47 20l175 -198q17 -20 42.5 -21t44.5 18l5 5q19 19 18 44.5t-21 42.5v0zM640 196q-51 0 -87.5 36.5t-36.5 87.5t36.5 87.5t87.5 36.5t87.5 -36.5t36.5 -87.5t-36.5 -87.5
t-87.5 -36.5v0z" />
    <glyph glyph-name="uniE9D2" unicode="directory&#x32;" 
d="M960 704h-896l64 128h352l32 -64h416zM0 640l64 -640h896l64 640h-1024v0zM512 32l-288 288h224v191h128v-191h224l-288 -288v0z" />
    <glyph glyph-name="uniE9D3" unicode="directory&#x33;" 
d="M960 704h-896l64 128h352l32 -64h416zM0 640l64 -640h896l64 640h-1024v0zM576 256v-191h-128v191h-224l288 288l288 -288h-224v0z" />
    <glyph glyph-name="uniE9D4" unicode="directory&#x34;" 
d="M960 704h-896l64 128h352l32 -64h416zM500 160q0 -44 12 -84.5t34 -75.5h-482l-64 640h1024l-26 -255q-39 35 -90 55t-108 20q-62 0 -116.5 -23.5t-95.5 -64.5t-64.5 -95.5t-23.5 -116.5v0zM800 384q-46 0 -87 -17.5t-71.5 -48t-48 -71.5t-17.5 -87t17.5 -87t48 -71.5
t71.5 -48t87 -17.5t87 17.5t71.5 48t48 71.5t17.5 87t-17.5 87t-48 71.5t-71.5 48t-87 17.5v0zM832 128v-128h-64v128h-128v64h128v128h64v-128h128v-64h-128v0z" />
    <glyph glyph-name="uniE9D5" unicode="directory&#x35;" 
d="M960 704h-896l64 128h352l32 -64h416zM0 640l64 -640h896l64 640h-1024v0zM704 256h-128v-128h-128v128h-128v128h128v128h128v-128h128v-128v0z" />
    <glyph glyph-name="uniE9D6" unicode="directory&#x36;" 
d="M960 704h-896l64 128h352l32 -64h416zM500 160q0 -44 12 -84.5t34 -75.5h-482l-64 640h1024l-26 -255q-39 35 -90 55t-108 20q-62 0 -116.5 -23.5t-95.5 -64.5t-64.5 -95.5t-23.5 -116.5v0zM800 384q-46 0 -87 -17.5t-71.5 -48t-48 -71.5t-17.5 -87t17.5 -87t48 -71.5
t71.5 -48t87 -17.5t87 17.5t71.5 48t48 71.5t17.5 87t-17.5 87t-48 71.5t-71.5 48t-87 17.5v0zM640 128v64h320v-64h-320v0z" />
    <glyph glyph-name="uniE9D7" unicode="directory&#x37;" 
d="M960 704h-896l64 128h352l32 -64h416zM0 640l64 -640h896l64 640h-1024v0zM704 256h-384v128h384v-128v0z" />
    <glyph glyph-name="uniE9D8" unicode="directory&#x38;" 
d="M960 704h-896l64 128h352l32 -64h416zM0 640l64 -640h896l64 640h-1024v0zM430 105l-205 238l58 58l147 -114l275 242l58 -58l-333 -366v0z" />
    <glyph glyph-name="uniE9D9" unicode="directory&#x39;" 
d="M928 768h-416l-32 64h-352l-64 -128h896zM0 640l64 -640h896l64 640h-1024v0zM736 288v0q-2 -2 -37 -37.5t-76.5 -77t-76 -75.5l-34.5 -34l-34 34l-75.5 75.5l-77 77t-36.5 37.5h-1v0q-15 18 -23.5 40.5t-8.5 47.5q0 56 40 96t96 40q39 0 71 -20t49 -52q17 32 49 52
t71 20q56 0 96 -40t40 -96q0 -25 -8.5 -47.5t-23.5 -40.5v0v0z" />
    <glyph glyph-name="uniE9DA" unicode="directory&#x31;&#x30;" 
d="M960 704h-896l64 128h352l32 -64h416l32 -64v0zM0 640l64 -640h896l64 640h-1024v0zM720 460l-140 -140l140 -140l-68 -68l-140 140l-140 -140l-68 68l140 140l-140 140l68 68l140 -140l140 140l68 -68v0z" />
    <glyph glyph-name="uniE9DB" unicode="directory&#x31;&#x31;" 
d="M448 832l128 -128h448v-704h-1024v832h448z" />
    <glyph glyph-name="uniE9DC" unicode="directory&#x31;&#x32;" 
d="M832 0l192 512h-832l-192 -512h832zM128 576l-128 -576v832h288l128 -128h416v-128h-704z" />
    <glyph glyph-name="uniE9DD" unicode="directory&#x31;&#x33;" 
d="M576 704l-128 128h-448v-832h1024v704h-448v0zM549 640h411v-8h-896v16h477l8 -8v0zM64 64v8h896v-8h-896v0zM64 88v16h896v-16h-896v0zM64 120v16h896v-16h-896v0zM64 152v16h896v-16h-896v0zM64 184v16h896v-16h-896v0zM64 216v16h896v-16h-896v0zM64 248v16h896v-16
h-896v0zM64 280v16h896v-16h-896v0zM64 312v16h896v-16h-896v0zM64 344v16h896v-16h-896v0zM64 376v16h896v-16h-896v0zM64 408v16h896v-16h-896v0zM64 440v16h896v-16h-896v0zM64 472v16h896v-16h-896v0zM64 504v16h896v-16h-896v0zM64 536v16h896v-16h-896v0zM64 568v16
h896v-16h-896v0zM64 600v16h896v-16h-896v0zM421 768l8 -8h-365v8h357v0zM445 744l16 -16h-397v16h381v0zM477 712l16 -16h-429v16h413v0zM509 680l16 -16h-461v16h445v0z" />
    <glyph glyph-name="uniE9DE" unicode="directory&#x31;&#x34;" 
d="M421 768l128 -128h411v-576h-896v704h357v0zM448 832h-448v-832h1024v704h-448l-128 128v0z" />
    <glyph glyph-name="uniE9DF" unicode="directory&#x31;&#x35;" 
d="M576 704l-128 128h-448v-832h1024v704h-448v0zM704 256h-128v-128h-128v128h-128v128h128v128h128v-128h128v-128v0z" />
    <glyph glyph-name="uniE9E0" unicode="directory&#x31;&#x36;" 
d="M576 704l-128 128h-448v-832h1024v704h-448v0zM704 256h-384v128h384v-128v0z" />
    <glyph glyph-name="uniE9E1" unicode="directory&#x31;&#x37;" 
d="M576 704l-128 128h-448v-832h1024v704h-448v0zM960 64h-896v704h357l128 -128h411v-576v0zM576 512h-128v-128h-128v-128h128v-128h128v128h128v128h-128v128z" />
    <glyph glyph-name="uniE9E2" unicode="directory&#x31;&#x38;" 
d="M576 704l-128 128h-448v-832h1024v704h-448v0zM960 64h-896v704h357l128 -128h411v-576v0zM320 384h384v-128h-384v128z" />
    <glyph glyph-name="uniE9E3" unicode="directory&#x31;&#x39;" 
d="M576 704l-128 128h-448v-832h1024v704h-448v0zM512 96l-224 224h160v256h128v-256h160l-224 -224v0z" />
    <glyph glyph-name="uniE9E4" unicode="directory&#x32;&#x30;" 
d="M576 704l-128 128h-448v-832h1024v704h-448v0zM512 480l224 -224h-160v-256h-128v256h-160l224 224v0z" />
    <glyph glyph-name="uniE9E5" unicode="directory&#x32;&#x31;" 
d="M576 704l-128 128h-448v-832h1024v704h-448v0zM960 64h-896v704h357l128 -128h411v-576v0zM576 320v192h-128v-192h-192l256 -256l256 256h-192z" />
    <glyph glyph-name="uniE9E6" unicode="directory&#x32;&#x32;" 
d="M576 704l-128 128h-448v-832h1024v704h-448v0zM960 64h-384v192h192l-256 256l-256 -256h192v-192h-384v704h357l128 -128h411v-576v0z" />
    <glyph glyph-name="uniE9E7" unicode="directory&#x32;&#x33;" 
d="M984 704h-944q-20 0 -31.5 -14t-7.5 -33l118 -546q3 -19 20 -33t37 -14h672q20 0 37 14t20 33l118 546q4 19 -7.5 33t-30.5 14h-1zM896 784q0 20 -14 34t-34 14h-432l-32 64h-208q-20 0 -34 -14t-14 -34v-80h768v16v0z" />
    <glyph glyph-name="uniE9E8" unicode="directory&#x32;&#x34;" 
d="M984 576q20 0 31.5 -14t7.5 -33l-118 -418q-3 -19 -20 -33t-37 -14h-672q-20 0 -37 14t-20 33l-118 418q-4 19 7.5 33t30.5 14h945v0zM896 784v-144h-768v208q0 20 14 34t34 14h208l32 -64h432q20 0 34 -14t14 -34v0z" />
    <glyph glyph-name="uniE9E9" unicode="directory&#x32;&#x35;" 
d="M984 704h-88v80q0 20 -14 34t-34 14h-432l-32 64h-208q-20 0 -34 -14t-14 -34v-144h-88q-20 0 -31.5 -14t-7.5 -33l118 -546q3 -19 20 -33t37 -14h672q20 0 37 14t20 33l118 546q4 19 -7.5 33t-30.5 14h-1zM192 832h152l32 -64h456v-64h-640v128v0zM844 128h-664
l-110 512h884l-110 -512v0z" />
    <glyph glyph-name="uniE9EA" unicode="directory&#x32;&#x36;" 
d="M984 576h-88v208q0 20 -14 34t-34 14h-432l-32 64h-208q-20 0 -34 -14t-14 -34v-272h-88q-20 0 -31.5 -14t-7.5 -33l118 -418q3 -19 20 -33t37 -14h672q20 0 37 14t20 33l118 418q4 19 -7.5 33t-30.5 14h-1zM192 832h152l32 -64h456v-192h-640v256v0zM844 128h-664
l-110 384h884l-110 -384v0z" />
    <glyph glyph-name="uniE9EB" unicode="certificate" 
d="M64 960v-1024h896v1024h-896v0zM896 0h-768v896h768v-896v0zM192 768h320v-64h-320v64v0zM192 640h320v-64h-320v64v0zM192 512h320v-64h-320v64v0zM192 385h320v-64h-320v64v0zM192 256h320v-64h-320v64v0zM192 128h640v-64h-640v64v0zM832 741l-37 -37l37 -37v-27h-64
v-64h-27l-37 37l-37 -37h-27v64h-64v27l37 37l-37 37v27h64v64h27l37 -37l37 37h27v-64h64v-27v0zM768 512v-288l-64 64l-64 -64v288h128z" />
    <glyph glyph-name="uniE9EC" unicode="creative&#x2d;commons" 
d="M511 960q-52 0 -101.5 -9.5t-94.5 -28.5t-86 -46.5t-77 -64.5q-37 -37 -65 -79.5t-47.5 -88.5t-29 -95.5t-9.5 -99.5q0 -51 9.5 -100t28.5 -94.5t47 -87.5t65 -79q37 -36 79 -64.5t87.5 -47.5t94.5 -29t99 -10q51 0 100 10t96 29t90 48t80 66q36 35 63.5 76t46 86
t27.5 94.5t9 102.5q0 52 -9.5 101.5t-28 95t-46 87.5t-63.5 78q-37 37 -79 65t-88 47t-95.5 28.5t-102.5 9.5v0zM513 867q43 0 83.5 -8t78 -23.5t71.5 -38.5t64 -53q30 -29 52.5 -63t37.5 -71.5t23 -78t8 -83.5t-7.5 -83.5t-22.5 -77.5t-37.5 -70t-52.5 -62q-31 -31 -66 -54
t-73 -39t-78 -24t-81 -8q-42 0 -82 8t-77.5 23.5t-71.5 38.5t-64 53t-53 64.5t-39 72t-24.5 77.5t-8.5 81q0 42 8.5 82t24.5 77.5t39 72.5t53 65t63.5 53t70.5 38.5t77.5 23t83.5 7.5v0zM506 533q-22 40 -57 57t-78 17q-63 0 -106.5 -42t-43.5 -117q0 -76 42.5 -117.5
t109.5 -41.5q44 0 79 22t56 58l-64 32q-10 -25 -26 -34.5t-37 -9.5q-35 0 -51.5 26t-16.5 65t15 65t53 26q11 0 28 -8t29 -34l68 36v0zM801 533q-21 40 -56.5 57t-78.5 17q-63 0 -106.5 -42t-43.5 -117q0 -76 42.5 -117.5t110.5 -41.5q43 0 78.5 22t55.5 58l-63 32
q-11 -25 -27 -34.5t-36 -9.5q-36 0 -52.5 26t-16.5 65t15.5 65t53.5 26q10 0 27 -8t29 -34l68 36v0z" />
    <glyph glyph-name="uniE9ED" unicode="price&#x2d;tag" 
d="M384 448h64v-128h-64v128zM512 256h64v-128h-64v128zM801 674l-231 252q-13 14 -35 24t-40 10h-30q-18 0 -40 -10t-35 -24l-231 -252q-13 -14 -22 -38t-9 -44v-608q0 -20 13 -34t31 -14h616q18 0 31 14t13 34v608q0 20 -9 44t-22 38v0zM640 448h-128v-128h128v-256h-128
v-64h-64v64h-128v64h128v128h-128v256h128v64h64v-64h128v-64v0zM530 800q0 -21 -14.5 -35.5t-35.5 -14.5t-35.5 14.5t-14.5 35.5t14.5 35.5t35.5 14.5t35.5 -14.5t14.5 -35.5v0z" />
    <glyph glyph-name="uniE9EE" unicode="price&#x2d;tag&#x32;" 
d="M976 960h-384q-20 0 -44 -10t-38 -24l-476 -476q-14 -14 -14 -34t14 -34l412 -412q14 -14 34 -14t34 14l476 476q14 14 24 38t10 44v384q0 20 -14 34t-34 14v0zM736 576q-40 0 -68 28t-28 68t28 68t68 28t68 -28t28 -68t-28 -68t-68 -28v0z" />
    <glyph glyph-name="uniE9EF" unicode="price&#x2d;tags" horiz-adv-x="1280" 
d="M1232 960h-384q-20 0 -44 -10t-38 -24l-476 -476q-14 -14 -14 -34t14 -34l412 -412q14 -14 34 -14t34 14l476 476q14 14 24 38t10 44v384q0 20 -14 34t-34 14v0zM992 576q-40 0 -68 28t-28 68t28 68t68 28t68 -28t28 -68t-28 -68t-68 -28v0zM128 416l544 544h-80
q-20 0 -44 -10t-38 -24l-476 -476q-14 -14 -14 -34t14 -34l412 -412q14 -14 34 -14t34 14l30 30l-416 416v0z" />
    <glyph glyph-name="uniE9F0" unicode="price&#x2d;tag&#x33;" 
d="M960 896v-368q0 -7 -5 -19.5t-10 -17.5l-465 -464l-389 389l464 465q5 5 17.5 10t19.5 5h368v0zM976 960h-384q-20 0 -44 -10t-38 -24l-476 -476q-14 -14 -14 -34t14 -34l412 -412q7 -7 16 -10.5t18 -3.5t18 3.5t16 10.5l476 476q14 14 24 38t10 44v384q0 20 -14 34
t-34 14v0v0zM832 672q0 -40 -28 -68t-68 -28t-68 28t-28 68t28 68t68 28t68 -28t28 -68v0z" />
    <glyph glyph-name="uniE9F1" unicode="price&#x2d;tags&#x32;" horiz-adv-x="1280" 
d="M1216 896v-368q0 -7 -5 -19.5t-10 -17.5l-465 -464l-389 389l464 465q5 5 17.5 10t19.5 5h368v0zM1232 960h-384q-20 0 -44 -10t-38 -24l-476 -476q-14 -14 -14 -34t14 -34l412 -412q7 -7 16 -10.5t18 -3.5t18 3.5t16 10.5l476 476q14 14 24 38t10 44v384q0 20 -14 34
t-34 14v0v0zM1088 672q0 -40 -28 -68t-68 -28t-68 28t-28 68t28 68t68 28t68 -28t28 -68v0zM635 960h-43q-20 0 -44 -10t-38 -24l-476 -476q-14 -14 -14 -34t14 -34l412 -412q7 -7 16 -10.5t18 -3.5t18 3.5t16 10.5l11 11l-434 435l544 544v0z" />
    <glyph glyph-name="uniE9F2" unicode="price&#x2d;tag&#x34;" 
d="M990 450l-284 284q-14 14 -38 24t-44 10h-576q-20 0 -34 -14t-14 -34v-608q0 -20 14 -34t34 -14h576q20 0 44 10t38 24l284 284q14 14 14 34t-14 34v0zM672 320q-40 0 -68 28t-28 68t28 68t68 28t68 -28t28 -68t-28 -68t-68 -28v0z" />
    <glyph glyph-name="uniE9F3" unicode="price&#x2d;tags&#x33;" horiz-adv-x="1152" 
d="M1118 322l-284 284q-14 14 -38 24t-44 10h-576q-20 0 -34 -14t-14 -34v-608q0 -20 14 -34t34 -14h576q20 0 44 10t38 24l284 284q14 14 14 34t-14 34v0zM800 192q-40 0 -68 28t-28 68t28 68t68 28t68 -28t28 -68t-28 -68t-68 -28v0zM64 704h672l-30 30q-14 14 -38 24
t-44 10h-576q-20 0 -34 -14t-14 -34v-608q0 -20 14 -34t34 -14h16v640v0z" />
    <glyph glyph-name="uniE9F4" unicode="price&#x2d;tag&#x35;" 
d="M624 704q7 0 19.5 -5t17.5 -10l272 -273l-272 -273q-5 -5 -17.5 -10t-19.5 -5h-560v576h560v0zM624 768h-576q-20 0 -34 -14t-14 -34v-608q0 -20 14 -34t34 -14h576q20 0 44 10t38 24l284 284q14 14 14 34t-14 34l-284 284q-14 14 -38 24t-44 10v0v0zM768 416
q0 -40 -28 -68t-68 -28t-68 28t-28 68t28 68t68 28t68 -28t28 -68v0z" />
    <glyph glyph-name="uniE9F5" unicode="price&#x2d;tags&#x34;" horiz-adv-x="1152" 
d="M752 576q7 0 19.5 -5t17.5 -10l272 -273l-272 -273q-5 -5 -17.5 -10t-19.5 -5h-560v576h560v0zM752 640h-576q-20 0 -34 -14t-14 -34v-608q0 -20 14 -34t34 -14h576q20 0 44 10t38 24l284 284q14 14 14 34t-14 34l-284 284q-14 14 -38 24t-44 10v0v0zM896 288
q0 -40 -28 -68t-68 -28t-68 28t-28 68t28 68t68 28t68 -28t28 -68v0zM64 128v576h672l-30 30q-14 14 -38 24t-44 10h-576q-20 0 -34 -14t-14 -34v-608q0 -20 14 -34t34 -14h16v64v0z" />
    <glyph glyph-name="uniE9F6" unicode="barcode" 
d="M0 768h128v-640h-128v640zM192 768h64v-640h-64v640zM320 768h64v-640h-64v640zM512 768h64v-640h-64v640zM768 768h64v-640h-64v640zM960 768h64v-640h-64v640zM640 768h32v-640h-32v640zM448 768h32v-640h-32v640zM864 768h32v-640h-32v640z" />
    <glyph glyph-name="uniE9F7" unicode="barcode&#x32;" 
d="M0 832h128v-640h-128v640zM192 832h64v-640h-64v640zM320 832h64v-640h-64v640zM512 832h64v-640h-64v640zM768 832h64v-640h-64v640zM960 832h64v-640h-64v640zM640 832h32v-640h-32v640zM448 832h32v-640h-32v640zM864 832h32v-640h-32v640zM0 128h64v-64h-64v64z
M192 128h64v-64h-64v64zM320 128h64v-64h-64v64zM640 128h64v-64h-64v64zM960 128h64v-64h-64v64zM768 128h128v-64h-128v64zM448 128h128v-64h-128v64z" />
    <glyph glyph-name="uniE9F8" unicode="qrcode" 
d="M320 896h-256v-256h256v256v0zM384 960v0v-384h-384v384h384v0zM128 832h128v-128h-128v128zM960 896h-256v-256h256v256v0zM1024 960v0v-384h-384v384h384v0zM768 832h128v-128h-128v128zM320 256h-256v-256h256v256v0zM384 320v0v-384h-384v384h384v0zM128 192h128
v-128h-128v128zM448 960h64v-64h-64v64zM512 896h64v-64h-64v64zM448 832h64v-64h-64v64zM512 768h64v-64h-64v64zM448 704h64v-64h-64v64zM512 640h64v-64h-64v64zM448 576h64v-64h-64v64zM448 448h64v-64h-64v64zM512 384h64v-64h-64v64zM448 320h64v-64h-64v64zM512 256
h64v-64h-64v64zM448 192h64v-64h-64v64zM512 128h64v-64h-64v64zM448 64h64v-64h-64v64zM512 0h64v-64h-64v64zM960 448h64v-64h-64v64zM64 448h64v-64h-64v64zM128 512h64v-64h-64v64zM0 512h64v-64h-64v64zM256 512h64v-64h-64v64zM320 448h64v-64h-64v64zM384 512h64v-64
h-64v64zM576 448h64v-64h-64v64zM640 512h64v-64h-64v64zM704 448h64v-64h-64v64zM768 512h64v-64h-64v64zM832 448h64v-64h-64v64zM896 512h64v-64h-64v64zM960 320h64v-64h-64v64zM576 320h64v-64h-64v64zM640 384h64v-64h-64v64zM704 320h64v-64h-64v64zM832 320h64v-64
h-64v64zM896 384h64v-64h-64v64zM960 192h64v-64h-64v64zM576 192h64v-64h-64v64zM640 256h64v-64h-64v64zM768 256h64v-64h-64v64zM832 192h64v-64h-64v64zM896 256h64v-64h-64v64zM960 64h64v-64h-64v64zM640 128h64v-64h-64v64zM704 64h64v-64h-64v64zM768 128h64v-64
h-64v64zM832 64h64v-64h-64v64zM640 0h64v-64h-64v64zM768 0h64v-64h-64v64zM896 0h64v-64h-64v64z" />
    <glyph glyph-name="uniE9F9" unicode="ticket" 
d="M576 640l128 -128l-256 -256l-128 128zM1002 662l-74 74l-32 -32q-12 -12 -28.5 -19.5t-35.5 -7.5q-37 0 -64 27t-27 64q0 19 7.5 35.5t19.5 28.5l32 32l-74 74q-22 22 -54 22t-54 -22l-596 -596q-22 -22 -22 -54t22 -54l74 -74l32 32q12 12 28.5 19.5t35.5 7.5
q37 0 64 -27t27 -64q0 -19 -7.5 -35.5t-19.5 -28.5l-32 -32l74 -74q22 -22 54 -22t54 22l596 596q22 22 22 54t-22 54v0zM448 128l-256 256l384 384l256 -256l-384 -384v0z" />
    <glyph glyph-name="uniE9FA" unicode="ticket&#x32;" horiz-adv-x="1088" 
d="M1024 576v144q0 20 -14 34t-34 14h-736q7 0 11.5 -4.5t4.5 -11.5t-4.5 -11.5t-11.5 -4.5t-11.5 4.5t-4.5 11.5t4.5 11.5t11.5 4.5h-192q-20 0 -34 -14t-14 -34v-144q53 0 90.5 -37.5t37.5 -90.5t-37.5 -90.5t-90.5 -37.5v-144q0 -20 14 -34t34 -14h192q-7 0 -11.5 4.5
t-4.5 11.5t4.5 11.5t11.5 4.5t11.5 -4.5t4.5 -11.5t-4.5 -11.5t-11.5 -4.5h736q20 0 34 14t14 34v144q-53 0 -90.5 37.5t-37.5 90.5t37.5 90.5t90.5 37.5v0zM240 192q-7 0 -11.5 4.5t-4.5 11.5t4.5 11.5t11.5 4.5t11.5 -4.5t4.5 -11.5t-4.5 -11.5t-11.5 -4.5v0zM240 256
q-7 0 -11.5 4.5t-4.5 11.5t4.5 11.5t11.5 4.5t11.5 -4.5t4.5 -11.5t-4.5 -11.5t-11.5 -4.5v0zM240 320q-7 0 -11.5 4.5t-4.5 11.5t4.5 11.5t11.5 4.5t11.5 -4.5t4.5 -11.5t-4.5 -11.5t-11.5 -4.5v0zM240 384q-7 0 -11.5 4.5t-4.5 11.5t4.5 11.5t11.5 4.5t11.5 -4.5
t4.5 -11.5t-4.5 -11.5t-11.5 -4.5v0zM240 480q-7 0 -11.5 4.5t-4.5 11.5t4.5 11.5t11.5 4.5t11.5 -4.5t4.5 -11.5t-4.5 -11.5t-11.5 -4.5v0zM240 544q-7 0 -11.5 4.5t-4.5 11.5t4.5 11.5t11.5 4.5t11.5 -4.5t4.5 -11.5t-4.5 -11.5t-11.5 -4.5v0zM240 608q-7 0 -11.5 4.5
t-4.5 11.5t4.5 11.5t11.5 4.5t11.5 -4.5t4.5 -11.5t-4.5 -11.5t-11.5 -4.5v0zM240 672q-7 0 -11.5 4.5t-4.5 11.5t4.5 11.5t11.5 4.5t11.5 -4.5t4.5 -11.5t-4.5 -11.5t-11.5 -4.5v0zM664 283l-120 87l-120 -87l46 141l-120 87h148l46 141l46 -141h148l-120 -87l46 -141v0z
" />
    <glyph glyph-name="uniE9FB" unicode="show" horiz-adv-x="1088" 
d="M1087 960q-42 -15 -87 -29t-93 -24.5t-99 -17.5t-104 -7t-104 7t-99 17.5t-93 24.5t-87 29q0 -15 -0.5 -30.5t-0.5 -31.5q0 -146 30 -274.5t82.5 -224.5t122 -151.5t149.5 -55.5t149.5 55.5t122 151.5t82.5 224.5t30 274.5q0 16 -0.5 31.5t-0.5 30.5v0zM448 704
q0 27 28 45.5t68 18.5t68 -18.5t28 -45.5h-192v0zM704 320q-63 0 -112.5 54.5t-69.5 139.5q35 -31 82 -48.5t100 -17.5t100 17.5t82 48.5q-20 -85 -69.5 -139.5t-112.5 -54.5v0zM768 704q0 27 28 45.5t68 18.5t68 -18.5t28 -45.5h-192v0zM508 186q-41 32 -76.5 76t-65.5 99
q-27 50 -48.5 106.5t-36.5 117.5q-77 5 -147.5 19t-132.5 36q0 -14 -0.5 -28t-0.5 -29q0 -134 27.5 -252t75.5 -205.5t112 -138.5t137 -51q37 0 72 13.5t67 39t60.5 62t52.5 81.5q-25 9 -49 22.5t-47 31.5v0zM128 448h128q0 -27 -18.5 -45.5t-45.5 -18.5t-45.5 18.5
t-18.5 45.5v0zM352 130q-32 0 -62.5 -6t-57.5 -17q22 40 53 63.5t67 23.5t67 -23.5t53 -63.5q-27 11 -57.5 17t-62.5 6v0z" />
    <glyph glyph-name="uniE9FC" unicode="store" 
d="M896 0v384h-768v-384h-64v-64h896v64h-64v0zM512 64h-256v192h256v-192v0zM896 896h-768l-128 -256v-192h192v128h64v-128h128v128h64v-128h128v128h64v-128h128v128h64v-128h192v192z" />
    <glyph glyph-name="uniE9FD" unicode="store&#x32;" 
d="M416 384h-192q-13 0 -22.5 -9.5t-9.5 -22.5v-192q0 -13 9.5 -22.5t22.5 -9.5h192q13 0 22.5 9.5t9.5 22.5v192q0 13 -9.5 22.5t-22.5 9.5v0zM384 192h-128v128h128v-128v0zM1024 576v288q0 13 -9.5 22.5t-22.5 9.5h-960q-13 0 -22.5 -9.5t-9.5 -22.5v-288
q0 -35 17.5 -64.5t46.5 -46.5v-465h-32q-13 0 -22.5 -9.5t-9.5 -22.5t9.5 -22.5t22.5 -9.5h960q13 0 22.5 9.5t9.5 22.5t-9.5 22.5t-22.5 9.5h-32v465q29 17 46.5 46.5t17.5 64.5v0zM640 832h128v-256q0 -26 -19 -45t-45 -19t-45 19t-19 45v256v0zM256 832h128v-256
q0 -26 -19 -45t-45 -19t-45 19t-19 45v256v0zM768 0h-128v256h128v-256v0zM896 0h-64v288q0 13 -9.5 22.5t-22.5 9.5h-192q-13 0 -22.5 -9.5t-9.5 -22.5v-288h-448v448q29 0 53.5 12t42.5 31q18 -19 42.5 -31t53.5 -12t53.5 12t42.5 31q18 -19 42.5 -31t53.5 -12t53.5 12
t42.5 31q18 -19 42.5 -31t53.5 -12t53.5 12t42.5 31q18 -19 42.5 -31t53.5 -12v-448v0z" />
    <glyph glyph-name="uniE9FE" unicode="cart" 
d="M384 32q0 -40 -28 -68t-68 -28t-68 28t-28 68t28 68t68 28t68 -28t28 -68v0zM1024 32q0 -40 -28 -68t-68 -28t-68 28t-28 68t28 68t68 28t68 -28t28 -68v0zM1024 448v384h-768q0 27 -18.5 45.5t-45.5 18.5h-192v-64h128l48 -412q-22 -18 -35 -44t-13 -56
q0 -53 37.5 -90.5t90.5 -37.5h768v64h-768q-27 0 -45.5 18.5t-18.5 45.5v0v1l832 127v0z" />
    <glyph glyph-name="uniE9FF" unicode="cart&#x32;" 
d="M847 384q27 0 51 18t31 44l93 324q7 26 -6.5 44t-40.5 18h-655q0 53 -37.5 90.5t-90.5 37.5h-192v-128h192v-544q0 -40 28 -68t68 -28h608q27 0 45.5 18.5t18.5 45.5t-18.5 45.5t-45.5 18.5h-576v64h527v0zM320 704h579l-55 -192h-524v192v0zM384 32q0 -40 -28 -68
t-68 -28t-68 28t-28 68t28 68t68 28t68 -28t28 -68v0zM960 32q0 -40 -28 -68t-68 -28t-68 28t-28 68t28 68t68 28t68 -28t28 -68v0z" />
    <glyph glyph-name="uniEA00" unicode="cart&#x33;" 
d="M847 384q27 0 51 18t31 44l93 324q7 26 -6.5 44t-40.5 18h-655q0 53 -37.5 90.5t-90.5 37.5h-192v-128h192v-544q0 -40 28 -68t68 -28h608q27 0 45.5 18.5t18.5 45.5t-18.5 45.5t-45.5 18.5h-576v64h527v0zM320 512v8h526l-2 -8h-524v0zM883 648l-5 -16h-558v16h563v0z
M320 664v16h572l-5 -16h-567v0zM874 616l-5 -16h-549v16h554v0zM865 584l-5 -16h-540v16h545v0zM855 552l-4 -16h-531v16h535v0zM899 704l-2 -8h-577v8h579v0zM384 32q0 -40 -28 -68t-68 -28t-68 28t-28 68t28 68t68 28t68 -28t28 -68v0zM960 32q0 -40 -28 -68t-68 -28
t-68 28t-28 68t28 68t68 28t68 -28t28 -68v0z" />
    <glyph glyph-name="uniEA01" unicode="cart&#x34;" 
d="M978 766q25 -8 38 -31t6 -49l-128 -448q-6 -20 -23.5 -33t-38.5 -13h-544q-24 0 -42.5 16t-21.5 40l-56 456h-104q-27 0 -45.5 18.5t-18.5 45.5t18.5 45.5t45.5 18.5h160q24 0 42.5 -16t21.5 -40l56 -456h440l114 402q8 25 31 38t49 6v0zM256 32q0 40 28 68t68 28t68 -28
t28 -68t-28 -68t-68 -28t-68 28t-28 68v0zM640 32q0 40 28 68t68 28t68 -28t28 -68t-28 -68t-68 -28t-68 28t-28 68v0z" />
    <glyph glyph-name="uniEA02" unicode="cart&#x35;" 
d="M978 766q-26 7 -49 -6t-31 -38l-5 -18h-597l-8 72q-3 24 -21.5 40t-42.5 16h-160q-27 0 -45.5 -18.5t-18.5 -45.5t18.5 -45.5t45.5 -18.5h104l56 -456q3 -24 21.5 -40t42.5 -16h544q21 0 38.5 13t23.5 33l128 448q7 26 -6 49t-38 31v0zM512 448v64h128v-64h-128v0z
M640 384v-64h-128v64h128v0zM512 576v64h128v-64h-128v0zM304 640h144v-64h-136l-8 64v0zM320 512h128v-64h-120l-8 64v0zM336 384h112v-64h-104l-8 64v0zM784 320h-80v64h98l-18 -64v0zM820 448h-116v64h135l-19 -64v0zM857 576h-153v64h171l-18 -64v0zM256 32q0 40 28 68
t68 28t68 -28t28 -68t-28 -68t-68 -28t-68 28t-28 68v0zM640 32q0 40 28 68t68 28t68 -28t28 -68t-28 -68t-68 -28t-68 28t-28 68v0z" />
    <glyph glyph-name="uniEA03" unicode="cart&#x36;" 
d="M832 192h-544q-24 0 -42.5 16t-21.5 40l-56 456h-104q-27 0 -45.5 18.5t-18.5 45.5t18.5 45.5t45.5 18.5h160q24 0 42.5 -16t21.5 -40l56 -456h440l114 402q8 25 31 38t49 6q25 -8 38 -31t6 -49l-128 -448q-6 -20 -23.5 -33t-38.5 -13v0zM256 32q0 40 28 68t68 28t68 -28
t28 -68t-28 -68t-68 -28t-68 28t-28 68v0zM640 32q0 40 28 68t68 28t68 -28t28 -68t-28 -68t-68 -28t-68 28t-28 68v0zM768 512h-128v-128h-128v128h-128v128h128v128h128v-128h128v-128z" />
    <glyph glyph-name="uniEA04" unicode="cart&#x37;" 
d="M978 766q25 -8 38 -31t6 -49l-128 -448q-6 -20 -23.5 -33t-38.5 -13h-544q-24 0 -42.5 16t-21.5 40l-56 456h-104q-27 0 -45.5 18.5t-18.5 45.5t18.5 45.5t45.5 18.5h160q24 0 42.5 -16t21.5 -40l56 -456h440l114 402q8 25 31 38t49 6v0zM256 32q0 40 28 68t68 28t68 -28
t28 -68t-28 -68t-68 -28t-68 28t-28 68v0zM640 32q0 40 28 68t68 28t68 -28t28 -68t-28 -68t-68 -28t-68 28t-28 68v0zM364 640h148v192h128v-192h148l-212 -228z" />
    <glyph glyph-name="uniEA05" unicode="cart&#x38;" 
d="M978 766q25 -8 38 -31t6 -49l-128 -448q-6 -20 -23.5 -33t-38.5 -13h-544q-24 0 -42.5 16t-21.5 40l-56 456h-104q-27 0 -45.5 18.5t-18.5 45.5t18.5 45.5t45.5 18.5h160q24 0 42.5 -16t21.5 -40l56 -456h440l114 402q8 25 31 38t49 6v0zM256 32q0 40 28 68t68 28t68 -28
t28 -68t-28 -68t-68 -28t-68 28t-28 68v0zM640 32q0 40 28 68t68 28t68 -28t28 -68t-28 -68t-68 -28t-68 28t-28 68v0zM788 576h-148v-192h-128v192h-148l212 228z" />
    <glyph glyph-name="uniEA06" unicode="basket" 
d="M813 576l-178 232q2 5 3.5 11t1.5 13q0 27 -18.5 45.5t-45.5 18.5t-45.5 -18.5t-18.5 -45.5t18.5 -45.5t45.5 -18.5h4t4 1l148 -193h-440l148 193q2 -1 4 -1h4q27 0 45.5 18.5t18.5 45.5t-18.5 45.5t-45.5 18.5t-45.5 -18.5t-18.5 -45.5q0 -7 1.5 -13t3.5 -11l-178 -232
h-211v-128h64l64 -512h768l64 512h64v128h-211v0zM320 64h-128v128h128v-128v0zM320 320h-128v128h128v-128v0zM576 64h-128v128h128v-128v0zM576 320h-128v128h128v-128v0zM832 64h-128v128h128v-128v0zM832 320h-128v128h128v-128v0z" />
    <glyph glyph-name="uniEA07" unicode="bag" 
d="M704 768v32q0 66 -47 113t-113 47q-27 0 -51.5 -8.5t-44.5 -23.5q-20 15 -44.5 23.5t-51.5 8.5q-66 0 -113 -47t-47 -113v-109l-128 -19v-672h128l64 -64l640 96v672l-192 64v0zM192 64h-64v553l64 9v-562v0zM544 896q40 0 68 -28t28 -68v-42l-128 -19v61q0 22 -5.5 42
t-15.5 38q11 7 24.5 11.5t28.5 4.5v0zM256 800q0 40 28 68t68 28q15 0 28.5 -4.5t24.5 -11.5q-10 -18 -15.5 -38t-5.5 -42v-80l-128 -19v99v0zM832 87l-512 -77v543l512 77v-543v0z" />
    <glyph glyph-name="uniEA08" unicode="bag&#x32;" 
d="M704 768v32q0 66 -47 113t-113 47q-27 0 -51.5 -8.5t-44.5 -23.5q-20 15 -44.5 23.5t-51.5 8.5q-66 0 -113 -47t-47 -113v-109l-128 -19v-672h128l64 -64l640 96v672l-192 64v0zM128 120v16h64v-16h-64v0zM192 104v-16h-64v16h64v0zM128 152v16h64v-16h-64v0zM128 184v16
h64v-16h-64v0zM128 216v16h64v-16h-64v0zM128 248v16h64v-16h-64v0zM128 280v16h64v-16h-64v0zM128 312v16h64v-16h-64v0zM128 344v16h64v-16h-64v0zM128 376v16h64v-16h-64v0zM128 408v16h64v-16h-64v0zM128 440v16h64v-16h-64v0zM128 472v16h64v-16h-64v0zM128 504v16h64
v-16h-64v0zM128 536v16h64v-16h-64v0zM128 568v16h64v-16h-64v0zM128 600v16h64v-16h-64v0zM128 64v8h64v-8h-64v0zM760 619l16 2v-542l-16 -3v543v0zM744 74l-16 -2v542l16 2v-542v0zM792 624l16 2v-542l-16 -3v543v0zM712 612v-543l-16 -2v542l16 3v0zM504 580l16 3v-543
l-16 -2v542v0zM488 36l-16 -3v543l16 2v-542v0zM536 585l16 3v-543l-16 -2v542v0zM568 590l16 2v-542l-16 -2v542v0zM600 595l16 2v-542l-16 -3v543v0zM632 600l16 2v-542l-16 -3v543v0zM664 604l16 3v-543l-16 -2v542v0zM544 896q40 0 68 -28t28 -68v-42l-128 -19v61
q0 22 -5.5 42t-15.5 38q11 7 24.5 11.5t28.5 4.5v0zM456 573v-542l-16 -3v543l16 2v0zM360 559v-543l-16 -2v542l16 3v0zM376 561l16 3v-543l-16 -2v542v0zM408 566l16 2v-542l-16 -2v542v0zM256 800q0 40 28 68t68 28q15 0 28.5 -4.5t24.5 -11.5q-10 -18 -15.5 -38
t-5.5 -42v-80l-128 -19v99v0zM320 553l8 1v-542l-8 -2v543v0zM832 87l-8 -1v542l8 2v-543v0z" />
    <glyph glyph-name="uniEA09" unicode="discount" 
d="M640 320h64v-128h-64v128v0zM320 704h64v-128h-64v128v0zM512 960q-106 0 -199.5 -40t-163 -109.5t-109.5 -163t-40 -199.5t40 -199.5t109.5 -163t163 -109.5t199.5 -40t199.5 40t163 109.5t109.5 163t40 199.5t-40 199.5t-109.5 163t-163 109.5t-199.5 40v0zM256 736
q0 13 9.5 22.5t22.5 9.5h128q13 0 22.5 -9.5t9.5 -22.5v-192q0 -13 -9.5 -22.5t-22.5 -9.5h-128q-13 0 -22.5 9.5t-9.5 22.5v192v0zM768 160q0 -13 -9.5 -22.5t-22.5 -9.5h-128q-13 0 -22.5 9.5t-9.5 22.5v192q0 13 9.5 22.5t22.5 9.5h128q13 0 22.5 -9.5t9.5 -22.5v-192v0z
M764 714l-448 -576q-5 -7 -12.5 -10.5t-15.5 -3.5q-6 0 -11.5 2t-10.5 6q-12 9 -14 23.5t8 26.5l448 576q9 12 23.5 14t26.5 -8q12 -9 14 -23.5t-8 -26.5v0z" />
    <glyph glyph-name="uniEA0A" unicode="coins" 
d="M671 643q-18 0 -35 -2t-33 -5q-2 1 -3 2t-3 2q21 14 32 30.5t11 33.5v64q0 27 -25 50t-68.5 40.5t-102 27.5t-124.5 10t-124.5 -10t-102 -27.5t-68.5 -40.5t-25 -50v-64q0 -17 11 -33.5t32 -30.5q-21 -14 -32 -30.5t-11 -33.5v-64q0 -17 11 -33.5t32 -30.5
q-21 -14 -32 -30.5t-11 -33.5v-64q0 -17 11 -33.5t32 -30.5q-21 -14 -32 -30.5t-11 -33.5v-64q0 -27 25 -50t68.5 -40.5t102 -27.5t124.5 -10q35 0 68.5 3t63.5 8q45 -35 101 -55t118 -20q73 0 137.5 28t112 75.5t75.5 112t28 137.5q0 74 -28 138t-75.5 112t-112 76
t-137.5 28v0zM32 768q0 14 20 30.5t54 30.5q42 17 97.5 26t116.5 9t116.5 -9t97.5 -26q34 -14 54 -30.5t20 -30.5t-20 -30.5t-54 -30.5q-13 -5 -28.5 -10t-32.5 -9q-34 -8 -73 -12t-80 -4t-80 4t-73 12q-17 4 -32.5 9t-28.5 10q-34 14 -54 30.5t-20 30.5v0zM32 384
q0 11 11.5 23t30.5 23q44 -21 108 -33.5t138 -12.5h5.5h4.5q-6 -23 -9.5 -46.5t-3.5 -48.5v-0.5v-0.5q-40 0 -78.5 4t-71.5 12q-17 4 -32.5 9t-28.5 10q-34 14 -54 30.5t-20 30.5v0zM320 96q-61 0 -116.5 9t-97.5 26q-34 14 -54 30.5t-20 30.5q0 11 11.5 23t30.5 23
q44 -21 108 -33.5t138 -12.5h5.5h5.5q7 -25 18 -49t25 -45q-13 -1 -26.5 -1.5t-27.5 -0.5v0zM320 480q-41 0 -80 4t-73 12q-17 4 -32.5 9t-28.5 10q-34 14 -54 30.5t-20 30.5q0 11 11.5 23t30.5 23q44 -21 108 -33.5t138 -12.5q49 0 94.5 5.5t83.5 16.5q-37 -21 -68.5 -50.5
t-55.5 -65.5q-13 -1 -26.5 -1.5t-27.5 -0.5v0zM671 0q-60 0 -113 23t-92 62t-61.5 91.5t-22.5 112.5t22.5 113t61.5 92t92 61.5t113 22.5t112.5 -22.5t91.5 -61.5t62 -92t23 -113t-23 -112.5t-62 -91.5t-91.5 -62t-112.5 -23v0zM704 512h-64v-64h-128v-192h128v-64h-128v-64
h128v-64h64v64h128v192h-128v64h128v64h-128v64v0zM640 320h-64v64h64v-64v0zM768 256v-64h-64v64h64v0z" />
    <glyph glyph-name="uniEA0B" unicode="coin&#x2d;dollar" 
d="M480 896q-99 0 -186.5 -37.5t-153 -103t-103 -153t-37.5 -186.5t37.5 -186.5t103 -153t153 -103t186.5 -37.5t186.5 37.5t153 103t103 153t37.5 186.5t-37.5 186.5t-103 153t-153 103t-186.5 37.5v0zM480 32q-80 0 -149.5 30t-122 82.5t-82.5 122t-30 149.5t30 149.5
t82.5 122t122 82.5t149.5 30t149.5 -30t122 -82.5t82.5 -122t30 -149.5t-30 -149.5t-82.5 -122t-122 -82.5t-149.5 -30v0zM512 448v128h128v64h-128v64h-64v-64h-128v-256h128v-128h-128v-64h128v-64h64v64h128v256h-128v0zM448 448h-64v128h64v-128v0zM576 256h-64v128h64
v-128v0z" />
    <glyph glyph-name="uniEA0C" unicode="coin&#x2d;euro" 
d="M480 896q-99 0 -186.5 -37.5t-153 -103t-103 -153t-37.5 -186.5t37.5 -186.5t103 -153t153 -103t186.5 -37.5t186.5 37.5t153 103t103 153t37.5 186.5t-37.5 186.5t-103 153t-153 103t-186.5 37.5v0zM480 32q-80 0 -149.5 30t-122 82.5t-82.5 122t-30 149.5t30 149.5
t82.5 122t122 82.5t149.5 30t149.5 -30t122 -82.5t82.5 -122t30 -149.5t-30 -149.5t-82.5 -122t-122 -82.5t-149.5 -30v0zM671 316q-12 6 -24.5 3t-19.5 -15q-13 -22 -35.5 -35t-47.5 -13h-128q-31 0 -56 18t-34 46h154q13 0 22.5 9.5t9.5 22.5t-9.5 22.5t-22.5 9.5h-160v64
h160q13 0 22.5 9.5t9.5 22.5t-9.5 22.5t-22.5 9.5h-154q9 28 34 46t56 18h128q25 0 47.5 -13t35.5 -35q7 -12 19.5 -15t24.5 3q11 7 14.5 20t-3.5 24q-21 37 -58 58.5t-80 21.5h-128q-58 0 -102 -36.5t-55 -91.5h-35q-13 0 -22.5 -9.5t-9.5 -22.5t9.5 -22.5t22.5 -9.5h32
v-64h-32q-13 0 -22.5 -9.5t-9.5 -22.5t9.5 -22.5t22.5 -9.5h35q11 -55 55 -91.5t102 -36.5h128q43 0 80 21.5t58 58.5q7 11 3.5 24t-14.5 20v0z" />
    <glyph glyph-name="uniEA0D" unicode="coin&#x2d;pound" 
d="M480 896q-99 0 -186.5 -37.5t-153 -103t-103 -153t-37.5 -186.5t37.5 -186.5t103 -153t153 -103t186.5 -37.5t186.5 37.5t153 103t103 153t37.5 186.5t-37.5 186.5t-103 153t-153 103t-186.5 37.5v0zM480 32q-80 0 -149.5 30t-122 82.5t-82.5 122t-30 149.5t30 149.5
t82.5 122t122 82.5t149.5 30t149.5 -30t122 -82.5t82.5 -122t30 -149.5t-30 -149.5t-82.5 -122t-122 -82.5t-149.5 -30v0zM608 256h-224v128h96q13 0 22.5 9.5t9.5 22.5t-9.5 22.5t-22.5 9.5h-96v32q0 40 28 68t68 28q26 0 48 -13t35 -35q7 -12 19.5 -15t24.5 3
q11 7 14.5 20t-2.5 24q-22 37 -59 58.5t-80 21.5q-66 0 -113 -47t-47 -113v-32h-32q-13 0 -22.5 -9.5t-9.5 -22.5t9.5 -22.5t22.5 -9.5h32v-192h288q13 0 22.5 9.5t9.5 22.5t-9.5 22.5t-22.5 9.5v0z" />
    <glyph glyph-name="uniEA0E" unicode="coin&#x2d;yen" 
d="M480 896q-99 0 -186.5 -37.5t-153 -103t-103 -153t-37.5 -186.5t37.5 -186.5t103 -153t153 -103t186.5 -37.5t186.5 37.5t153 103t103 153t37.5 186.5t-37.5 186.5t-103 153t-153 103t-186.5 37.5v0zM480 32q-80 0 -149.5 30t-122 82.5t-82.5 122t-30 149.5t30 149.5
t82.5 122t122 82.5t149.5 30t149.5 -30t122 -82.5t82.5 -122t30 -149.5t-30 -149.5t-82.5 -122t-122 -82.5t-149.5 -30v0zM608 384q13 0 22.5 9.5t9.5 22.5t-9.5 22.5t-22.5 9.5h-68l95 142q7 11 4.5 24t-13.5 21q-11 7 -24 4.5t-21 -13.5l-101 -152l-101 152
q-8 11 -21 13.5t-24 -4.5q-11 -8 -13.5 -21t4.5 -24l95 -142h-68q-13 0 -22.5 -9.5t-9.5 -22.5t9.5 -22.5t22.5 -9.5h96v-64h-96q-13 0 -22.5 -9.5t-9.5 -22.5t9.5 -22.5t22.5 -9.5h96v-96q0 -13 9.5 -22.5t22.5 -9.5t22.5 9.5t9.5 22.5v96h96q13 0 22.5 9.5t9.5 22.5
t-9.5 22.5t-22.5 9.5h-96v64h96v0z" />
    <glyph glyph-name="uniEA0F" unicode="money&#x36;" 
d="M961 576h-97q-17 33 -42.5 61.5t-57.5 51.5q0 21 7.5 40t21.5 35q3 3 6 5.5t6 5.5q8 6 11 15.5t0 19.5q-3 9 -11 15t-18 7h-3.5h-3.5q-42 0 -75.5 -25t-46.5 -63q-33 12 -70 18t-76 6q-78 0 -146.5 -24t-120.5 -66t-83 -98t-34 -121h-5.5h-5.5q-33 0 -42 30t-10 55
q-3 29 -33 29t-31 -29q-6 -19 -2 -44t10 -42q12 -41 44.5 -61.5t72.5 -23.5q3 -1 6 -0.5t7 0.5q9 -32 26 -61.5t40 -55.5v0l4 -4t4 -5q11 -12 27 -42.5t16 -76.5v-64q0 -27 28 -45.5t68 -18.5t68 18.5t28 45.5v68q16 -2 32 -3t32 -1t32 1t32 3v-68q0 -27 28 -45.5t68 -18.5
t68 18.5t28 45.5v64q0 46 16 76.5t27 42.5q2 3 4 5l4 4v0v0v0q14 15 25 31t20 33h97q27 0 45.5 37.5t18.5 90.5t-18.5 90.5t-44.5 37.5h-1zM608 640h-192q-13 0 -22.5 9.5t-9.5 22.5t9.5 22.5t22.5 9.5h192q13 0 22.5 -9.5t9.5 -22.5t-9.5 -22.5t-22.5 -9.5v0zM768 448
q-27 0 -45.5 18.5t-18.5 45.5t18.5 45.5t45.5 18.5t45.5 -18.5t18.5 -45.5t-18.5 -45.5t-45.5 -18.5v0z" />
    <glyph glyph-name="uniEA10" unicode="money&#x37;" horiz-adv-x="1088" 
d="M960 832h-832q-53 0 -90.5 -37.5t-37.5 -90.5v-640q0 -26 19 -45t45 -19h768q26 0 45 19t19 45v64h64q26 0 45 19t19 45v576q0 26 -19 45t-45 19v0zM64 576h32v-64h-32v64v0zM64 448h32v-64h-32v64v0zM64 320h32v-64h-32v64v0zM64 192h32v-64h-32v64v0zM128 64h-64v32h64
v-32v0zM128 608h-64v32h64v-32v0zM256 64h-64v32h64v-32v0zM256 608h-64v32h64v-32v0zM384 64h-64v32h64v-32v0zM384 608h-64v32h64v-32v0zM512 64h-64v32h64v-32v0zM512 608h-64v32h64v-32v0zM640 64h-64v32h64v-32v0zM768 64h-64v32h64v-32v0zM960 512h-256v-192h256v-128
v0v0h-64v64h-256v320h256v64q0 26 -19 45t-45 19h-768q0 26 19 45t45 19h832v0v0v-256v0zM832 416q0 -13 -9.5 -22.5t-22.5 -9.5t-22.5 9.5t-9.5 22.5t9.5 22.5t22.5 9.5t22.5 -9.5t9.5 -22.5v0z" />
    <glyph glyph-name="uniEA11" unicode="cash" horiz-adv-x="1088" 
d="M448 512h64v-64h-64v64v0zM0 704v-576h1088v576h-1088v0zM192 192h-128v128h64v-64h64v-64v0zM192 576h-64v-64h-64v128h128v-64v0zM672 448q13 0 22.5 -9.5t9.5 -22.5v-128q0 -13 -9.5 -22.5t-22.5 -9.5h-96v-32q0 -13 -9.5 -22.5t-22.5 -9.5t-22.5 9.5t-9.5 22.5v32
h-96q-13 0 -22.5 9.5t-9.5 22.5t9.5 22.5t22.5 9.5h96v64h-96q-13 0 -22.5 9.5t-9.5 22.5v128q0 13 9.5 22.5t22.5 9.5h96v32q0 13 9.5 22.5t22.5 9.5t22.5 -9.5t9.5 -22.5v-32h96q13 0 22.5 -9.5t9.5 -22.5t-9.5 -22.5t-22.5 -9.5h-96v-64h96v0zM1024 192h-128v64h64v64h64
v-128v0zM1024 512h-64v64h-64v64h128v-128v0zM576 384h64v-64h-64v64v0z" />
    <glyph glyph-name="uniEA12" unicode="cash&#x32;" horiz-adv-x="1088" 
d="M0 704v-576h1088v576h-1088v0zM192 192h-128v128h64v-64h64v-64v0zM192 576h-64v-64h-64v128h128v-64v0zM544 192q-46 0 -87 17.5t-71.5 48t-48 71.5t-17.5 87t17.5 87t48 71.5t71.5 48t87 17.5t87 -17.5t71.5 -48t48 -71.5t17.5 -87t-17.5 -87t-48 -71.5t-71.5 -48
t-87 -17.5v0zM1024 192h-128v64h64v64h64v-128v0zM1024 512h-64v64h-64v64h128v-128v0zM544 576q-66 0 -113 -47t-47 -113t47 -113t113 -47t113 47t47 113t-47 113t-113 47v0z" />
    <glyph glyph-name="uniEA13" unicode="cash&#x33;" horiz-adv-x="1088" 
d="M448 384h64v-64h-64v64v0zM0 576v-576h1088v576h-1088v0zM192 64h-128v128h64v-64h64v-64v0zM192 448h-64v-64h-64v128h128v-64v0zM672 320q13 0 22.5 -9.5t9.5 -22.5v-128q0 -13 -9.5 -22.5t-22.5 -9.5h-96v-32q0 -13 -9.5 -22.5t-22.5 -9.5t-22.5 9.5t-9.5 22.5v32h-96
q-13 0 -22.5 9.5t-9.5 22.5t9.5 22.5t22.5 9.5h96v64h-96q-13 0 -22.5 9.5t-9.5 22.5v128q0 13 9.5 22.5t22.5 9.5h96v32q0 13 9.5 22.5t22.5 9.5t22.5 -9.5t9.5 -22.5v-32h96q13 0 22.5 -9.5t9.5 -22.5t-9.5 -22.5t-22.5 -9.5h-96v-64h96v0zM1024 64h-128v64h64v64h64v-128
v0zM1024 384h-64v64h-64v64h128v-128v0zM576 256h64v-64h-64v64v0zM64 704h960v-96h-960v96v0zM128 832h832v-96h-832v96v0z" />
    <glyph glyph-name="uniEA14" unicode="cash&#x34;" horiz-adv-x="1088" 
d="M64 704h960v-96h-960v96v0zM128 832h832v-96h-832v96v0zM0 576v-576h1088v576h-1088v0zM192 64h-128v128h64v-64h64v-64v0zM192 448h-64v-64h-64v128h128v-64v0zM544 64q-46 0 -87 17.5t-71.5 48t-48 71.5t-17.5 87t17.5 87t48 71.5t71.5 48t87 17.5t87 -17.5t71.5 -48
t48 -71.5t17.5 -87t-17.5 -87t-48 -71.5t-71.5 -48t-87 -17.5v0zM1024 64h-128v64h64v64h64v-128v0zM1024 384h-64v64h-64v64h128v-128v0zM544 448q-66 0 -113 -47t-47 -113t47 -113t113 -47t113 47t47 113t-47 113t-113 47v0z" />
    <glyph glyph-name="uniEA15" unicode="credit&#x2d;card" 
d="M928 832h-832q-40 0 -68 -28t-28 -68v-576q0 -40 28 -68t68 -28h832q40 0 68 28t28 68v576q0 40 -28 68t-68 28v0zM96 768h832q13 0 22.5 -9.5t9.5 -22.5v-96h-896v96q0 13 9.5 22.5t22.5 9.5v0zM928 128h-832q-13 0 -22.5 9.5t-9.5 22.5v288h896v-288q0 -13 -9.5 -22.5
t-22.5 -9.5v0zM128 320h64v-128h-64v128zM256 320h64v-128h-64v128zM384 320h64v-128h-64v128z" />
    <glyph glyph-name="uniEA16" unicode="credit&#x2d;card&#x32;" 
d="M928 832h-832q-40 0 -68 -28t-28 -68v-576q0 -40 28 -68t68 -28h832q40 0 68 28t28 68v576q0 40 -28 68t-68 28v0zM192 192h-64v128h64v-128v0zM320 192h-64v128h64v-128v0zM448 192h-64v128h64v-128v0zM992 448h-960v192h960v-192v0z" />
    <glyph glyph-name="uniEA17" unicode="compute" 
d="M768 960h-512q-26 0 -45 -19t-19 -45v-896q0 -26 19 -45t45 -19h512q26 0 45 19t19 45v896q0 26 -19 45t-45 19v0zM384 0h-128v128h128v-128v0zM384 192h-128v128h128v-128v0zM384 384h-128v128h128v-128v0zM576 0h-128v128h128v-128v0zM576 192h-128v128h128v-128v0z
M576 384h-128v128h128v-128v0zM768 0h-128v128h128v-128v0zM768 192h-128v128h128v-128v0zM768 384h-128v128h128v-128v0zM768 576h-512v320h512v-320v0z" />
    <glyph glyph-name="uniEA18" unicode="compute&#x32;" 
d="M928 -64h-896q-13 0 -22.5 9.5t-9.5 22.5v960q0 13 9.5 22.5t22.5 9.5h896q13 0 22.5 -9.5t9.5 -22.5v-960q0 -13 -9.5 -22.5t-22.5 -9.5v0zM64 0h832v896h-832v-896v0zM128 832h704v-192h-704v192v0zM128 576h128v-128h-128v128v0zM320 576h128v-128h-128v128v0z
M512 576h128v-128h-128v128v0zM128 384h128v-128h-128v128v0zM320 384h128v-128h-128v128v0zM512 384h128v-128h-128v128v0zM128 192h128v-128h-128v128v0zM320 192h128v-128h-128v128v0zM512 192h128v-128h-128v128v0zM704 384h128v-320h-128v320v0zM704 576h128v-128h-128
v128v0z" />
    <glyph glyph-name="uniEA19" unicode="compute&#x33;" 
d="M384 896h-320q-26 0 -45 -19t-19 -45v-320q0 -26 19 -45t45 -19h320q26 0 45 19t19 45v320q0 26 -19 45t-45 19v0zM384 640h-320v64h320v-64v0zM896 896h-320q-26 0 -45 -19t-19 -45v-832q0 -26 19 -45t45 -19h320q26 0 45 19t19 45v832q0 26 -19 45t-45 19v0zM896 320
h-320v64h320v-64v0zM896 512h-320v64h320v-64v0zM384 384h-320q-26 0 -45 -19t-19 -45v-320q0 -26 19 -45t45 -19h320q26 0 45 19t19 45v320q0 26 -19 45t-45 19v0zM384 128h-128v-128h-64v128h-128v64h128v128h64v-128h128v-64v0z" />
    <glyph glyph-name="uniEA1A" unicode="cpu" 
d="M928 448q13 0 22.5 9.5t9.5 22.5t-9.5 22.5t-22.5 9.5h-96v64h96q13 0 22.5 9.5t9.5 22.5t-9.5 22.5t-22.5 9.5h-96v96l-32 32h-96v96q0 13 -9.5 22.5t-22.5 9.5t-22.5 -9.5t-9.5 -22.5v-96h-64v96q0 13 -9.5 22.5t-22.5 9.5t-22.5 -9.5t-9.5 -22.5v-96h-64v96
q0 13 -9.5 22.5t-22.5 9.5t-22.5 -9.5t-9.5 -22.5v-96h-64v96q0 13 -9.5 22.5t-22.5 9.5t-22.5 -9.5t-9.5 -22.5v-96h-96l-32 -32v-96h-96q-13 0 -22.5 -9.5t-9.5 -22.5t9.5 -22.5t22.5 -9.5h96v-64h-96q-13 0 -22.5 -9.5t-9.5 -22.5t9.5 -22.5t22.5 -9.5h96v-64h-96
q-13 0 -22.5 -9.5t-9.5 -22.5t9.5 -22.5t22.5 -9.5h96v-64h-96q-13 0 -22.5 -9.5t-9.5 -22.5t9.5 -22.5t22.5 -9.5h96v-96l32 -32h96v-96q0 -13 9.5 -22.5t22.5 -9.5t22.5 9.5t9.5 22.5v96h64v-96q0 -13 9.5 -22.5t22.5 -9.5t22.5 9.5t9.5 22.5v96h64v-96q0 -13 9.5 -22.5
t22.5 -9.5t22.5 9.5t9.5 22.5v96h64v-96q0 -13 9.5 -22.5t22.5 -9.5t22.5 9.5t9.5 22.5v96h96l32 32v96h96q13 0 22.5 9.5t9.5 22.5t-9.5 22.5t-22.5 9.5h-96v64h96q13 0 22.5 9.5t9.5 22.5t-9.5 22.5t-22.5 9.5h-96v64h96v0zM576 320h-192v192h192v-192v0z" />
    <glyph glyph-name="uniEA1B" unicode="lifebuoy" 
d="M512 960q-106 0 -199.5 -40t-163 -109.5t-109.5 -163t-40 -199.5t40 -199.5t109.5 -163t163 -109.5t199.5 -40t199.5 40t163 109.5t109.5 163t40 199.5t-40 199.5t-109.5 163t-163 109.5t-199.5 40v0zM320 448q0 80 56 136t136 56t136 -56t56 -136t-56 -136t-136 -56
t-136 56t-56 136v0zM926 277v0l-177 73q9 23 14 47.5t5 50.5t-5 50.5t-14 47.5l177 73q16 -39 25 -82t9 -89t-9 -89t-25 -82v0v0zM683 862v0v0l-73 -177q-23 9 -47.5 14t-50.5 5t-50.5 -5t-47.5 -14l-73 177q39 16 82 25t89 9t89 -9t82 -25v0zM98 619l177 -73
q-9 -23 -14 -47.5t-5 -50.5t5 -50.5t14 -47.5l-177 -73q-16 39 -25 82t-9 89t9 89t25 82v0zM341 34l73 177q23 -9 47.5 -14t50.5 -5t50.5 5t47.5 14l73 -177q-39 -16 -82 -25t-89 -9t-89 9t-82 25v0z" />
    <glyph glyph-name="uniEA1C" unicode="phone" 
d="M966 783q-21 18 -50 33.5t-66 28.5q-34 13 -73.5 22.5t-82.5 15.5t-88.5 9.5t-93.5 3.5v0v0q-48 0 -93.5 -3.5t-88.5 -9.5t-82.5 -15.5t-73.5 -22.5q-37 -13 -66 -28.5t-50 -33.5q-36 -30 -47 -60t-11 -51v-64q0 -13 5 -24.5t14 -20.5l32 -32q9 -9 21 -14t24 -5q6 0 12 1
t12 4l160 64q18 7 29 23t11 36v112q44 8 92.5 12t99.5 4v0v0q51 0 99.5 -4t92.5 -12v-112q0 -20 11 -36t29 -23l160 -64q6 -3 12 -4t12 -1q12 0 24 5t21 14l32 32q9 9 14 20.5t5 24.5v64q0 21 -11 51t-47 60v0zM956 164q-1 2 -18 53.5t-47 113.5q-21 45 -50 79t-65 56.5
t-78 34t-90 11.5h-192q-48 0 -90 -11.5t-78 -34t-65 -56.5t-50 -79q-30 -62 -47 -113.5t-18 -53.5q-9 -32 -4 -62t22 -53q18 -23 45.5 -36t60.5 -13h640q33 0 60.5 13t45.5 36q17 23 22 53t-4 62v0zM512 128q-53 0 -90.5 37.5t-37.5 90.5t37.5 90.5t90.5 37.5t90.5 -37.5
t37.5 -90.5t-37.5 -90.5t-90.5 -37.5v0z" />
    <glyph glyph-name="uniEA1D" unicode="phone&#x32;" 
d="M704 320q-48 -48 -64 -88t-64 -40t-96 40t-96 88t-88 96t-40 96t40 64t88 64q24 24 6 67t-54 85t-78 73t-66 31t-57 -30t-63 -66t-51 -66l-21 -30q0 -48 22.5 -116.5t59 -141t82 -140t92.5 -114.5t114.5 -92.5t140 -82t141 -59t116.5 -22.5l30 21t66 51t66 63t30 57
t-31 66t-73 78t-85 54t-67 -6v0z" />
    <glyph glyph-name="uniEA1E" unicode="phone&#x2d;slash" 
d="M321 385q-28 32 -46.5 63.5t-18.5 63.5q0 48 40 64t88 64q24 24 6 67t-54 85t-78 73t-66 31t-57 -30t-63 -66t-51 -66l-21 -30q0 -40 16 -95.5t43.5 -116t63 -121t74.5 -110.5l124 124v0zM704 320q-48 -48 -64 -88t-64 -40q-31 0 -62.5 18t-62.5 45l431 431q14 14 14 34
t-14 34t-34 14t-34 -14l-736 -736q-14 -14 -14 -34t14 -34q7 -7 16 -10.5t18 -3.5t18 3.5t16 10.5l181 181q50 -39 110.5 -74t120.5 -62t115 -43t95 -16l30 21t66 51t66 63t30 57t-31 66t-73 78t-85 54t-67 -6v0z" />
    <glyph glyph-name="uniEA1F" unicode="phone&#x2d;wave" 
d="M704 320q24 24 67 6t85 -54t73 -78t31 -66t-30 -57t-66 -63t-66 -51l-30 -21q-48 0 -116.5 22.5t-141 59t-140 82t-114.5 92.5t-92.5 114.5t-82 140t-59 141t-22.5 116.5l21 30t51 66t63 66t57 30t66 -31t78 -73t54 -85t-6 -67q-48 -48 -88 -64t-40 -64t40 -96t88 -96
t96 -88t96 -40t64 40t64 88v0zM736 448q-13 0 -22.5 9.5t-9.5 22.5q0 66 -47 113t-113 47q-13 0 -22.5 9.5t-9.5 22.5t9.5 22.5t22.5 9.5q46 0 87 -17.5t71.5 -48t48 -71.5t17.5 -87q0 -13 -9.5 -22.5t-22.5 -9.5v0zM864 448q-13 0 -22.5 9.5t-9.5 22.5q0 60 -22.5 112
t-62 91.5t-91.5 62t-112 22.5q-13 0 -22.5 9.5t-9.5 22.5t9.5 22.5t22.5 9.5q73 0 137 -27.5t112 -75.5t75.5 -112t27.5 -137q0 -13 -9.5 -22.5t-22.5 -9.5v0zM992 448q-13 0 -22.5 9.5t-9.5 22.5q0 86 -32.5 162t-89 132.5t-132.5 89t-162 32.5q-13 0 -22.5 9.5t-9.5 22.5
t9.5 22.5t22.5 9.5q48 0 94.5 -9t89.5 -27t82 -44.5t73 -60.5t60.5 -73t44.5 -82t27 -89.5t9 -94.5q0 -13 -9.5 -22.5t-22.5 -9.5v0z" />
    <glyph glyph-name="uniEA20" unicode="phone&#x2d;plus" 
d="M704 320q24 24 67 6t85 -54t73 -78t31 -66t-30 -57t-66 -63t-66 -51l-30 -21q-48 0 -116.5 22.5t-141 59t-140 82t-114.5 92.5t-92.5 114.5t-82 140t-59 141t-22.5 116.5l21 30t51 66t63 66t57 30t66 -31t78 -73t54 -85t-6 -67q-48 -48 -88 -64t-40 -64t40 -96t88 -96
t96 -88t96 -40t64 40t64 88v0zM736 960q-60 0 -112.5 -22.5t-91.5 -61.5t-61.5 -91.5t-22.5 -112.5t22.5 -112.5t61.5 -91.5t91.5 -61.5t112.5 -22.5t112.5 22.5t91.5 61.5t61.5 91.5t22.5 112.5t-22.5 112.5t-61.5 91.5t-91.5 61.5t-112.5 22.5v0zM768 640v-128h-64v128
h-128v64h128v128h64v-128h128v-64h-128v0z" />
    <glyph glyph-name="uniEA21" unicode="phone&#x2d;minus" 
d="M704 320q24 24 67 6t85 -54t73 -78t31 -66t-30 -57t-66 -63t-66 -51l-30 -21q-48 0 -116.5 22.5t-141 59t-140 82t-114.5 92.5t-92.5 114.5t-82 140t-59 141t-22.5 116.5l21 30t51 66t63 66t57 30t66 -31t78 -73t54 -85t-6 -67q-48 -48 -88 -64t-40 -64t40 -96t88 -96
t96 -88t96 -40t64 40t64 88v0zM736 960q-60 0 -112.5 -22.5t-91.5 -61.5t-61.5 -91.5t-22.5 -112.5t22.5 -112.5t61.5 -91.5t91.5 -61.5t112.5 -22.5t112.5 22.5t91.5 61.5t61.5 91.5t22.5 112.5t-22.5 112.5t-61.5 91.5t-91.5 61.5t-112.5 22.5v0zM896 640h-320v64h320v-64
v0z" />
    <glyph glyph-name="uniEA22" unicode="phone&#x2d;plus&#x32;" 
d="M704 320q24 24 67 6t85 -54t73 -78t31 -66t-30 -57t-66 -63t-66 -51l-30 -21q-48 0 -116.5 22.5t-141 59t-140 82t-114.5 92.5t-92.5 114.5t-82 140t-59 141t-22.5 116.5l21 30t51 66t63 66t57 30t66 -31t78 -73t54 -85t-6 -67q-48 -48 -88 -64t-40 -64t40 -96t88 -96
t96 -88t96 -40t64 40t64 88v0zM960 640h-128v-128h-128v128h-128v128h128v128h128v-128h128v-128z" />
    <glyph glyph-name="uniEA23" unicode="phone&#x2d;minus&#x32;" 
d="M704 320q24 24 67 6t85 -54t73 -78t31 -66t-30 -57t-66 -63t-66 -51l-30 -21q-48 0 -116.5 22.5t-141 59t-140 82t-114.5 92.5t-92.5 114.5t-82 140t-59 141t-22.5 116.5l21 30t51 66t63 66t57 30t66 -31t78 -73t54 -85t-6 -67q-48 -48 -88 -64t-40 -64t40 -96t88 -96
t96 -88t96 -40t64 40t64 88v0zM576 768h384v-128h-384v128zM576 768h384v-128h-384v128z" />
    <glyph glyph-name="uniEA24" unicode="phone&#x2d;incoming" 
d="M733 579l227 226l-91 91l-226 -227l-131 131v-352h352zM704 320q-48 -48 -64 -88t-64 -40t-96 40t-96 88t-88 96t-40 96t40 64t88 64q24 24 6 67t-54 85t-78 73t-66 31t-57 -30t-63 -66t-51 -66l-21 -30q0 -48 22.5 -116.5t59 -141t82 -140t92.5 -114.5t114.5 -92.5
t140 -82t141 -59t116.5 -22.5l30 21t66 51t66 63t30 57t-31 66t-73 78t-85 54t-67 -6v0z" />
    <glyph glyph-name="uniEA25" unicode="phone&#x2d;outgoing" 
d="M704 320q-48 -48 -64 -88t-64 -40t-96 40t-96 88t-88 96t-40 96t40 64t88 64q24 24 6 67t-54 85t-78 73t-66 31t-57 -30t-63 -66t-51 -66l-21 -30q0 -48 22.5 -116.5t59 -141t82 -140t92.5 -114.5t114.5 -92.5t140 -82t141 -59t116.5 -22.5l30 21t66 51t66 63t30 57
t-31 66t-73 78t-85 54t-67 -6v0zM603 448l226 227l131 -131v352h-352l131 -131l-227 -226z" />
    <glyph glyph-name="uniEA26" unicode="phone&#x33;" 
d="M807 -64h-12q-49 0 -120 22t-151 62q-39 20 -76 41.5t-70 44.5t-62 46.5t-53 46.5q-23 24 -46.5 53t-46.5 62t-44.5 70t-41.5 76q-40 80 -62 151t-22 120v12l7 10q1 2 22 32t51 66q32 38 71 73.5t78 35.5q33 0 70 -25.5t58 -45.5q17 -15 50 -52t51 -82q20 -47 10 -75
t-22 -40q-21 -21 -40.5 -34t-35.5 -23q-25 -16 -31.5 -23t-6.5 -18q0 -34 36 -76t78 -84t84 -78t76 -36q11 0 18 6.5t23 31.5q10 16 23 35.5t34 40.5q12 12 27.5 18t33.5 6q20 0 42 -7.5t46 -21.5q20 -12 40 -28t39 -34q16 -16 54 -62t38 -88q0 -39 -35.5 -78t-73.5 -71
q-36 -30 -66 -51t-32 -22l-10 -7v0zM80 719q3 -40 23 -98.5t53 -124.5q36 -71 79.5 -135t84.5 -105t105 -84.5t135 -79.5q66 -33 124.5 -53t98.5 -23q12 9 33.5 24.5t44.5 34.5q54 45 68 66t15 24q-1 9 -18 35t-52 60q-36 34 -65.5 50t-43.5 16h-3t-1 -1
q-16 -15 -26.5 -30.5t-19.5 -30.5q-17 -27 -40 -51.5t-69 -24.5q-59 0 -112.5 43.5t-104.5 93.5q-50 51 -93.5 104.5t-43.5 112.5q0 46 24.5 69t51.5 40q15 9 30.5 19.5t30.5 26.5q1 0 1 6t-4 16q-8 22 -28.5 50.5t-48.5 55.5q-31 29 -52 41.5t-28 13.5q-3 -1 -24 -15
t-67 -69q-19 -23 -34.5 -44t-23.5 -33v0z" />
    <glyph glyph-name="uniEA27" unicode="phone&#x2d;slash&#x32;" 
d="M807 -64h-12q-49 0 -120 22t-151 62q-39 20 -76 41.5t-70 44.5t-62 46.5t-53 46.5q-23 24 -46.5 53t-46.5 62t-44.5 70t-41.5 76q-40 80 -62 151t-22 120v12l7 10q1 2 22 32t51 66q32 38 71 73.5t78 35.5q33 0 70 -25.5t58 -45.5q17 -15 50 -52t51 -82q20 -47 10 -75
t-22 -40q-21 -21 -40.5 -34t-35.5 -23q-25 -16 -31.5 -23t-6.5 -18q0 -34 36 -76t78 -84t84 -78t76 -36q11 0 18 6.5t23 31.5q10 16 23 35.5t34 40.5q12 12 27.5 18t33.5 6q20 0 42 -7.5t46 -21.5q20 -12 40 -28t39 -34q16 -16 54 -62t38 -88q0 -39 -35.5 -78t-73.5 -71
q-36 -30 -66 -51t-32 -22l-10 -7v0zM80 719q3 -40 23 -98.5t53 -124.5q36 -71 79.5 -135t84.5 -105t105 -84.5t135 -79.5q66 -33 124.5 -53t98.5 -23q12 9 33.5 24.5t44.5 34.5q54 45 68 66t15 24q-1 9 -18 35t-52 60q-36 34 -65.5 50t-43.5 16h-3t-1 -1
q-16 -15 -26.5 -30.5t-19.5 -30.5q-17 -27 -40 -51.5t-69 -24.5q-59 0 -112.5 43.5t-104.5 93.5q-50 51 -93.5 104.5t-43.5 112.5q0 46 24.5 69t51.5 40q15 9 30.5 19.5t30.5 26.5q1 0 1 6t-4 16q-8 22 -28.5 50.5t-48.5 55.5q-31 29 -52 41.5t-28 13.5q-3 -1 -24 -15
t-67 -69q-19 -23 -34.5 -44t-23.5 -33v0v0zM48 -64q-9 0 -18 3.5t-16 10.5q-14 14 -14 34t14 34l736 736q14 14 34 14t34 -14t14 -34t-14 -34l-736 -736q-7 -7 -16 -10.5t-18 -3.5v0z" />
    <glyph glyph-name="uniEA28" unicode="phone&#x2d;wave&#x32;" 
d="M807 -64h-12q-49 0 -120 22t-151 62q-39 20 -76 41.5t-70 44.5t-62 46.5t-53 46.5q-23 24 -46.5 53t-46.5 62t-44.5 70t-41.5 76q-40 80 -62 151t-22 120v12l7 10q1 2 22 32t51 66q32 38 71 73.5t78 35.5q33 0 70 -25.5t58 -45.5q17 -15 50 -52t51 -82q20 -47 10 -75
t-22 -40q-21 -21 -40.5 -34t-35.5 -23q-25 -16 -31.5 -23t-6.5 -18q0 -34 36 -76t78 -84t84 -78t76 -36q11 0 18 6.5t23 31.5q10 16 23 35.5t34 40.5q12 12 27.5 18t33.5 6q20 0 42 -7.5t46 -21.5q20 -12 40 -28t39 -34q16 -16 54 -62t38 -88q0 -39 -35.5 -78t-73.5 -71
q-36 -30 -66 -51t-32 -22l-10 -7v0zM80 719q3 -40 23 -98.5t53 -124.5q36 -71 79.5 -135t84.5 -105t105 -84.5t135 -79.5q66 -33 124.5 -53t98.5 -23q12 9 33.5 24.5t44.5 34.5q54 45 68 66t15 24q-1 9 -18 35t-52 60q-36 34 -65.5 50t-43.5 16h-3t-1 -1
q-16 -15 -26.5 -30.5t-19.5 -30.5q-17 -27 -40 -51.5t-69 -24.5q-59 0 -112.5 43.5t-104.5 93.5q-50 51 -93.5 104.5t-43.5 112.5q0 46 24.5 69t51.5 40q15 9 30.5 19.5t30.5 26.5q1 0 1 6t-4 16q-8 22 -28.5 50.5t-48.5 55.5q-31 29 -52 41.5t-28 13.5q-3 -1 -24 -15
t-67 -69q-19 -23 -34.5 -44t-23.5 -33v0v0zM736 448q-13 0 -22.5 9.5t-9.5 22.5q0 66 -47 113t-113 47q-13 0 -22.5 9.5t-9.5 22.5t9.5 22.5t22.5 9.5q46 0 87 -17.5t71.5 -48t48 -71.5t17.5 -87q0 -13 -9.5 -22.5t-22.5 -9.5v0zM864 448q-13 0 -22.5 9.5t-9.5 22.5
q0 60 -22.5 112t-62 91.5t-91.5 62t-112 22.5q-13 0 -22.5 9.5t-9.5 22.5t9.5 22.5t22.5 9.5q73 0 137 -27.5t112 -75.5t75.5 -112t27.5 -137q0 -13 -9.5 -22.5t-22.5 -9.5v0zM992 448q-13 0 -22.5 9.5t-9.5 22.5q0 86 -32.5 162t-89 132.5t-132.5 89t-162 32.5
q-13 0 -22.5 9.5t-9.5 22.5t9.5 22.5t22.5 9.5q48 0 94.5 -9t89.5 -27t82 -44.5t73 -60.5t60.5 -73t44.5 -82t27 -89.5t9 -94.5q0 -13 -9.5 -22.5t-22.5 -9.5v0z" />
    <glyph glyph-name="uniEA29" unicode="phone&#x2d;hang&#x2d;up" 
d="M1017 384q6 -42 6.5 -90.5t-17.5 -69.5q-16 -18 -65 -26.5t-101.5 -4t-94 23.5t-41.5 55t16.5 64t-14.5 64q-31 35 -82 41.5t-112 6.5t-112 -6.5t-82 -41.5q-31 -36 -14.5 -64t16.5 -64t-41.5 -55t-94 -23.5t-101.5 4t-65 26.5q-18 21 -17.5 69.5t6.5 90.5q4 28 19 59
t52 69v0v0q28 26 64.5 49t87.5 40.5t119 28t159 10.5v0h2h2h2h2v0q91 0 159 -10.5t119 -28t87.5 -40.5t64.5 -49v0v0q37 -38 52 -69t19 -59v0z" />
    <glyph glyph-name="uniEA2A" unicode="phone&#x2d;hang&#x2d;up&#x32;" 
d="M849 182q25 0 74.5 7t74.5 35q12 14 18.5 36t7.5 52q0 19 -1.5 41t-5.5 47v1q-6 38 -24.5 70.5t-51.5 66.5l-2 1q-22 21 -53 42t-76.5 39t-108 30t-147.5 15v1h-84v-1q-85 -3 -147.5 -15t-108 -30t-76.5 -39t-53 -42l-2 -1q-33 -34 -51.5 -66.5t-24.5 -70.5v-1
q-4 -25 -5.5 -47t-1.5 -41q1 -30 7.5 -52t18.5 -36q25 -28 74.5 -35t74.5 -7q35 0 66.5 5t55.5 15q49 19 62 46t13 45q0 16 -4 30t-8 25q-6 17 -6 22.5t7 13.5q20 23 61.5 27t89.5 4t89.5 -4t61.5 -27q7 -8 7 -13.5t-6 -22.5q-4 -11 -8 -25t-4 -30q0 -18 13 -45t62 -46
q24 -10 55.5 -15t66.5 -5v0v0v0zM512 491q-58 0 -114.5 -7t-93.5 -50q-30 -34 -26 -63.5t11 -48.5q3 -8 5 -15.5t2 -13.5q0 -9 -31 -22t-90 -13q-38 0 -62 6t-30 10q-3 5 -6.5 31t5.5 84q3 18 13.5 41t41.5 54q20 18 48.5 36.5t72 34t104.5 25t146 10.5h3h1v0h4
q85 -1 146 -10.5t104.5 -25t72 -34t48.5 -36.5q31 -31 41.5 -54t13.5 -41q9 -58 5.5 -84t-6.5 -31q-6 -4 -30 -10t-62 -6q-59 0 -90 13t-31 22q0 6 2 13.5t5 15.5q7 19 11 48.5t-26 63.5q-37 43 -93.5 50t-114.5 7v0z" />
    <glyph glyph-name="uniEA2B" unicode="address&#x2d;book" 
d="M192 960v-1024h768v1024h-768v0zM576 704q53 0 90.5 -37.5t37.5 -90.5t-37.5 -90.5t-90.5 -37.5t-90.5 37.5t-37.5 90.5t37.5 90.5t90.5 37.5v0v0zM768 192h-384v64q0 53 37.5 90.5t90.5 37.5v0h128q53 0 90.5 -37.5t37.5 -90.5v-64v0zM64 896h96v-192h-96v192v0zM64 640
h96v-192h-96v192v0zM64 384h96v-192h-96v192v0zM64 128h96v-192h-96v192v0z" />
    <glyph glyph-name="uniEA2C" unicode="address&#x2d;book&#x32;" 
d="M928 448h32q27 0 45.5 18.5t18.5 45.5v128h-96v-192v0zM928 896v-192h32q27 0 45.5 18.5t18.5 45.5v128h-96v0zM896 384v576h-832q-26 0 -45 -19t-19 -45v-896q0 -26 19 -45t45 -19h832v448v0zM512 704q53 0 90.5 -37.5t37.5 -90.5t-37.5 -90.5t-90.5 -37.5t-90.5 37.5
t-37.5 90.5t37.5 90.5t90.5 37.5v0zM192 0h-64v896h64v-896v0zM704 192h-384v64q0 53 37.5 90.5t90.5 37.5h128q53 0 90.5 -37.5t37.5 -90.5v-64v0zM928 192h32q27 0 45.5 18.5t18.5 45.5v128h-96v-192v0z" />
    <glyph glyph-name="uniEA2D" unicode="address&#x2d;book&#x33;" 
d="M864 896h-704q-13 0 -22.5 -9.5t-9.5 -22.5v-96h-64q-27 0 -45.5 -18.5t-18.5 -45.5t18.5 -45.5t45.5 -18.5h64v-64h-64q-27 0 -45.5 -18.5t-18.5 -45.5t18.5 -45.5t45.5 -18.5h64v-64h-64q-27 0 -45.5 -18.5t-18.5 -45.5t18.5 -45.5t45.5 -18.5h64v-64h-64
q-27 0 -45.5 -18.5t-18.5 -45.5t18.5 -45.5t45.5 -18.5h64v-96q0 -13 9.5 -22.5t22.5 -9.5h704q40 0 68 28t28 68v768q0 40 -28 68t-68 28v0zM320 0h-128v64q27 0 45.5 18.5t18.5 45.5t-18.5 45.5t-45.5 18.5v64q27 0 45.5 18.5t18.5 45.5t-18.5 45.5t-45.5 18.5v64
q27 0 45.5 18.5t18.5 45.5t-18.5 45.5t-45.5 18.5v64q27 0 45.5 18.5t18.5 45.5t-18.5 45.5t-45.5 18.5v64h128v-832v0zM768 576h-103q-12 -33 -18.5 -74.5t-6.5 -85.5t6.5 -85.5t18.5 -74.5h103v-192h-64q-25 0 -49 10.5t-45 29.5q-16 16 -30 36.5t-25 45.5
q-21 47 -32 106.5t-11 123.5t11 123.5t32 106.5q11 25 25 45.5t30 36.5q21 19 45 29.5t49 10.5h64v-192v0z" />
    <glyph glyph-name="uniEA2E" unicode="notes" 
d="M864 896h-704q-13 0 -22.5 -9.5t-9.5 -22.5v-96h-64q-27 0 -45.5 -18.5t-18.5 -45.5t18.5 -45.5t45.5 -18.5h64v-64h-64q-27 0 -45.5 -18.5t-18.5 -45.5t18.5 -45.5t45.5 -18.5h64v-64h-64q-27 0 -45.5 -18.5t-18.5 -45.5t18.5 -45.5t45.5 -18.5h64v-64h-64
q-27 0 -45.5 -18.5t-18.5 -45.5t18.5 -45.5t45.5 -18.5h64v-96q0 -13 9.5 -22.5t22.5 -9.5h704q40 0 68 28t28 68v768q0 40 -28 68t-68 28v0zM192 64q27 0 45.5 18.5t18.5 45.5t-18.5 45.5t-45.5 18.5v64q27 0 45.5 18.5t18.5 45.5t-18.5 45.5t-45.5 18.5v64q27 0 45.5 18.5
t18.5 45.5t-18.5 45.5t-45.5 18.5v64q27 0 45.5 18.5t18.5 45.5t-18.5 45.5t-45.5 18.5v64h128v-832h-128v64v0z" />
    <glyph glyph-name="uniEA2F" unicode="at&#x2d;sign" 
d="M874 810q-36 36 -78 64t-88 47t-95.5 29t-100.5 10t-100.5 -10t-95.5 -29t-88 -47t-78 -64t-64 -78t-47 -88t-29 -95.5t-10 -100.5t10 -100.5t29 -95.5t47 -88t64 -78t78 -64t88 -47t95.5 -29t100.5 -10q58 0 113 12.5t106 36.5q24 12 33 37t-2 49q-12 24 -37 32.5
t-48 -2.5q-39 -18 -80.5 -27.5t-84.5 -9.5q-79 0 -149 30t-122.5 82.5t-82.5 122.5t-30 149t30 149t82.5 122.5t122.5 82.5t149 30t149 -30t122.5 -82.5t82.5 -122.5t30 -149v-64q0 -26 -19 -45t-45 -19t-45 19t-19 45v256q0 27 -18.5 45.5t-45.5 18.5q-19 0 -35 -10.5
t-23 -27.5q-30 18 -63.5 28t-70.5 10q-53 0 -99.5 -20t-81.5 -55t-55 -81.5t-20 -99.5t20 -99.5t55 -81.5t81.5 -55t99.5 -20q50 0 94.5 18t79.5 50q26 -31 64 -49.5t82 -18.5q79 0 135.5 56.5t56.5 135.5v64q0 51 -10 100.5t-29 95.5t-47 88t-64 78v0zM512 320
q-53 0 -90.5 37.5t-37.5 90.5t37.5 90.5t90.5 37.5t90.5 -37.5t37.5 -90.5t-37.5 -90.5t-90.5 -37.5v0z" />
    <glyph glyph-name="uniEA30" unicode="envelop" 
d="M960 832h-896q-26 0 -45 -19t-19 -45v-640q0 -26 19 -45t45 -19h896q26 0 45 19t19 45v640q0 26 -19 45t-45 19v0zM373 335l-192 -140q-5 -4 -10 -5.5t-11 -1.5q-8 0 -16 4t-13 11q-9 12 -6.5 26.5t14.5 23.5l192 140q12 9 26.5 6.5t23.5 -14.5t6.5 -27t-14.5 -23v0z
M893 203q-5 -7 -13 -11t-16 -4q-6 0 -11 1.5t-10 5.5l-192 140q-12 8 -14.5 23t6.5 27t23.5 14.5t26.5 -6.5l192 -140q12 -9 14.5 -23.5t-6.5 -26.5v0zM885 643l-352 -256q-5 -4 -10 -5.5t-11 -1.5t-11 1.5t-10 5.5l-352 256q-12 9 -14.5 23.5t6.5 26.5t23.5 14.5t26.5 -6.5
l331 -240l331 240q12 9 26.5 6.5t23.5 -14.5t6.5 -26.5t-14.5 -23.5v0z" />
    <glyph glyph-name="uniEA31" unicode="envelop&#x32;" 
d="M960 768v0v0v-640v0v0h-896v0v0v640v0v0h896v0zM960 832h-896q-26 0 -45 -19t-19 -45v-640q0 -26 19 -45t45 -19h896q26 0 45 19t19 45v640q0 26 -19 45t-45 19v0v0zM373 335l-192 -140q-5 -4 -10 -5.5t-11 -1.5q-8 0 -16 4t-13 11q-9 12 -6.5 26.5t14.5 23.5l192 140
q12 9 26.5 6.5t23.5 -14.5t6.5 -27t-14.5 -23v0zM893 203q-5 -7 -13 -11t-16 -4q-6 0 -11 1.5t-10 5.5l-192 140q-12 8 -14.5 23t6.5 27t23.5 14.5t26.5 -6.5l192 -140q12 -9 14.5 -23.5t-6.5 -26.5v0zM885 643l-352 -256q-5 -4 -10 -5.5t-11 -1.5t-11 1.5t-10 5.5l-352 256
q-12 9 -14.5 23.5t6.5 26.5t23.5 14.5t26.5 -6.5l331 -240l331 240q12 9 26.5 6.5t23.5 -14.5t6.5 -26.5t-14.5 -23.5v0v0z" />
    <glyph glyph-name="uniEA32" unicode="envelop&#x33;" 
d="M960 832h-896q-26 0 -45 -19t-19 -45v-640q0 -26 19 -45t45 -19h896q26 0 45 19t19 45v640q0 26 -19 45t-45 19v0zM896 704v-46l-384 -226l-384 226v46h768v0zM128 192v355l384 -227l384 227v-355h-768v0z" />
    <glyph glyph-name="uniEA33" unicode="envelop&#x34;" 
d="M928 832h-832q-40 0 -68 -28t-28 -68v-640q0 -40 28 -68t68 -28h832q40 0 68 28t28 68v640q0 40 -28 68t-68 28v0zM399 410l-271 -211v501l271 -290v0zM176 704h672l-336 -252l-336 252v0zM409 398l103 -110l103 110l210 -270h-626l210 270v0zM625 410l271 290v-501
l-271 211v0z" />
    <glyph glyph-name="uniEA34" unicode="envelop&#x35;" 
d="M928 832h-832q-40 0 -68 -28t-28 -68v-576q0 -40 28 -68t68 -28h832q40 0 68 28t28 68v576q0 40 -28 68t-68 28v0zM896 640l-384 -288l-384 288v64l384 -192l384 192v-64v0z" />
    <glyph glyph-name="uniEA35" unicode="mailbox" 
d="M992 768h-384q-13 0 -22.5 -9.5t-9.5 -22.5t9.5 -22.5t22.5 -9.5h352v-448h-768v448h96q13 0 22.5 9.5t9.5 22.5t-9.5 22.5t-22.5 9.5h-256q-13 0 -22.5 -9.5t-9.5 -22.5v-512q0 -13 9.5 -22.5t22.5 -9.5h288v-224q0 -13 9.5 -22.5t22.5 -9.5h256q13 0 22.5 9.5t9.5 22.5
v224h352q13 0 22.5 9.5t9.5 22.5v512q0 13 -9.5 22.5t-22.5 9.5v0zM64 704h64v-448h-64v448v0zM576 0h-192v192h192v-192v0zM480 448q40 0 68 28t28 68q0 31 -18 56t-46 35v197h128v128h-256v-416q0 -40 28 -68t68 -28v0z" />
    <glyph glyph-name="uniEA36" unicode="pushpin" 
d="M544 960l-96 -96l96 -96l-224 -256h-224l176 -176l-272 -361v-39h39l361 272l176 -176v224l256 224l96 -96l96 96l-480 480v0zM448 416l-64 64l224 224l64 -64l-224 -224v0z" />
    <glyph glyph-name="uniEA37" unicode="pushpin&#x32;" 
d="M512 960q-53 0 -99.5 -20t-81.5 -55t-55 -81.5t-20 -99.5q0 -45 14.5 -85t40 -73t61 -56t76.5 -34v-488l128 128v360q41 11 76.5 34t61 56t40 73t14.5 85q0 53 -20 99.5t-55 81.5t-81.5 55t-99.5 20v0zM448 704q-27 0 -45.5 18.5t-18.5 45.5t18.5 45.5t45.5 18.5
t45.5 -18.5t18.5 -45.5t-18.5 -45.5t-45.5 -18.5v0z" />
    <glyph glyph-name="uniEA38" unicode="location" 
d="M512 960q-66 0 -124.5 -25t-102 -68.5t-68.5 -102t-25 -124.5q0 -120 50 -245t110 -227t110 -167l50 -65l50 65t110 167t110 227t50 245q0 66 -25 124.5t-68.5 102t-102 68.5t-124.5 25v0zM512 448q-80 0 -136 56t-56 136t56 136t136 56t136 -56t56 -136t-56 -136
t-136 -56v0z" />
    <glyph glyph-name="uniEA39" unicode="location&#x32;" 
d="M512 960q-66 0 -124.5 -25t-102 -68.5t-68.5 -102t-25 -124.5q0 -120 50 -225t110 -183t110 -123l50 -45l50 45t110 123t110 183t50 225q0 66 -25 124.5t-68.5 102t-102 68.5t-124.5 25v0zM512 448q-80 0 -136 56t-56 136t56 136t136 56t136 -56t56 -136t-56 -136
t-136 -56v0zM786 262q-10 -16 -21 -32t-22 -31q1 -1 3 -1.5t4 -1.5q36 -18 53 -37t17 -31t-17 -31t-53 -37q-46 -23 -108.5 -35.5t-129.5 -12.5t-129.5 12.5t-108.5 35.5q-36 18 -53 37t-17 31t17 31t53 37q2 1 4 1.5t3 1.5q-11 15 -22 31t-21 32q-51 -26 -80.5 -60.5
t-29.5 -73.5q0 -40 30 -75t82.5 -61t122 -41t149.5 -15t149.5 15t122 41t82.5 61t30 75q0 39 -29.5 73.5t-80.5 60.5v0z" />
    <glyph glyph-name="uniEA3A" unicode="location&#x33;" 
d="M512 960q-66 0 -124.5 -25t-102 -68.5t-68.5 -102t-25 -124.5q0 -120 50 -245t110 -227t110 -167l50 -65l50 65t110 167t110 227t50 245q0 66 -25 124.5t-68.5 102t-102 68.5t-124.5 25v0zM512 444q-41 0 -76.5 15.5t-62 42t-42 62t-15.5 76.5t15.5 76.5t42 62t62 42
t76.5 15.5t76.5 -15.5t62 -42t42 -62t15.5 -76.5t-15.5 -76.5t-42 -62t-62 -42t-76.5 -15.5v0zM388 640q0 51 36.5 87.5t87.5 36.5t87.5 -36.5t36.5 -87.5t-36.5 -87.5t-87.5 -36.5t-87.5 36.5t-36.5 87.5v0z" />
    <glyph glyph-name="uniEA3B" unicode="location&#x34;" 
d="M512 960q-66 0 -124.5 -25t-102 -68.5t-68.5 -102t-25 -124.5q0 -120 50 -225t110 -183t110 -123l50 -45l50 45t110 123t110 183t50 225q0 66 -25 124.5t-68.5 102t-102 68.5t-124.5 25v0zM512 444q-41 0 -76.5 15.5t-62 42t-42 62t-15.5 76.5t15.5 76.5t42 62t62 42
t76.5 15.5t76.5 -15.5t62 -42t42 -62t15.5 -76.5t-15.5 -76.5t-42 -62t-62 -42t-76.5 -15.5v0zM388 640q0 -51 36.5 -87.5t87.5 -36.5t87.5 36.5t36.5 87.5t-36.5 87.5t-87.5 36.5t-87.5 -36.5t-36.5 -87.5v0zM786 262q-10 -16 -21 -32t-22 -31q1 -1 3 -1.5t4 -1.5
q36 -18 53 -37t17 -31t-17 -31t-53 -37q-46 -23 -108.5 -35.5t-129.5 -12.5t-129.5 12.5t-108.5 35.5q-36 18 -53 37t-17 31t17 31t53 37q2 1 4 1.5t3 1.5q-11 15 -22 31t-21 32q-51 -26 -80.5 -60.5t-29.5 -73.5q0 -40 30 -75t82.5 -61t122 -41t149.5 -15t149.5 15t122 41
t82.5 61t30 75q0 39 -29.5 73.5t-80.5 60.5v0z" />
    <glyph glyph-name="uniEA3C" unicode="location&#x35;" 
d="M512 960q-80 0 -149.5 -30t-122 -82.5t-82.5 -122t-30 -149.5q0 -144 60 -262t132 -202t132 -130l60 -46l60 46t132 130t132 202t60 262q0 80 -30 149.5t-82.5 122t-122 82.5t-149.5 30v0zM512 512q-53 0 -90.5 37.5t-37.5 90.5t37.5 90.5t90.5 37.5t90.5 -37.5
t37.5 -90.5t-37.5 -90.5t-90.5 -37.5v0z" />
    <glyph glyph-name="uniEA3D" unicode="location&#x36;" 
d="M512 960q-80 0 -149.5 -30t-122 -82.5t-82.5 -122t-30 -149.5q0 -144 60 -262t132 -202t132 -130l60 -46l60 46t132 130t132 202t60 262q0 80 -30 149.5t-82.5 122t-122 82.5t-149.5 30v0zM646 167q-37 -43 -72.5 -76.5t-61.5 -54.5q-26 21 -61.5 54.5t-72.5 76.5
q-38 45 -67.5 90.5t-50.5 92.5q-26 56 -39 113t-13 113q0 61 23 116.5t66 98.5t98.5 66t116.5 23t116.5 -23t98.5 -66t66 -98.5t23 -116.5q0 -56 -13 -113t-39 -113q-21 -47 -50.5 -92.5t-67.5 -90.5v0zM512 768q-53 0 -90.5 -37.5t-37.5 -90.5t37.5 -90.5t90.5 -37.5
t90.5 37.5t37.5 90.5t-37.5 90.5t-90.5 37.5v0zM512 576q-27 0 -45.5 18.5t-18.5 45.5t18.5 45.5t45.5 18.5t45.5 -18.5t18.5 -45.5t-18.5 -45.5t-45.5 -18.5v0z" />
    <glyph glyph-name="uniEA3E" unicode="location&#x37;" 
d="M512 960q-66 0 -124.5 -23.5t-102 -64.5t-68.5 -95.5t-25 -116.5q0 -90 40 -157t88 -136.5t88 -154.5t40 -212v-32q0 -13 8.5 -22t21.5 -10v0h66q13 0 22.5 9.5t9.5 22.5v32q0 127 40 212t88 154.5t88 136.5t40 157q0 62 -25 116.5t-68.5 95.5t-102 64.5t-124.5 23.5v0z
" />
    <glyph glyph-name="uniEA3F" unicode="compass" 
d="M544 -64h-3.5t-3.5 1q-11 2 -18 11t-7 20v480h-480q-11 0 -20 7t-11 18q-3 11 2 21t15 15l960 448q10 4 19.5 2.5t17.5 -8.5q7 -8 8.5 -17.5t-2.5 -19.5l-448 -960q-4 -8 -12 -13t-17 -5v0zM176 512h368q13 0 22.5 -9.5t9.5 -22.5v-368l350 750l-750 -350v0z" />
    <glyph glyph-name="uniEA40" unicode="compass&#x32;" 
d="M1015 951q-8 7 -17.5 8.5t-19.5 -2.5l-960 -448q-10 -5 -15 -15t-2 -21q2 -11 11 -18t20 -7h480v-480q0 -11 7 -20t18 -11q2 -1 3.5 -1h3.5q9 0 17 5t12 13l448 960q4 10 2.5 19.5t-8.5 17.5v0zM576 112v400l350 350l-350 -750v0z" />
    <glyph glyph-name="uniEA41" unicode="compass&#x33;" 
d="M544 -64h-3.5t-3.5 1q-11 2 -18 11t-7 20v480h-480q-11 0 -20 7t-11 18q-3 11 2 21t15 15l960 448q10 4 19.5 2.5t17.5 -8.5q7 -8 8.5 -17.5t-2.5 -19.5l-448 -960q-4 -8 -12 -13t-17 -5v0z" />
    <glyph glyph-name="uniEA42" unicode="compass&#x34;" 
d="M619 480l85 115v45h-45l-115 -85l-49 213h-30l-49 -213l-115 85h-45v-45l85 -115l-213 -49v-30l213 -49l-85 -115v-45h45l115 85l49 -213h30l49 213l115 -85h45v45l-85 115l213 49v30l-213 49v0zM480 384q-13 0 -22.5 9.5t-9.5 22.5t9.5 22.5t22.5 9.5t22.5 -9.5
t9.5 -22.5t-9.5 -22.5t-22.5 -9.5v0zM480 896q-99 0 -186.5 -37.5t-153 -103t-103 -153t-37.5 -186.5t37.5 -186.5t103 -153t153 -103t186.5 -37.5t186.5 37.5t153 103t103 153t37.5 186.5t-37.5 186.5t-103 153t-153 103t-186.5 37.5v0zM480 32q-80 0 -149.5 30t-122 82.5
t-82.5 122t-30 149.5t30 149.5t82.5 122t122 82.5t149.5 30t149.5 -30t122 -82.5t82.5 -122t30 -149.5t-30 -149.5t-82.5 -122t-122 -82.5t-149.5 -30v0z" />
    <glyph glyph-name="uniEA43" unicode="compass&#x35;" 
d="M512 960q-106 0 -199.5 -40t-163 -109.5t-109.5 -163t-40 -199.5t40 -199.5t109.5 -163t163 -109.5t199.5 -40t199.5 40t163 109.5t109.5 163t40 199.5t-40 199.5t-109.5 163t-163 109.5t-199.5 40v0zM96 448q0 86 32.5 162t89 132.5t132.5 89t162 32.5q82 0 155 -30
t129 -82l-412 -176l-176 -412q-52 56 -82 129t-30 155v0zM585 375l-256 -110l110 256l146 -146v0zM512 32q-82 0 -155 30t-129 82l412 176l176 412q52 -56 82 -129t30 -155q0 -86 -32.5 -162t-89 -132.5t-132.5 -89t-162 -32.5v0z" />
    <glyph glyph-name="uniEA44" unicode="compass&#x36;" 
d="M512 960q-106 0 -199.5 -40t-163 -109.5t-109.5 -163t-40 -199.5t40 -199.5t109.5 -163t163 -109.5t199.5 -40t199.5 40t163 109.5t109.5 163t40 199.5t-40 199.5t-109.5 163t-163 109.5t-199.5 40v0zM96 448q0 86 32.5 162t89 132.5t132.5 89t162 32.5q82 0 155 -30
t129 -82l-412 -176l-176 -412q-52 56 -82 129t-30 155v0zM576 448q0 -27 -18.5 -45.5t-45.5 -18.5t-45.5 18.5t-18.5 45.5t18.5 45.5t45.5 18.5t45.5 -18.5t18.5 -45.5v0zM512 32q-82 0 -155 30t-129 82l412 176l176 412q52 -56 82 -129t30 -155q0 -86 -32.5 -162
t-89 -132.5t-132.5 -89t-162 -32.5v0z" />
    <glyph glyph-name="uniEA45" unicode="guide" 
d="M352 832q-46 0 -87 -17.5t-71.5 -48t-48 -71.5t-17.5 -87q0 -36 10.5 -68.5t29.5 -59.5l184 -224l184 224q19 27 29.5 59.5t10.5 68.5q0 46 -17.5 87t-48 71.5t-71.5 48t-87 17.5v0zM352 512q-40 0 -68 28t-28 68t28 68t68 28t68 -28t28 -68t-28 -68t-68 -28v0zM992 960
h-960q-13 0 -22.5 -9.5t-9.5 -22.5v-960q0 -13 9.5 -22.5t22.5 -9.5h960q13 0 22.5 9.5t9.5 22.5v960q0 13 -9.5 22.5t-22.5 9.5v0zM64 0v64h512v128h-512v704h576v-896h-576v0zM960 0h-192v64h192v-64v0zM960 192h-192v704h192v-704v0z" />
    <glyph glyph-name="uniEA46" unicode="guide&#x32;" 
d="M768 800l-512 128l-256 -160v-832l256 160l512 -128l256 160v832l-256 -160v0zM704 50l-384 96v700l384 -96v-700v0z" />
    <glyph glyph-name="uniEA47" unicode="guide&#x33;" 
d="M768 800l-512 128l-256 -160v-832l256 160l512 -128l256 160v832l-256 -160v0zM320 146v700l8 -2v-700l-8 2v0zM344 140v700l16 -4v-700l-16 4v0zM376 132v700l16 -4v-700l-16 4v0zM408 124v700l16 -4v-700l-16 4v0zM440 116v700l16 -4v-700l-16 4v0zM472 108v700l16 -4
v-700l-16 4v0zM504 100v700l16 -4v-700l-16 4v0zM536 92v700l16 -4v-700l-16 4v0zM568 84v700l16 -4v-700l-16 4v0zM600 76v700l16 -4v-700l-16 4v0zM632 68v700l16 -4v-700l-16 4v0zM664 60v700l16 -4v-700l-16 4v0zM704 50l-8 2v700l8 -2v-700v0z" />
    <glyph glyph-name="uniEA48" unicode="guide&#x34;" 
d="M0 768l320 128v-768l-320 -128v768zM384 928l320 -192v-736l-320 160v768zM768 736l256 192v-768l-256 -192v768z" />
    <glyph glyph-name="uniEA49" unicode="guide&#x35;" 
d="M672 768l-320 128l-352 -128v-768l352 128l320 -128l352 128v768l-352 -128v0zM384 814l256 -102v-630l-256 102v630v0zM64 723l256 93v-632l-256 -93v632v0zM960 173l-256 -93v632l256 93v-632v0z" />
    <glyph glyph-name="uniEA4A" unicode="address" 
d="M864 576l128 128l-128 128h-288v80q0 20 -14 34t-34 14h-32q-20 0 -34 -14t-14 -34v-80h-320v-256h320v-64h-352l-96 -96l96 -96h352v-384h128v384h256v192h-256v64h288v0z" />
    <glyph glyph-name="uniEA4B" unicode="reset" 
d="M264 384q-4 -15 -6 -31t-2 -33q0 -53 20 -99.5t55 -81.5t81.5 -55t99.5 -20t99.5 20t81.5 55t55 81.5t20 99.5t-20 99.5t-55 81.5t-81.5 55t-99.5 20v-192l-320 256l320 256v-192q80 0 149.5 -30t122 -82.5t82.5 -122t30 -149.5t-30 -149.5t-82.5 -122t-122 -82.5
t-149.5 -30t-149.5 30t-122 82.5t-82.5 122t-30 149.5q0 16 1.5 32t3.5 32h131v0z" />
    <glyph glyph-name="uniEA4C" unicode="history" horiz-adv-x="1088" 
d="M640 896q93 0 174.5 -35t142.5 -96t96 -142.5t35 -174.5t-35 -174.5t-96 -142.5t-142.5 -96t-174.5 -35v96q71 0 135 26.5t114 76.5t76.5 114t26.5 135t-26.5 135t-76.5 114t-114 76.5t-135 26.5t-135 -26.5t-114 -76.5q-38 -38 -63 -85.5t-34 -99.5h186l-224 -256
l-224 256h165q11 81 50 151.5t98 122t134.5 81t160.5 29.5v0zM832 512v-128h-256v320h128v-192h128z" />
    <glyph glyph-name="uniEA4D" unicode="clock" 
d="M659 211l-211 210v283h128v-229l173 -174zM512 960q-106 0 -199.5 -40t-163 -109.5t-109.5 -163t-40 -199.5t40 -199.5t109.5 -163t163 -109.5t199.5 -40t199.5 40t163 109.5t109.5 163t40 199.5t-40 199.5t-109.5 163t-163 109.5t-199.5 40v0zM512 64q-80 0 -149.5 30
t-122 82.5t-82.5 122t-30 149.5t30 149.5t82.5 122t122 82.5t149.5 30t149.5 -30t122 -82.5t82.5 -122t30 -149.5t-30 -149.5t-82.5 -122t-122 -82.5t-149.5 -30v0z" />
    <glyph glyph-name="uniEA4E" unicode="clock&#x32;" 
d="M512 960q-106 0 -199.5 -40t-163 -109.5t-109.5 -163t-40 -199.5t40 -199.5t109.5 -163t163 -109.5t199.5 -40t199.5 40t163 109.5t109.5 163t40 199.5t-40 199.5t-109.5 163t-163 109.5t-199.5 40v0zM659 211l-211 210v283h128v-229l173 -174l-90 -90v0z" />
    <glyph glyph-name="uniEA4F" unicode="clock&#x33;" 
d="M768 512v-128h-320v384h128v-256h192zM512 960q-106 0 -199.5 -40t-163 -109.5t-109.5 -163t-40 -199.5t40 -199.5t109.5 -163t163 -109.5t199.5 -40t199.5 40t163 109.5t109.5 163t40 199.5t-40 199.5t-109.5 163t-163 109.5t-199.5 40v0zM512 64q-80 0 -149.5 30
t-122 82.5t-82.5 122t-30 149.5t30 149.5t82.5 122t122 82.5t149.5 30t149.5 -30t122 -82.5t82.5 -122t30 -149.5t-30 -149.5t-82.5 -122t-122 -82.5t-149.5 -30v0z" />
    <glyph glyph-name="uniEA50" unicode="clock&#x34;" 
d="M512 960q-106 0 -199.5 -40t-163 -109.5t-109.5 -163t-40 -199.5t40 -199.5t109.5 -163t163 -109.5t199.5 -40t199.5 40t163 109.5t109.5 163t40 199.5t-40 199.5t-109.5 163t-163 109.5t-199.5 40v0zM768 384h-320v384h128v-256h192v-128v0z" />
    <glyph glyph-name="uniEA51" unicode="time&#x36;" 
d="M704 768h-32l-32 192h-320l-32 -192h-32q-53 0 -90.5 -31.5t-37.5 -75.5v-426q0 -44 37.5 -75.5t90.5 -31.5h32l32 -192h320l32 192h32q53 0 90.5 31.5t37.5 75.5v426q0 44 -37.5 75.5t-90.5 31.5v0zM768 235q0 -9 -5 -16t-10 -10q-9 -8 -22 -12.5t-27 -4.5h-448
q-14 0 -27 4.5t-22 11.5q-5 4 -10 11t-5 16v426q0 9 5 16t10 10q9 8 22 12.5t27 4.5h448q14 0 27 -4.5t22 -11.5q5 -4 10 -11t5 -16v-426v0zM416 576h-128q-13 0 -22.5 -9.5t-9.5 -22.5t9.5 -22.5t22.5 -9.5h96v-64h-96q-13 0 -22.5 -9.5t-9.5 -22.5v-128q0 -13 9.5 -22.5
t22.5 -9.5h128q13 0 22.5 9.5t9.5 22.5t-9.5 22.5t-22.5 9.5h-96v64h96q13 0 22.5 9.5t9.5 22.5v128q0 13 -9.5 22.5t-22.5 9.5v0zM672 576q-13 0 -22.5 -9.5t-9.5 -22.5v-96h-64v96q0 13 -9.5 22.5t-22.5 9.5t-22.5 -9.5t-9.5 -22.5v-128q0 -13 9.5 -22.5t22.5 -9.5h96v-96
q0 -13 9.5 -22.5t22.5 -9.5t22.5 9.5t9.5 22.5v256q0 13 -9.5 22.5t-22.5 9.5v0z" />
    <glyph glyph-name="uniEA52" unicode="time&#x37;" 
d="M608 448h-96v160q0 13 -9.5 22.5t-22.5 9.5t-22.5 -9.5t-9.5 -22.5v-192q0 -13 9.5 -22.5t22.5 -9.5h128q13 0 22.5 9.5t9.5 22.5t-9.5 22.5t-22.5 9.5v0zM896 448q0 58 -16.5 111.5t-46 98.5t-70.5 80.5t-91 58.5v0l-32 163h-256l-32 -163v0q-50 -23 -91 -58.5
t-70.5 -80.5t-46 -98.5t-16.5 -111.5t16.5 -111.5t46 -98.5t70.5 -80.5t91 -58.5v0l32 -163h256l32 163v0q50 23 91 58.5t70.5 80.5t46 98.5t16.5 111.5v0zM512 160q-60 0 -112.5 22.5t-91.5 61.5t-61.5 91.5t-22.5 112.5t22.5 112.5t61.5 91.5t91.5 61.5t112.5 22.5
t112.5 -22.5t91.5 -61.5t61.5 -91.5t22.5 -112.5t-22.5 -112.5t-61.5 -91.5t-91.5 -61.5t-112.5 -22.5v0z" />
    <glyph glyph-name="uniEA53" unicode="alarm" 
d="M512 832q-93 0 -174.5 -35t-142.5 -96t-96 -142.5t-35 -174.5t35 -174.5t96 -142.5t142.5 -96t174.5 -35t174.5 35t142.5 96t96 142.5t35 174.5t-35 174.5t-96 142.5t-142.5 96t-174.5 35v0zM512 24q-75 0 -140.5 28.5t-114 77t-77 114t-28.5 140.5t28.5 140.5t77 114
t114 77t140.5 28.5t140.5 -28.5t114 -77t77 -114t28.5 -140.5t-28.5 -140.5t-77 -114t-114 -77t-140.5 -28.5v0zM935 673q12 21 18.5 45t6.5 50q0 80 -56 136t-136 56q-46 0 -86 -20.5t-66 -54.5q50 -10 95.5 -29.5t86 -46.5t75 -61.5t62.5 -74.5v0v0zM408 885
q-26 34 -66 54.5t-86 20.5q-80 0 -136 -56t-56 -136q0 -26 6.5 -50t18.5 -45q28 40 62.5 74.5t75 61.5t86 46.5t95.5 29.5v0zM512 384v256h-64v-320h256v64h-192z" />
    <glyph glyph-name="uniEA54" unicode="alarm&#x32;" 
d="M512 832q-93 0 -174.5 -35t-142.5 -96t-96 -142.5t-35 -174.5t35 -174.5t96 -142.5t142.5 -96t174.5 -35t174.5 35t142.5 96t96 142.5t35 174.5t-35 174.5t-96 142.5t-142.5 96t-174.5 35v0zM512 24q-75 0 -140.5 28.5t-114 77t-77 114t-28.5 140.5t28.5 140.5t77 114
t114 77t140.5 28.5t140.5 -28.5t114 -77t77 -114t28.5 -140.5t-28.5 -140.5t-77 -114t-114 -77t-140.5 -28.5v0zM935 673q12 21 18.5 45t6.5 50q0 80 -56 136t-136 56q-46 0 -86 -20.5t-66 -54.5q50 -10 95.5 -29.5t86 -46.5t75 -61.5t62.5 -74.5v0v0zM408 885
q-26 34 -66 54.5t-86 20.5q-80 0 -136 -56t-56 -136q0 -26 6.5 -50t18.5 -45q28 40 62.5 74.5t75 61.5t86 46.5t95.5 29.5v0zM704 448h-128v128h-128v-128h-128v-128h128v-128h128v128h128v128z" />
    <glyph glyph-name="uniEA55" unicode="alarm&#x33;" 
d="M512 832q-93 0 -174.5 -35t-142.5 -96t-96 -142.5t-35 -174.5t35 -174.5t96 -142.5t142.5 -96t174.5 -35t174.5 35t142.5 96t96 142.5t35 174.5t-35 174.5t-96 142.5t-142.5 96t-174.5 35v0zM512 24q-75 0 -140.5 28.5t-114 77t-77 114t-28.5 140.5t28.5 140.5t77 114
t114 77t140.5 28.5t140.5 -28.5t114 -77t77 -114t28.5 -140.5t-28.5 -140.5t-77 -114t-114 -77t-140.5 -28.5v0zM935 673q12 21 18.5 45t6.5 50q0 80 -56 136t-136 56q-46 0 -86 -20.5t-66 -54.5q50 -10 95.5 -29.5t86 -46.5t75 -61.5t62.5 -74.5v0v0zM408 885
q-26 34 -66 54.5t-86 20.5q-80 0 -136 -56t-56 -136q0 -26 6.5 -50t18.5 -45q28 40 62.5 74.5t75 61.5t86 46.5t95.5 29.5v0zM704 544l-256 -256l-96 96l-64 -64l160 -160l320 320z" />
    <glyph glyph-name="uniEA56" unicode="alarm&#x34;" 
d="M512 832q-93 0 -174.5 -35t-142.5 -96t-96 -142.5t-35 -174.5t35 -174.5t96 -142.5t142.5 -96t174.5 -35t174.5 35t142.5 96t96 142.5t35 174.5t-35 174.5t-96 142.5t-142.5 96t-174.5 35v0zM512 24q-75 0 -140.5 28.5t-114 77t-77 114t-28.5 140.5t28.5 140.5t77 114
t114 77t140.5 28.5t140.5 -28.5t114 -77t77 -114t28.5 -140.5t-28.5 -140.5t-77 -114t-114 -77t-140.5 -28.5v0zM935 673q12 21 18.5 45t6.5 50q0 80 -56 136t-136 56q-46 0 -86 -20.5t-66 -54.5q50 -10 95.5 -29.5t86 -46.5t75 -61.5t62.5 -74.5v0v0zM408 885
q-26 34 -66 54.5t-86 20.5q-80 0 -136 -56t-56 -136q0 -26 6.5 -50t18.5 -45q28 40 62.5 74.5t75 61.5t86 46.5t95.5 29.5v0zM733 253l-90 -90l-131 130l-131 -130l-90 90l130 131l-130 131l90 90l131 -130l131 130l90 -90l-130 -131l130 -131v0z" />
    </font>
</defs>
</svg>
